<?xml version="1.0" encoding="UTF-8"?>
<svg width="652px" height="367px" viewBox="0 0 652 367" version="1.1" xmlns="http://www.w3.org/2000/svg" xmlns:xlink="http://www.w3.org/1999/xlink">
    <title>architecture</title>
    <defs>
        <rect id="path-1" x="0" y="0" width="199" height="61"></rect>
        <mask id="mask-2" maskContentUnits="userSpaceOnUse" maskUnits="objectBoundingBox" x="0" y="0" width="199" height="61" fill="white">
            <use xlink:href="#path-1"></use>
        </mask>
        <rect id="path-3" x="0" y="0" width="199" height="61"></rect>
        <mask id="mask-4" maskContentUnits="userSpaceOnUse" maskUnits="objectBoundingBox" x="0" y="0" width="199" height="61" fill="white">
            <use xlink:href="#path-3"></use>
        </mask>
        <rect id="path-5" x="0" y="0" width="199" height="61"></rect>
        <mask id="mask-6" maskContentUnits="userSpaceOnUse" maskUnits="objectBoundingBox" x="0" y="0" width="199" height="61" fill="white">
            <use xlink:href="#path-5"></use>
        </mask>
        <rect id="path-7" x="0" y="0" width="199" height="61"></rect>
        <mask id="mask-8" maskContentUnits="userSpaceOnUse" maskUnits="objectBoundingBox" x="0" y="0" width="199" height="61" fill="white">
            <use xlink:href="#path-7"></use>
        </mask>
        <rect id="path-9" x="30" y="25" width="481" height="129"></rect>
        <mask id="mask-10" maskContentUnits="userSpaceOnUse" maskUnits="objectBoundingBox" x="0" y="0" width="481" height="129" fill="white">
            <use xlink:href="#path-9"></use>
        </mask>
        <rect id="path-11" x="30" y="161" width="481" height="171"></rect>
        <mask id="mask-12" maskContentUnits="userSpaceOnUse" maskUnits="objectBoundingBox" x="0" y="0" width="481" height="171" fill="white">
            <use xlink:href="#path-11"></use>
        </mask>
    </defs>
    <g id="architecture" stroke="none" stroke-width="1" fill="none" fill-rule="evenodd">
        <rect fill="#E5E5E5" x="0" y="0" width="652" height="367"></rect>
        <g id="编组" transform="translate(199.000000, 42.000000)">
            <rect id="矩形" stroke="#E65100" stroke-width="2" fill="#FFAB40" x="1" y="1" width="197" height="59"></rect>
            <text id="Leader" font-family="PTMono-Bold, PT Mono" font-size="28" font-weight="bold" fill="#212121">
                <tspan x="48.6" y="40">Leader</tspan>
            </text>
        </g>
        <g id="编组备份" transform="translate(43.000000, 168.000000)">
            <use id="矩形" stroke="#E65100" mask="url(#mask-2)" stroke-width="4" fill="#FFECB3" stroke-dasharray="5" xlink:href="#path-1"></use>
            <text id="follower1" font-family="PTMono-Bold, PT Mono" font-size="24" font-weight="bold" fill="#212121">
                <tspan x="34.2" y="40">follower1</tspan>
            </text>
        </g>
        <g id="编组备份-2" transform="translate(298.000000, 168.000000)">
            <use id="矩形" stroke="#E65100" mask="url(#mask-4)" stroke-width="4" fill="#FFECB3" stroke-dasharray="5" xlink:href="#path-3"></use>
            <text id="follower2" font-family="PTMono-Bold, PT Mono" font-size="24" font-weight="bold" fill="#212121">
                <tspan x="34.2" y="40">follower2</tspan>
            </text>
        </g>
        <g id="编组备份-3" transform="translate(43.000000, 258.000000)">
            <use id="矩形" stroke="#E65100" mask="url(#mask-6)" stroke-width="4" fill="#FFECB3" stroke-dasharray="5" xlink:href="#path-5"></use>
            <text id="follower3" font-family="PTMono-Bold, PT Mono" font-size="24" font-weight="bold" fill="#212121">
                <tspan x="34.2" y="40">follower3</tspan>
            </text>
        </g>
        <g id="编组备份-4" transform="translate(299.000000, 258.000000)">
            <use id="矩形" stroke="#E65100" mask="url(#mask-8)" stroke-width="4" fill="#FFECB3" stroke-dasharray="5" xlink:href="#path-7"></use>
            <text id="follower4" font-family="PTMono-Bold, PT Mono" font-size="24" font-weight="bold" fill="#212121">
                <tspan x="34.2" y="40">follower4</tspan>
            </text>
        </g>
        <path id="直线-13" d="M224.108503,164.371457 L224.493119,165.294534 L224.03158,165.486842 L218.493119,167.794534 L218.03158,167.986842 L217.646965,167.063765 L218.108503,166.871457 L223.646965,164.563765 L224.108503,164.371457 Z M235.185426,159.756072 L235.570042,160.679149 L235.108503,160.871457 L229.570042,163.179149 L229.108503,163.371457 L228.723888,162.44838 L229.185426,162.256072 L234.723888,159.94838 L235.185426,159.756072 Z M246.262349,155.140688 L246.646965,156.063765 L246.185426,156.256072 L240.646965,158.563765 L240.185426,158.756072 L239.800811,157.832995 L240.262349,157.640688 L245.800811,155.332995 L246.262349,155.140688 Z M257.339273,150.525303 L257.723888,151.44838 L257.262349,151.640688 L251.723888,153.94838 L251.262349,154.140688 L250.877734,153.217611 L251.339273,153.025303 L256.877734,150.717611 L257.339273,150.525303 Z M268.416196,145.909919 L268.800811,146.832995 L268.339273,147.025303 L262.800811,149.332995 L262.339273,149.525303 L261.954657,148.602226 L262.416196,148.409919 L267.954657,146.102226 L268.416196,145.909919 Z M279.493119,141.294534 L279.877734,142.217611 L279.416196,142.409919 L273.877734,144.717611 L273.416196,144.909919 L273.03158,143.986842 L273.493119,143.794534 L279.03158,141.486842 L279.493119,141.294534 Z M290.570042,136.679149 L290.954657,137.602226 L290.493119,137.794534 L284.954657,140.102226 L284.493119,140.294534 L284.108503,139.371457 L284.570042,139.179149 L290.108503,136.871457 L290.570042,136.679149 Z M301.646965,132.063765 L302.03158,132.986842 L301.570042,133.179149 L296.03158,135.486842 L295.570042,135.679149 L295.185426,134.756072 L295.646965,134.563765 L301.185426,132.256072 L301.646965,132.063765 Z M312.723888,127.44838 L313.108503,128.371457 L312.646965,128.563765 L307.108503,130.871457 L306.646965,131.063765 L306.262349,130.140688 L306.723888,129.94838 L312.262349,127.640688 L312.723888,127.44838 Z M323.800811,122.832995 L324.185426,123.756072 L323.723888,123.94838 L318.185426,126.256072 L317.723888,126.44838 L317.339273,125.525303 L317.800811,125.332995 L323.339273,123.025303 L323.800811,122.832995 Z M334.877734,118.217611 L335.262349,119.140688 L334.800811,119.332995 L329.262349,121.640688 L328.800811,121.832995 L328.416196,120.909919 L328.877734,120.717611 L334.416196,118.409919 L334.877734,118.217611 Z M345.954657,113.602226 L346.339273,114.525303 L345.877734,114.717611 L340.339273,117.025303 L339.877734,117.217611 L339.493119,116.294534 L339.954657,116.102226 L345.493119,113.794534 L345.954657,113.602226 Z M357.03158,108.986842 L357.416196,109.909919 L356.954657,110.102226 L351.416196,112.409919 L350.954657,112.602226 L350.570042,111.679149 L351.03158,111.486842 L356.570042,109.179149 L357.03158,108.986842 Z M369.769231,99.3461538 C372.063337,98.3902764 374.697969,99.4751249 375.653846,101.769231 C376.609724,104.063337 375.524875,106.697969 373.230769,107.653846 C371.092899,108.544625 368.659306,107.663173 367.564169,105.682389 L362.493119,107.794534 L362.03158,107.986842 L361.646965,107.063765 L362.108503,106.871457 L367.17899,104.757956 C366.54365,102.585592 367.631363,100.236932 369.769231,99.3461538 Z" fill="#6200EA" fill-rule="nonzero"></path>
        <path id="直线-14" d="M223.953092,249.396251 L224.657921,250.105628 L224.303233,250.458042 L220.046972,254.687019 L219.692284,255.039434 L218.987454,254.330057 L219.342143,253.977642 L223.598403,249.748666 L223.953092,249.396251 Z M232.465613,240.938297 L233.170442,241.647674 L232.815754,242.000089 L228.559493,246.229065 L228.204805,246.58148 L227.499975,245.872103 L227.854664,245.519689 L232.110924,241.290712 L232.465613,240.938297 Z M240.978134,232.480343 L241.682964,233.18972 L241.328275,233.542135 L237.072015,237.771112 L236.717326,238.123526 L236.012497,237.41415 L236.367185,237.061735 L240.623446,232.832758 L240.978134,232.480343 Z M249.490655,224.022389 L250.195485,224.731766 L249.840796,225.084181 L245.584536,229.313158 L245.229847,229.665573 L244.525018,228.956196 L244.879706,228.603781 L249.135967,224.374804 L249.490655,224.022389 Z M258.003177,215.564436 L258.708006,216.273812 L258.353318,216.626227 L254.097057,220.855204 L253.742369,221.207619 L253.037539,220.498242 L253.392228,220.145827 L257.648488,215.91685 L258.003177,215.564436 Z M266.515698,207.106482 L267.220527,207.815859 L266.865839,208.168273 L262.609578,212.39725 L262.25489,212.749665 L261.55006,212.040288 L261.904749,211.687873 L266.161009,207.458897 L266.515698,207.106482 Z M275.028219,198.648528 L275.733049,199.357905 L275.37836,199.71032 L271.1221,203.939296 L270.767411,204.291711 L270.062582,203.582334 L270.41727,203.22992 L274.673531,199.000943 L275.028219,198.648528 Z M283.54074,190.190574 L284.24557,190.899951 L283.890881,191.252366 L279.634621,195.481343 L279.279932,195.833757 L278.575103,195.124381 L278.929791,194.771966 L283.186052,190.542989 L283.54074,190.190574 Z M292.053261,181.73262 L292.758091,182.441997 L292.403403,182.794412 L288.147142,187.023389 L287.792454,187.375804 L287.087624,186.666427 L287.442312,186.314012 L291.698573,182.085035 L292.053261,181.73262 Z M300.565783,173.274667 L301.270612,173.984043 L300.915924,174.336458 L296.659663,178.565435 L296.304975,178.91785 L295.600145,178.208473 L295.954834,177.856058 L300.211094,173.627081 L300.565783,173.274667 Z M309.078304,164.816713 L309.783133,165.52609 L309.428445,165.878504 L305.172184,170.107481 L304.817496,170.459896 L304.112667,169.750519 L304.467355,169.398105 L308.723616,165.169128 L309.078304,164.816713 Z M317.590825,156.358759 L318.295655,157.068136 L317.940966,157.420551 L313.684706,161.649528 L313.330017,162.001942 L312.625188,161.292566 L312.979876,160.940151 L317.236137,156.711174 L317.590825,156.358759 Z M326.103346,147.900805 L326.808176,148.610182 L326.453488,148.962597 L322.197227,153.191574 L321.842539,153.543988 L321.137709,152.834612 L321.492397,152.482197 L325.748658,148.25322 L326.103346,147.900805 Z M334.615868,139.442852 L335.320697,140.152228 L334.966009,140.504643 L330.709748,144.73362 L330.35506,145.086035 L329.65023,144.376658 L330.004919,144.024243 L334.261179,139.795266 L334.615868,139.442852 Z M343.128389,130.984898 L343.833218,131.694275 L343.47853,132.046689 L339.222269,136.275666 L338.867581,136.628081 L338.162751,135.918704 L338.51744,135.566289 L342.7737,131.337313 L343.128389,130.984898 Z M351.64091,122.526944 L352.34574,123.236321 L351.991051,123.588735 L347.734791,127.817712 L347.380102,128.170127 L346.675273,127.46075 L347.029961,127.108336 L351.286222,122.879359 L351.64091,122.526944 Z M360.153431,114.06899 L360.858261,114.778367 L360.503572,115.130782 L356.247312,119.359759 L355.892623,119.712173 L355.187794,119.002797 L355.542482,118.650382 L359.798743,114.421405 L360.153431,114.06899 Z M368.328267,100.307805 C370.091268,98.556105 372.940496,98.5652665 374.692195,100.328267 C376.443895,102.091268 376.434734,104.940496 374.671733,106.692195 C373.028769,108.324628 370.442457,108.427818 368.680181,107.007449 L364.759833,110.901805 L364.405145,111.25422 L363.700315,110.544843 L364.055004,110.192428 L367.975282,106.298201 C366.565438,104.5268 366.684995,101.940543 368.328267,100.307805 Z" fill="#6200EA" fill-rule="nonzero"></path>
        <path id="直线" d="M326.875039,164.36205 L327.68539,164.947995 L327.392417,165.353171 L324.905175,168.792973 L324.612202,169.198148 L323.801852,168.612202 L324.094825,168.207027 L326.582066,164.767225 L326.875039,164.36205 Z M333.906387,154.637845 L334.716737,155.223791 L334.423765,155.628966 L330.908091,160.491068 L330.615118,160.896244 L329.804767,160.310298 L330.09774,159.905123 L333.613414,155.043021 L333.906387,154.637845 Z M340.937735,144.913641 L341.748085,145.499587 L341.455112,145.904762 L337.939438,150.766864 L337.646466,151.172039 L336.836115,150.586094 L337.129088,150.180919 L340.644762,145.318816 L340.937735,144.913641 Z M347.969082,135.189437 L348.779433,135.775383 L348.48646,136.180558 L344.970786,141.04266 L344.677813,141.447835 L343.867463,140.861889 L344.160436,140.456714 L347.67611,135.594612 L347.969082,135.189437 Z M355.00043,125.465233 L355.810781,126.051178 L355.517808,126.456353 L352.002134,131.318456 L351.709161,131.723631 L350.898811,131.137685 L351.191783,130.73251 L354.707457,125.870408 L355.00043,125.465233 Z M362.031778,115.741028 L362.842128,116.326974 L362.549155,116.732149 L359.033482,121.594251 L358.740509,121.999426 L357.930158,121.413481 L358.223131,121.008306 L361.738805,116.146203 L362.031778,115.741028 Z M367.853423,100.863245 C369.309663,98.849296 372.122807,98.3971836 374.136755,99.8534234 C376.150704,101.309663 376.602816,104.122807 375.146577,106.136755 C373.78934,108.013785 371.253428,108.534123 369.284407,107.417234 L366.064829,111.870047 L365.771856,112.275222 L364.961506,111.689276 L365.254479,111.284101 L368.473697,106.830927 C366.796576,105.310958 366.496336,102.740067 367.853423,100.863245 Z" fill="#6200EA" fill-rule="nonzero"></path>
        <path id="直线-2" d="M325.282204,256.143658 L326.240198,256.430446 L326.096804,256.909443 L324.978997,260.643394 L324.835603,261.122391 L323.877609,260.835603 L324.021003,260.356606 L325.13881,256.622655 L325.282204,256.143658 Z M328.72366,244.647729 L329.681654,244.934517 L329.53826,245.413514 L327.817532,251.161478 L327.674138,251.640475 L326.716144,251.353687 L326.859538,250.87469 L328.580266,245.126726 L328.72366,244.647729 Z M332.165117,233.1518 L333.123111,233.438588 L332.979717,233.917585 L331.258989,239.66555 L331.115595,240.144547 L330.157601,239.857759 L330.300995,239.378762 L332.021723,233.630797 L332.165117,233.1518 Z M335.606573,221.655871 L336.564567,221.942659 L336.421173,222.421657 L334.700445,228.169621 L334.557051,228.648618 L333.599057,228.36183 L333.742451,227.882833 L335.463179,222.134868 L335.606573,221.655871 Z M339.04803,210.159943 L340.006024,210.446731 L339.86263,210.925728 L338.141901,216.673692 L337.998507,217.152689 L337.040513,216.865901 L337.183907,216.386904 L338.904636,210.63894 L339.04803,210.159943 Z M342.489486,198.664014 L343.44748,198.950802 L343.304086,199.429799 L341.583358,205.177763 L341.439964,205.65676 L340.48197,205.369972 L340.625364,204.890975 L342.346092,199.143011 L342.489486,198.664014 Z M345.930942,187.168085 L346.888936,187.454873 L346.745542,187.93387 L345.024814,193.681835 L344.88142,194.160832 L343.923426,193.874044 L344.06682,193.395047 L345.787548,187.647082 L345.930942,187.168085 Z M349.372399,175.672156 L350.330393,175.958944 L350.186999,176.437941 L348.466271,182.185906 L348.322877,182.664903 L347.364882,182.378115 L347.508276,181.899118 L349.229005,176.151153 L349.372399,175.672156 Z M352.813855,164.176228 L353.771849,164.463016 L353.628455,164.942013 L351.907727,170.689977 L351.764333,171.168974 L350.806339,170.882186 L350.949733,170.403189 L352.670461,164.655225 L352.813855,164.176228 Z M356.255311,152.680299 L357.213306,152.967087 L357.069912,153.446084 L355.349183,159.194048 L355.205789,159.673045 L354.247795,159.386257 L354.391189,158.90726 L356.111917,153.159296 L356.255311,152.680299 Z M359.696768,141.18437 L360.654762,141.471158 L360.511368,141.950155 L358.79064,147.69812 L358.647246,148.177117 L357.689252,147.890329 L357.832646,147.411332 L359.553374,141.663367 L359.696768,141.18437 Z M363.138224,129.688441 L364.096218,129.975229 L363.952824,130.454226 L362.232096,136.202191 L362.088702,136.681188 L361.130708,136.3944 L361.274102,135.915403 L362.99483,130.167438 L363.138224,129.688441 Z M366.579681,118.192513 L367.537675,118.479301 L367.394281,118.958298 L365.673552,124.706262 L365.530158,125.185259 L364.572164,124.898471 L364.715558,124.419474 L366.436287,118.67151 L366.579681,118.192513 Z M367.189027,102.209454 C367.901776,99.8285691 370.409661,98.4762778 372.790546,99.1890267 C375.171431,99.9017757 376.523722,102.409661 375.810973,104.790546 C375.146708,107.009475 372.923222,108.334988 370.69648,107.928084 L369.115009,113.210333 L368.971615,113.68933 L368.013621,113.402542 L368.157015,112.923545 L369.737811,107.641047 C367.654012,106.757339 366.524802,104.428248 367.189027,102.209454 Z" fill="#6200EA" fill-rule="nonzero"></path>
        <text id="(Scheduler)" font-family="NanumPen, Nanum Pen Script" font-size="24" font-weight="normal" fill="#212121">
            <tspan x="533.388" y="91">(Scheduler)</tspan>
        </text>
        <text id="(RunTime)备份" font-family="NanumPen, Nanum Pen Script" font-size="24" font-weight="normal" fill="#212121">
            <tspan x="539.052" y="240">(RunTime)</tspan>
        </text>
        <g id="编组-2" transform="translate(347.000000, 84.000000)">
            <rect id="矩形" fill="#EF5350" x="0" y="0" width="49" height="17"></rect>
            <text id="raft" font-family="PingFangSC-Regular, PingFang SC" font-size="12" font-weight="normal" fill="#212121">
                <tspan x="15.088" y="13">raft</tspan>
            </text>
        </g>
        <g id="编组-2备份" transform="translate(191.000000, 170.000000)">
            <rect id="矩形" fill="#EF5350" x="0" y="0" width="49" height="17"></rect>
            <text id="raft" font-family="PingFangSC-Regular, PingFang SC" font-size="12" font-weight="normal" fill="#212121">
                <tspan x="15.088" y="13">raft</tspan>
            </text>
        </g>
        <g id="编组-2备份-2" transform="translate(191.000000, 260.000000)">
            <rect id="矩形" fill="#EF5350" x="0" y="0" width="49" height="17"></rect>
            <text id="raft" font-family="PingFangSC-Regular, PingFang SC" font-size="12" font-weight="normal" fill="#212121">
                <tspan x="15.088" y="13">raft</tspan>
            </text>
        </g>
        <g id="编组-2备份-3" transform="translate(300.000000, 170.000000)">
            <rect id="矩形" fill="#EF5350" x="0" y="0" width="49" height="17"></rect>
            <text id="raft" font-family="PingFangSC-Regular, PingFang SC" font-size="12" font-weight="normal" fill="#212121">
                <tspan x="15.088" y="13">raft</tspan>
            </text>
        </g>
        <g id="编组-2备份-4" transform="translate(301.000000, 260.000000)">
            <rect id="矩形" fill="#EF5350" x="0" y="0" width="49" height="17"></rect>
            <text id="raft" font-family="PingFangSC-Regular, PingFang SC" font-size="12" font-weight="normal" fill="#212121">
                <tspan x="15.088" y="13">raft</tspan>
            </text>
        </g>
        <g id="编组-3" transform="translate(64.000000, 37.000000)">
            <circle id="椭圆形" stroke="#33691E" fill="#E6EE9C" cx="35.5" cy="35.5" r="35"></circle>
            <text id="storage-outside" font-family="PTMono-Bold, PT Mono" font-size="12" font-weight="bold" fill="#212121">
                <tspan x="10.3" y="35">storage</tspan>
                <tspan x="10.3" y="49">outside</tspan>
            </text>
        </g>
        <g id="编组-3备份" transform="translate(438.000000, 103.000000)">
            <circle id="椭圆形" stroke="#33691E" fill="#4FC3F7" cx="21" cy="21" r="20.5"></circle>
            <text id="FSM" font-family="PTMono-Bold, PT Mono" font-size="12" font-weight="bold" fill="#212121">
                <tspan x="10.2" y="25">FSM</tspan>
            </text>
        </g>
        <line x1="397.5" y1="103.5" x2="438.5" y2="124.5" id="直线-15" stroke="#B71C1C" stroke-linecap="square"></line>
        <line x1="135.5" y1="72.5" x2="198.5" y2="72.5" id="直线-16" stroke="#979797" stroke-linecap="square"></line>
        <use id="矩形" stroke="#263238" mask="url(#mask-10)" stroke-width="2" stroke-dasharray="5" xlink:href="#path-9"></use>
        <use id="矩形备份" stroke="#979797" mask="url(#mask-12)" stroke-width="2" stroke-dasharray="5" xlink:href="#path-11"></use>
    </g>
</svg>