<?xml version="1.0" encoding="UTF-8"?>
<svg width="520px" height="640px" viewBox="0 0 520 640" version="1.1" xmlns="http://www.w3.org/2000/svg" xmlns:xlink="http://www.w3.org/1999/xlink">
    <title>画板</title>
    <g id="画板" stroke="none" stroke-width="1" fill="none" fill-rule="evenodd">
        <rect fill="#E3E3E3" x="0" y="0" width="520" height="640"></rect>
        <rect id="矩形" stroke="#AA00FF" stroke-width="2" fill="#00BFA5" x="93" y="231" width="333" height="71"></rect>
        <rect id="矩形备份" stroke="#AA00FF" stroke-width="2" fill="#FFAB00" x="93" y="375" width="333" height="71"></rect>
        <g id="编组" transform="translate(114.493151, 102.000000)">
            <rect id="矩形备份-2" stroke="#3E2723" stroke-width="2" fill="#9E9E9E" x="1" y="1" width="141.013699" height="56"></rect>
            <text id="CronJob" font-family="PTMono-Regular, PT Mono" font-size="24" font-weight="normal" fill="#FFFFFF">
                <tspan x="21.1068493" y="38">CronJob</tspan>
            </text>
        </g>
        <g id="编组备份" transform="translate(129.493151, 54.000000)">
            <rect id="矩形备份-2" stroke="#212121" stroke-width="2" fill="#9E9E9E" x="1" y="1" width="141.013699" height="56"></rect>
            <text id="CronJob" font-family="PTMono-Regular, PT Mono" font-size="24" font-weight="normal" fill="#FFFFFF">
                <tspan x="21.1068493" y="38">CronJob</tspan>
            </text>
        </g>
        <g id="编组备份-2" transform="translate(237.493151, 123.000000)">
            <rect id="矩形备份-2" stroke="#212121" stroke-width="2" fill="#9E9E9E" x="1" y="1" width="141.013699" height="56"></rect>
            <text id="CronJob" font-family="PTMono-Regular, PT Mono" font-size="24" font-weight="normal" fill="#FFFFFF">
                <tspan x="21.1068493" y="38">CronJob</tspan>
            </text>
        </g>
        <g id="编组备份-3" transform="translate(254.493151, 73.000000)">
            <rect id="矩形备份-2" stroke="#3E2723" stroke-width="2" fill="#9E9E9E" x="1" y="1" width="141.013699" height="56"></rect>
            <text id="CronJob" font-family="PTMono-Regular, PT Mono" font-size="24" font-weight="normal" fill="#FFFFFF">
                <tspan x="21.1068493" y="38">CronJob</tspan>
            </text>
        </g>
        <g id="编组备份-4" transform="translate(144.493151, 506.000000)">
            <rect id="矩形备份-2" stroke="#212121" stroke-width="2" fill="#A1887F" x="1" y="1" width="141.013699" height="56"></rect>
            <text id="Job" font-family="PTMono-Regular, PT Mono" font-size="24" font-weight="normal" fill="#FFFFFF">
                <tspan x="49.9068493" y="38">Job</tspan>
            </text>
        </g>
        <g id="编组备份-7" transform="translate(240.493151, 484.000000)">
            <rect id="矩形备份-2" stroke="#212121" stroke-width="2" fill="#A1887F" x="1" y="1" width="141.013699" height="56"></rect>
            <text id="Job" font-family="PTMono-Regular, PT Mono" font-size="24" font-weight="normal" fill="#FFFFFF">
                <tspan x="49.9068493" y="38">Job</tspan>
            </text>
        </g>
        <g id="编组备份-5" transform="translate(140.493151, 553.000000)">
            <rect id="矩形备份-2" stroke="#212121" stroke-width="2" fill="#A1887F" x="1" y="1" width="141.013699" height="56"></rect>
            <text id="Job" font-family="PTMono-Regular, PT Mono" font-size="24" font-weight="normal" fill="#FFFFFF">
                <tspan x="49.9068493" y="38">Job</tspan>
            </text>
        </g>
        <g id="编组备份-6" transform="translate(262.493151, 540.000000)">
            <rect id="矩形备份-2" stroke="#212121" stroke-width="2" fill="#A1887F" x="1" y="1" width="141.013699" height="56"></rect>
            <text id="Job" font-family="PTMono-Regular, PT Mono" font-size="24" font-weight="normal" fill="#FFFFFF">
                <tspan x="49.9068493" y="38">Job</tspan>
            </text>
        </g>
        <text id="Scheduler" font-family="PTMono-Bold, PT Mono" font-size="28" font-weight="bold" fill="#FFFFFF">
            <tspan x="183.4" y="276">Scheduler</tspan>
        </text>
        <path id="直线" d="M180.014869,302.98524 L184.01476,303.014869 L183.999945,305.014814 L183.677,348.515 L193.677444,348.589545 L181.5,372.5 L169.678102,348.411772 L179.677,348.485 L180.000055,304.985186 L180.014869,302.98524 Z" fill="#6200EA" fill-rule="nonzero"></path>
        <path id="直线备份" d="M307.014869,301.98524 L311.01476,302.014869 L310.999945,304.014814 L310.677,347.515 L320.677444,347.589545 L308.5,371.5 L296.678102,347.411772 L306.677,347.485 L307.000055,303.985186 L307.014869,301.98524 Z" transform="translate(309.000000, 338.000000) rotate(-180.424405) translate(-309.000000, -338.000000) " fill="#6200EA" fill-rule="nonzero"></path>
        <text id="Job-Runtime" font-family="PTMono-Bold, PT Mono" font-size="28" font-weight="bold" fill="#FFFFFF">
            <tspan x="167.1" y="419">Job Runtime</tspan>
        </text>
        <line x1="186.5" y1="160.5" x2="262.5" y2="230.5" id="直线-2" stroke="#979797" stroke-linecap="square" stroke-dasharray="4"></line>
        <line x1="309.5" y1="181.5" x2="262.5" y2="230.5" id="直线-3" stroke="#979797" stroke-linecap="square" stroke-dasharray="4"></line>
        <line x1="201.5" y1="111.5" x2="260.5" y2="230.5" id="直线-4" stroke="#979797" stroke-linecap="square" stroke-dasharray="4"></line>
        <line x1="326.5" y1="131.5" x2="262.5" y2="230.5" id="直线-5" stroke="#979797" stroke-linecap="square" stroke-dasharray="4"></line>
        <line x1="259.5" y1="447.5" x2="216.5" y2="506.5" id="直线-6" stroke="#979797" stroke-linecap="square" stroke-dasharray="4"></line>
        <line x1="262.5" y1="447.5" x2="312.5" y2="484.5" id="直线-7" stroke="#979797" stroke-linecap="square" stroke-dasharray="4"></line>
        <line x1="260.5" y1="447.5" x2="212.5" y2="553.5" id="直线-8" stroke="#979797" stroke-linecap="square" stroke-dasharray="4"></line>
        <line x1="262.5" y1="447.5" x2="334.5" y2="540.5" id="直线-9" stroke="#979797" stroke-linecap="square" stroke-dasharray="4"></line>
        <text id="schedule" font-family="PTMono-Regular, PT Mono" font-size="16" font-weight="normal" fill="#000000">
            <tspan x="91.6" y="345">schedule</tspan>
        </text>
        <text id="result-sync" font-family="PTMono-Regular, PT Mono" font-size="16" font-weight="normal" fill="#000000">
            <tspan x="321.2" y="346">result sync</tspan>
        </text>
    </g>
</svg>