<svg version="1.1" xmlns="http://www.w3.org/2000/svg" viewBox="0 0 439.39198303222656 442.5" width="878.7839660644531" height="885">
  <!-- svg-source:excalidraw -->
  
  <defs>
    <style class="style-fonts">
      @font-face {
        font-family: "Virgil";
        src: url("https://excalidraw.com/Virgil.woff2");
      }
      @font-face {
        font-family: "Cascadia";
        src: url("https://excalidraw.com/Cascadia.woff2");
      }
    </style>
    
  </defs>
  <rect x="0" y="0" width="439.39198303222656" height="442.5" fill="#ffffff"></rect><g stroke-linecap="round" transform="translate(151.5 206.5) rotate(0 54.5 29.5)"><path d="M14.75 0 M14.75 0 C33.18 -1.9, 53.23 -1.28, 94.25 0 M14.75 0 C32.34 0.86, 51.06 1.38, 94.25 0 M94.25 0 C105.77 0.42, 107.34 6.63, 109 14.75 M94.25 0 C104.63 -0.48, 106.82 7.14, 109 14.75 M109 14.75 C109.37 23.42, 109.95 34.57, 109 44.25 M109 14.75 C108.31 21.27, 109.61 29.6, 109 44.25 M109 44.25 C107.73 56, 103 59.29, 94.25 59 M109 44.25 C109.56 54.27, 105.84 59.13, 94.25 59 M94.25 59 C63.6 58.08, 33.57 58.54, 14.75 59 M94.25 59 C65.77 59.88, 35.07 59.1, 14.75 59 M14.75 59 C5.43 57.69, -1.07 53.4, 0 44.25 M14.75 59 C3.5 58.07, -1.34 56.22, 0 44.25 M0 44.25 C1.6 35.36, 1.92 28.48, 0 14.75 M0 44.25 C-0.9 36.8, 0.8 28.1, 0 14.75 M0 14.75 C0.07 6.44, 5.31 -0.37, 14.75 0 M0 14.75 C-0.2 3.71, 5.62 0.38, 14.75 0" stroke="#1e1e1e" stroke-width="1" fill="none"></path></g><g transform="translate(199.44000005722046 223.5) rotate(0 6.559999942779541 12.5)"><text x="6.559999942779541" y="0" font-family="Virgil, Segoe UI Emoji" font-size="20px" fill="#1e1e1e" text-anchor="middle" style="white-space: pre;" direction="ltr" dominant-baseline="text-before-edge">A</text></g><g stroke-linecap="round" transform="translate(151.5 271) rotate(0 54.5 29.5)"><path d="M14.75 0 M14.75 0 C33.81 -1.42, 54.47 -0.08, 94.25 0 M14.75 0 C46.41 -0.89, 76.01 -1.57, 94.25 0 M94.25 0 C103.95 1.11, 107.9 3.9, 109 14.75 M94.25 0 C106.08 -1.33, 107.44 3.35, 109 14.75 M109 14.75 C108.53 20.71, 109.68 30.6, 109 44.25 M109 14.75 C108.57 25.87, 109.43 36, 109 44.25 M109 44.25 C108.81 54.44, 103.56 58.81, 94.25 59 M109 44.25 C109.22 52.88, 105.92 56.78, 94.25 59 M94.25 59 C77.01 60.25, 56.04 58.36, 14.75 59 M94.25 59 C69.4 59.68, 44.23 58.75, 14.75 59 M14.75 59 C3.55 57.72, -1.49 52.2, 0 44.25 M14.75 59 C6.32 57.01, -1.74 51.9, 0 44.25 M0 44.25 C1.71 36.32, -1.03 29.42, 0 14.75 M0 44.25 C-0.44 37.3, -0.42 31.75, 0 14.75 M0 14.75 C0.91 3.73, 5.26 0.73, 14.75 0 M0 14.75 C0.59 6.35, 7.07 0.33, 14.75 0" stroke="#1e1e1e" stroke-width="1" fill="none"></path></g><g transform="translate(198.7300000190735 288) rotate(0 7.269999980926514 12.5)"><text x="7.269999980926514" y="0" font-family="Virgil, Segoe UI Emoji" font-size="20px" fill="#1e1e1e" text-anchor="middle" style="white-space: pre;" direction="ltr" dominant-baseline="text-before-edge">B</text></g><g stroke-linecap="round" transform="translate(151.5 338) rotate(0 54.5 29.5)"><path d="M14.75 0 M14.75 0 C30.22 1.65, 47.57 -1.09, 94.25 0 M14.75 0 C44.97 -0.41, 73.31 -0.39, 94.25 0 M94.25 0 C105.47 0.91, 107.82 5.26, 109 14.75 M94.25 0 C104.92 0.59, 110.43 7.07, 109 14.75 M109 14.75 C108.72 25.44, 108.89 32.89, 109 44.25 M109 14.75 C109.95 21.89, 109.38 29.29, 109 44.25 M109 44.25 C108.81 52.65, 102.65 60.85, 94.25 59 M109 44.25 C108.5 55.73, 105.56 60.38, 94.25 59 M94.25 59 C65.94 57.86, 41.3 57.84, 14.75 59 M94.25 59 C67.52 59.18, 43.03 58.01, 14.75 59 M14.75 59 C4.94 60.92, 1.16 55.57, 0 44.25 M14.75 59 C4.52 56.87, -1.55 53.97, 0 44.25 M0 44.25 C-0.41 38.71, -1.52 31.15, 0 14.75 M0 44.25 C-0.96 37.79, -0.88 29.79, 0 14.75 M0 14.75 C0.19 5.67, 3.87 -1.63, 14.75 0 M0 14.75 C1.16 5.67, 5.45 -1.8, 14.75 0" stroke="#1e1e1e" stroke-width="1" fill="none"></path></g><g transform="translate(199.55999994277954 355) rotate(0 6.440000057220459 12.5)"><text x="6.440000057220459" y="0" font-family="Virgil, Segoe UI Emoji" font-size="20px" fill="#1e1e1e" text-anchor="middle" style="white-space: pre;" direction="ltr" dominant-baseline="text-before-edge">C</text></g><g transform="translate(129 407.5) rotate(0 53.869998931884766 12.5)"><text x="0" y="0" font-family="Virgil, Segoe UI Emoji" font-size="20px" fill="#1e1e1e" text-anchor="start" style="white-space: pre;" direction="ltr" dominant-baseline="text-before-edge">top pointer</text></g><g transform="translate(114.31999206542969 176) rotate(0 71.54000854492188 12.5)"><text x="0" y="0" font-family="Virgil, Segoe UI Emoji" font-size="20px" fill="#1e1e1e" text-anchor="start" style="white-space: pre;" direction="ltr" dominant-baseline="text-before-edge">bottom pointer</text></g><g transform="translate(10 82.4) rotate(0 87.1760025024414 30)"><text x="0" y="0" font-family="Virgil, Segoe UI Emoji" font-size="16px" fill="#1971c2" text-anchor="start" style="white-space: pre;" direction="ltr" dominant-baseline="text-before-edge">lua_pushstring(L, "A");</text><text x="0" y="20" font-family="Virgil, Segoe UI Emoji" font-size="16px" fill="#1971c2" text-anchor="start" style="white-space: pre;" direction="ltr" dominant-baseline="text-before-edge">lua_pushstring(L, "B");</text><text x="0" y="40" font-family="Virgil, Segoe UI Emoji" font-size="16px" fill="#1971c2" text-anchor="start" style="white-space: pre;" direction="ltr" dominant-baseline="text-before-edge">lua_pushstring(L, "C");</text></g><g transform="translate(121 235.5) rotate(0 2.1679999828338623 10)"><text x="0" y="0" font-family="Virgil, Segoe UI Emoji" font-size="16px" fill="#2f9e44" text-anchor="start" style="white-space: pre;" direction="ltr" dominant-baseline="text-before-edge">1</text></g><g transform="translate(121 295) rotate(0 5.696000099182129 10)"><text x="0" y="0" font-family="Virgil, Segoe UI Emoji" font-size="16px" fill="#2f9e44" text-anchor="start" style="white-space: pre;" direction="ltr" dominant-baseline="text-before-edge">2</text></g><g transform="translate(121 354.5) rotate(0 5.447999954223633 10)"><text x="0" y="0" font-family="Virgil, Segoe UI Emoji" font-size="16px" fill="#2f9e44" text-anchor="start" style="white-space: pre;" direction="ltr" dominant-baseline="text-before-edge">3</text></g><g transform="translate(274.30399990081787 236) rotate(0 8.736000061035156 10)"><text x="0" y="0" font-family="Virgil, Segoe UI Emoji" font-size="16px" fill="#e03131" text-anchor="start" style="white-space: pre;" direction="ltr" dominant-baseline="text-before-edge">-3</text></g><g transform="translate(275.30399990081787 294.5) rotate(0 8.984000205993652 10)"><text x="0" y="0" font-family="Virgil, Segoe UI Emoji" font-size="16px" fill="#e03131" text-anchor="start" style="white-space: pre;" direction="ltr" dominant-baseline="text-before-edge">-2</text></g><g transform="translate(275.30399990081787 355) rotate(0 5.456000328063965 10)"><text x="0" y="0" font-family="Virgil, Segoe UI Emoji" font-size="16px" fill="#e03131" text-anchor="start" style="white-space: pre;" direction="ltr" dominant-baseline="text-before-edge">-1</text></g><g transform="translate(222 84.5) rotate(0 103.69599151611328 20)"><text x="0" y="0" font-family="Virgil, Segoe UI Emoji" font-size="16px" fill="#f08c00" text-anchor="start" style="white-space: pre;" direction="ltr" dominant-baseline="text-before-edge">lua_tostring(L,  1)  =&gt; "A"</text><text x="0" y="20" font-family="Virgil, Segoe UI Emoji" font-size="16px" fill="#f08c00" text-anchor="start" style="white-space: pre;" direction="ltr" dominant-baseline="text-before-edge">lua_tostring(L, -3) =&gt; "A"</text></g><g transform="translate(130 10) rotate(0 72.43599700927734 17.5)"><text x="0" y="0" font-family="Virgil, Segoe UI Emoji" font-size="28px" fill="#1e1e1e" text-anchor="start" style="white-space: pre;" direction="ltr" dominant-baseline="text-before-edge">The Stack</text></g></svg>