<?xml version="1.0" encoding="UTF-8"?>
<svg width="1014px" height="562px" viewBox="0 0 1014 562" version="1.1" xmlns="http://www.w3.org/2000/svg" xmlns:xlink="http://www.w3.org/1999/xlink">
    <title>画板</title>
    <defs>
        <path d="M0,0 L173,0 L173,62 C173,64.7614237 170.761424,67 168,67 L5,67 C2.23857625,67 3.38176876e-16,64.7614237 0,62 L0,0 L0,0 Z" id="path-1"></path>
        <mask id="mask-2" maskContentUnits="userSpaceOnUse" maskUnits="objectBoundingBox" x="0" y="0" width="173" height="67" fill="white">
            <use xlink:href="#path-1"></use>
        </mask>
        <path d="M0,0 L173,0 L173,62 C173,64.7614237 170.761424,67 168,67 L5,67 C2.23857625,67 3.38176876e-16,64.7614237 0,62 L0,0 L0,0 Z" id="path-3"></path>
        <mask id="mask-4" maskContentUnits="userSpaceOnUse" maskUnits="objectBoundingBox" x="0" y="0" width="173" height="67" fill="white">
            <use xlink:href="#path-3"></use>
        </mask>
        <path d="M0,0 L173,0 L173,62 C173,64.7614237 170.761424,67 168,67 L5,67 C2.23857625,67 3.38176876e-16,64.7614237 0,62 L0,0 L0,0 Z" id="path-5"></path>
        <mask id="mask-6" maskContentUnits="userSpaceOnUse" maskUnits="objectBoundingBox" x="0" y="0" width="173" height="67" fill="white">
            <use xlink:href="#path-5"></use>
        </mask>
    </defs>
    <g id="画板" stroke="none" stroke-width="1" fill="none" fill-rule="evenodd">
        <rect id="矩形" stroke="#6200EA" fill="#EDE7F6" x="35.5" y="235.5" width="452" height="152"></rect>
        <g id="编组-4" transform="translate(165.000000, 438.000000)">
            <rect id="矩形" stroke="#979797" fill="#212121" x="0.5" y="0.5" width="121" height="68" rx="5"></rect>
            <text id="Sentry" font-family="PTMono-Bold, PT Mono" font-size="12" font-weight="bold" fill="#FFFFFF">
                <tspan x="39.4" y="39">Sentry</tspan>
            </text>
        </g>
        <g id="编组-5" transform="translate(295.000000, 438.000000)">
            <rect id="矩形" stroke="#979797" fill="#64FFDA" x="0.5" y="0.5" width="121" height="66"></rect>
            <text id="Jaeger" font-family="PTMono-Bold, PT Mono" font-size="12" font-weight="bold" fill="#000000">
                <tspan x="39.9" y="38">Jaeger</tspan>
            </text>
        </g>
        <g id="编组-2备份" transform="translate(560.000000, 54.000000)">
            <g id="编组">
                <rect id="矩形" stroke="#6200EA" fill="#FFAB91" x="0.5" y="0.5" width="172" height="132" rx="5"></rect>
                <text id="Application" font-family="PingFangSC-Semibold, PingFang SC" font-size="16" font-weight="500" fill="#000000">
                    <tspan x="43.596" y="37">Application</tspan>
                </text>
            </g>
            <g id="编组-3" transform="translate(0.000000, 66.000000)">
                <use id="矩形" stroke="#979797" mask="url(#mask-2)" stroke-width="2" fill="#EEEEEE" stroke-dasharray="4" xlink:href="#path-1"></use>
                <rect id="矩形备份" stroke="#979797" fill="#64FFDA" x="8.5" y="33.5" width="156" height="23"></rect>
                <text id="jaeger-sdk" font-family="PingFangSC-Semibold, PingFang SC" font-size="12" font-weight="500" fill="#000000">
                    <tspan x="56.674" y="50">jaeger sdk</tspan>
                </text>
                <text id="OpenTracing-API" font-family="PingFangSC-Semibold, PingFang SC" font-size="12" font-weight="500" fill="#000000">
                    <tspan x="45.826" y="21">OpenTracing API</tspan>
                </text>
            </g>
        </g>
        <g id="编组-2备份-2" transform="translate(35.000000, 54.000000)">
            <g id="编组">
                <rect id="矩形" stroke="#6200EA" fill="#FFAB91" x="0.5" y="0.5" width="172" height="132" rx="5"></rect>
                <text id="Application" font-family="PingFangSC-Semibold, PingFang SC" font-size="16" font-weight="500" fill="#000000">
                    <tspan x="43.596" y="37">Application</tspan>
                </text>
            </g>
            <g id="编组-3" transform="translate(0.000000, 66.000000)">
                <use id="矩形" stroke="#979797" mask="url(#mask-4)" stroke-width="2" fill="#E1BEE7" stroke-dasharray="4" xlink:href="#path-3"></use>
                <rect id="矩形备份" stroke="#979797" fill="#B388FF" x="8.5" y="33.5" width="156" height="23"></rect>
                <text id="otel-sdk" font-family="PingFangSC-Semibold, PingFang SC" font-size="12" font-weight="500" fill="#FFFFFF">
                    <tspan x="63.724" y="50">otel sdk</tspan>
                </text>
                <text id="Tracing-API" font-family="PingFangSC-Semibold, PingFang SC" font-size="12" font-weight="500" fill="#FFFFFF">
                    <tspan x="53.476" y="21">Tracing API</tspan>
                </text>
            </g>
        </g>
        <g id="编组-2备份-3" transform="translate(781.000000, 54.000000)">
            <g id="编组">
                <rect id="矩形" stroke="#6200EA" fill="#FFAB91" x="0.5" y="0.5" width="172" height="132" rx="5"></rect>
                <text id="Application" font-family="PingFangSC-Semibold, PingFang SC" font-size="16" font-weight="500" fill="#000000">
                    <tspan x="43.596" y="37">Application</tspan>
                </text>
            </g>
            <g id="编组-3" transform="translate(0.000000, 66.000000)">
                <use id="矩形" stroke="#979797" mask="url(#mask-6)" stroke-width="2" fill="#E1BEE7" stroke-dasharray="4" xlink:href="#path-5"></use>
                <rect id="矩形备份" stroke="#979797" fill="#B388FF" x="8.5" y="33.5" width="156" height="23"></rect>
                <text id="otel-sdk" font-family="PingFangSC-Semibold, PingFang SC" font-size="12" font-weight="500" fill="#FFFFFF">
                    <tspan x="63.724" y="50">otel sdk</tspan>
                </text>
                <text id="Tracing-API" font-family="PingFangSC-Semibold, PingFang SC" font-size="12" font-weight="500" fill="#FFFFFF">
                    <tspan x="53.476" y="21">Tracing API</tspan>
                </text>
            </g>
        </g>
        <path id="直线" d="M120.565588,255.996081 L121.565573,256.001545 L121.562841,256.501538 L121.546,259.502 L125.54638,259.524717 L120.997268,268.499993 L116.546515,259.475537 L120.546,259.497 L120.562856,256.496073 L120.565588,255.996081 Z M120.609303,247.9962 L121.609288,248.001665 L121.606556,248.501657 L121.584698,252.501598 L121.581966,253.00159 L120.581981,252.996126 L120.584713,252.496133 L120.606571,248.496193 L120.609303,247.9962 Z M120.653018,239.99632 L121.653003,240.001784 L121.650271,240.501777 L121.628413,244.501717 L121.625681,245.001709 L120.625696,244.996245 L120.628428,244.496253 L120.650286,240.496312 L120.653018,239.99632 Z M120.696733,231.996439 L121.696718,232.001904 L121.693986,232.501896 L121.672129,236.501836 L121.669396,237.001829 L120.669411,236.996365 L120.672144,236.496372 L120.694001,232.496432 L120.696733,231.996439 Z M120.740448,223.996559 L121.740434,224.002023 L121.737701,224.502016 L121.715844,228.501956 L121.713112,229.001948 L120.713127,228.996484 L120.715859,228.496491 L120.737716,224.496551 L120.740448,223.996559 Z M120.784164,215.996678 L121.784149,216.002142 L121.781417,216.502135 L121.759559,220.502075 L121.756827,221.002068 L120.756842,220.996603 L120.759574,220.496611 L120.781431,216.496671 L120.784164,215.996678 Z M120.827879,207.996798 L121.827864,208.002262 L121.825132,208.502254 L121.803274,212.502195 L121.800542,213.002187 L120.800557,212.996723 L120.803289,212.49673 L120.825147,208.49679 L120.827879,207.996798 Z M120.871594,199.996917 L121.871579,200.002381 L121.868847,200.502374 L121.846989,204.502314 L121.844257,205.002307 L120.844272,204.996842 L120.847004,204.49685 L120.868862,200.496909 L120.871594,199.996917 Z M120.915309,191.997036 L121.915294,192.002501 L121.912562,192.502493 L121.890705,196.502434 L121.887972,197.002426 L120.887987,196.996962 L120.890719,196.496969 L120.912577,192.497029 L120.915309,191.997036 Z M120.959024,183.997156 L121.95901,184.00262 L121.956277,184.502613 L121.93442,188.502553 L121.931688,189.002546 L120.931702,188.997081 L120.934435,188.497089 L120.956292,184.497148 L120.959024,183.997156 Z M121.00274,175.997275 L122.002725,176.00274 L121.999993,176.502732 L121.978135,180.502672 L121.975403,181.002665 L120.975418,180.997201 L120.97815,180.497208 L121.000007,176.497268 L121.00274,175.997275 Z" fill="#6200EA" fill-rule="nonzero"></path>
        <g id="编组-2" transform="translate(83.000000, 269.000000)">
            <rect id="矩形" stroke="#6200EA" fill="#B388FF" x="0.5" y="0.5" width="75" height="36"></rect>
            <text id="otlp-receiver" font-family="PTMono-Bold, PT Mono" font-size="12" font-weight="bold" line-spacing="12" fill="#FFFFFF">
                <tspan x="23.4" y="19">otlp</tspan>
                <tspan x="9" y="31">receiver</tspan>
            </text>
        </g>
        <g id="编组-2备份-4" transform="translate(394.000000, 268.000000)">
            <rect id="矩形" stroke="#6200EA" fill="#64FFDA" x="0.5" y="0.5" width="75" height="36"></rect>
            <text id="jaeger-receiver" font-family="PTMono-Bold, PT Mono" font-size="12" font-weight="bold" line-spacing="12" fill="#000000">
                <tspan x="16.2" y="19">jaeger</tspan>
                <tspan x="9" y="31">receiver</tspan>
            </text>
        </g>
        <rect id="矩形备份-2" stroke="#979797" fill="#9E9E9E" x="238.5" y="268.5" width="75" height="36"></rect>
        <text id="processor" font-family="PTMono-Regular, PT Mono" font-size="12" font-weight="normal" fill="#000000">
            <tspan x="244.1" y="291">processor</tspan>
        </text>
        <rect id="矩形备份-3" stroke="#979797" fill="#212121" x="238.5" y="341.5" width="75" height="36"></rect>
        <rect id="矩形备份-4" stroke="#979797" fill="#64FFDA" x="330.5" y="341.5" width="75" height="36"></rect>
        <path id="直线-2" d="M276,329 L276,333 L280,333 L275.5,342 L271,333 L275,333 L275,329 L276,329 Z M276,321 L276,326 L275,326 L275,321 L276,321 Z M276,313 L276,318 L275,318 L275,313 L276,313 Z M276,305 L276,310 L275,310 L275,305 L276,305 Z" fill="#6200EA" fill-rule="nonzero"></path>
        <path id="路径" d="M372.5,333 L368,342 L363.5,333 L372.5,333 Z M368.5,325.992859 L368.5,329.992859 L367.5,329.992859 L367.5,325.992859 L368.5,325.992859 Z M276.456752,321.979193 L276.485,323 L278.492859,323 L278.492859,324 L275.514082,324 L275.500204,323.51428 L275.45716,322.007753 L276.456752,321.979193 Z M286.492859,323 L286.492859,324 L282.492859,324 L282.492859,323 L286.492859,323 Z M294.492859,323 L294.492859,324 L290.492859,324 L290.492859,323 L294.492859,323 Z M302.492859,323 L302.492859,324 L298.492859,324 L298.492859,323 L302.492859,323 Z M310.492859,323 L310.492859,324 L306.492859,324 L306.492859,323 L310.492859,323 Z M318.492859,323 L318.492859,324 L314.492859,324 L314.492859,323 L318.492859,323 Z M326.492859,323 L326.492859,324 L322.492859,324 L322.492859,323 L326.492859,323 Z M334.492859,323 L334.492859,324 L330.492859,324 L330.492859,323 L334.492859,323 Z M342.492859,323 L342.492859,324 L338.492859,324 L338.492859,323 L342.492859,323 Z M350.492859,323 L350.492859,324 L346.492859,324 L346.492859,323 L350.492859,323 Z M358.492859,323 L358.492859,324 L354.492859,324 L354.492859,323 L358.492859,323 Z M366.492859,323 L366.492859,324 L362.492859,324 L362.492859,323 L366.492859,323 Z M276.228274,313.982457 L276.342513,317.980825 L275.342921,318.009385 L275.228682,314.011017 L276.228274,313.982457 Z M275.999796,305.98572 L276.114035,309.984088 L275.114443,310.012648 L275.000204,306.01428 L275.999796,305.98572 Z" fill="#6200EA" fill-rule="nonzero"></path>
        <text id="sentry-exporter" font-family="PTMono-Regular, PT Mono" font-size="12" font-weight="normal" line-spacing="12" fill="#FFFFFF">
            <tspan x="253.7" y="358">sentry</tspan>
            <tspan x="246.5" y="370">exporter</tspan>
        </text>
        <text id="jaeger-exporter" font-family="PTMono-Regular, PT Mono" font-size="12" font-weight="normal" line-spacing="12" fill="#000000">
            <tspan x="346.7" y="358">jaeger</tspan>
            <tspan x="339.5" y="370">exporter</tspan>
        </text>
        <path id="直线-3" d="M229,283 L238,287.5 L229,292 L229,283 Z M163,287 L163,288 L158,288 L158,287 L163,287 Z M171,287 L171,288 L166,288 L166,287 L171,287 Z M179,287 L179,288 L174,288 L174,287 L179,287 Z M187,287 L187,288 L182,288 L182,287 L187,287 Z M195,287 L195,288 L190,288 L190,287 L195,287 Z M203,287 L203,288 L198,288 L198,287 L203,287 Z M211,287 L211,288 L206,288 L206,287 L211,287 Z M219,287 L219,288 L214,288 L214,287 L219,287 Z M227,287 L227,288 L222,288 L222,287 L227,287 Z" fill="#6200EA" fill-rule="nonzero"></path>
        <text id="OTLP-/-grpc备份" font-family="PTMono-Regular, PT Mono" font-size="12" font-weight="normal" fill="#000000">
            <tspan x="131.4" y="257">OTLP / grpc</tspan>
        </text>
        <text id="Thrift-/-udp" font-family="PTMono-Regular, PT Mono" font-size="12" font-weight="normal" fill="#000000">
            <tspan x="335.8" y="257">Thrift / udp</tspan>
        </text>
        <text id="OpenTelemetry-Collec" font-family="PTMono-Regular, PT Mono" font-size="12" font-weight="normal" fill="#000000">
            <tspan x="65.2" y="354">OpenTelemetry</tspan>
            <tspan x="43.6" y="368">Collector or  Agent</tspan>
        </text>
        <path id="直线-5" d="M227.484572,429.089289 L234.398563,434.850949 L225.179908,438.884111 L227.484572,429.089289 Z M234.46418,426.961959 L235.232401,427.602143 L234.912309,427.986254 L232.351571,431.059139 L232.031479,431.44325 L231.263258,430.803065 L231.58335,430.418955 L234.144088,427.34607 L234.46418,426.961959 Z M239.585655,420.816189 L240.353876,421.456373 L240.033784,421.840484 L237.473047,424.913369 L237.152954,425.29748 L236.384733,424.657295 L236.704825,424.273185 L239.265563,421.200299 L239.585655,420.816189 Z M244.70713,414.670419 L245.475352,415.310603 L245.155259,415.694714 L242.594522,418.767599 L242.27443,419.151709 L241.506208,418.511525 L241.826301,418.127414 L244.387038,415.054529 L244.70713,414.670419 Z M249.828606,408.524648 L250.596827,409.164833 L250.276735,409.548943 L247.715997,412.621829 L247.395905,413.005939 L246.627684,412.365755 L246.947776,411.981644 L249.508513,408.908759 L249.828606,408.524648 Z M254.950081,402.378878 L255.718302,403.019063 L255.39821,403.403173 L252.837472,406.476058 L252.51738,406.860169 L251.749159,406.219985 L252.069251,405.835874 L254.629989,402.762989 L254.950081,402.378878 Z M260.071556,396.233108 L260.839777,396.873292 L260.519685,397.257403 L257.958947,400.330288 L257.638855,400.714399 L256.870634,400.074214 L257.190726,399.690104 L259.751464,396.617219 L260.071556,396.233108 Z M265.193031,390.087338 L265.961252,390.727522 L265.64116,391.111633 L263.080423,394.184518 L262.76033,394.568628 L261.992109,393.928444 L262.312201,393.544333 L264.872939,390.471448 L265.193031,390.087338 Z M270.314506,383.941567 L271.082728,384.581752 L270.762635,384.965862 L268.201898,388.038748 L267.881806,388.422858 L267.113584,387.782674 L267.433677,387.398563 L269.994414,384.325678 L270.314506,383.941567 Z M275.435982,377.795797 L276.204203,378.435982 L275.884111,378.820092 L273.323373,381.892977 L273.003281,382.277088 L272.23506,381.636904 L272.555152,381.252793 L275.115889,378.179908 L275.435982,377.795797 Z" fill="#6200EA" fill-rule="nonzero"></path>
        <path id="直线-6" d="M352.754374,429.282542 L361.5796,431.047587 L355.401942,438.99029 L352.754374,429.282542 Z M357.694193,424.979524 L358.674774,425.17564 L358.576716,425.665931 L357.792251,429.588253 L357.694193,430.078544 L356.713613,429.882427 L356.811671,429.392137 L357.596135,425.469814 L357.694193,424.979524 Z M359.263122,417.134879 L360.243703,417.330995 L360.145645,417.821285 L359.36118,421.743608 L359.263122,422.233898 L358.282542,422.037782 L358.3806,421.547492 L359.165064,417.625169 L359.263122,417.134879 Z M360.832051,409.290233 L361.812632,409.486349 L361.714574,409.97664 L360.930109,413.898962 L360.832051,414.389253 L359.851471,414.193137 L359.949529,413.702846 L360.733993,409.780524 L360.832051,409.290233 Z M362.40098,401.445588 L363.381561,401.641704 L363.283503,402.131994 L362.499039,406.054317 L362.40098,406.544607 L361.4204,406.348491 L361.518458,405.858201 L362.302922,401.935878 L362.40098,401.445588 Z M363.96991,393.600942 L364.95049,393.797059 L364.852432,394.287349 L364.067968,398.209672 L363.96991,398.699962 L362.989329,398.503846 L363.087387,398.013555 L363.871851,394.091233 L363.96991,393.600942 Z M365.538839,385.756297 L366.519419,385.952413 L366.421361,386.442703 L365.636897,390.365026 L365.538839,390.855317 L364.558258,390.6592 L364.656316,390.16891 L365.440781,386.246587 L365.538839,385.756297 Z M367.107768,377.911652 L368.088348,378.107768 L367.99029,378.598058 L367.205826,382.520381 L367.107768,383.010671 L366.127187,382.814555 L366.225245,382.324265 L367.00971,378.401942 L367.107768,377.911652 Z" fill="#6200EA" fill-rule="nonzero"></path>
        <path id="路径-2" d="M425.5,468 L425.5,477 L416.5,472.5 L425.5,468 Z M430.5,472 L430.5,473 L426.5,473 L426.5,472 L430.5,472 Z M438.5,472 L438.5,473 L434.5,473 L434.5,472 L438.5,472 Z M446.5,472 L446.5,473 L442.5,473 L442.5,472 L446.5,472 Z M454.5,472 L454.5,473 L450.5,473 L450.5,472 L454.5,472 Z M462.5,472 L462.5,473 L458.5,473 L458.5,472 L462.5,472 Z M470.5,472 L470.5,473 L466.5,473 L466.5,472 L470.5,472 Z M478.5,472 L478.5,473 L474.5,473 L474.5,472 L478.5,472 Z M486.5,472 L486.5,473 L482.5,473 L482.5,472 L486.5,472 Z M494.5,472 L494.5,473 L490.5,473 L490.5,472 L494.5,472 Z M502.5,472 L502.5,473 L498.5,473 L498.5,472 L502.5,472 Z M510.5,472 L510.5,473 L506.5,473 L506.5,472 L510.5,472 Z M518.5,472 L518.5,473 L514.5,473 L514.5,472 L518.5,472 Z M526.5,472 L526.5,473 L522.5,473 L522.5,472 L526.5,472 Z M534.5,472 L534.5,473 L530.5,473 L530.5,472 L534.5,472 Z M542.5,472 L542.5,473 L538.5,473 L538.5,472 L542.5,472 Z M550.5,472 L550.5,473 L546.5,473 L546.5,472 L550.5,472 Z M558.5,472 L558.5,473 L554.5,473 L554.5,472 L558.5,472 Z M566.5,472 L566.5,473 L562.5,473 L562.5,472 L566.5,472 Z M574.5,472 L574.5,473 L570.5,473 L570.5,472 L574.5,472 Z M582.5,472 L582.5,473 L578.5,473 L578.5,472 L582.5,472 Z M590.5,472 L590.5,473 L586.5,473 L586.5,472 L590.5,472 Z M598.5,472 L598.5,473 L594.5,473 L594.5,472 L598.5,472 Z M606.5,472 L606.5,473 L602.5,473 L602.5,472 L606.5,472 Z M614.5,472 L614.5,473 L610.5,473 L610.5,472 L614.5,472 Z M622.5,472 L622.5,473 L618.5,473 L618.5,472 L622.5,472 Z M630.5,472 L630.5,473 L626.5,473 L626.5,472 L630.5,472 Z M638.5,472 L638.5,473 L634.5,473 L634.5,472 L638.5,472 Z M646.5,472 L646.5,473 L642.5,473 L642.5,472 L646.5,472 Z M647,464.5 L647,468.5 L646,468.5 L646,464.5 L647,464.5 Z M647,456.5 L647,460.5 L646,460.5 L646,456.5 L647,456.5 Z M647,448.5 L647,452.5 L646,452.5 L646,448.5 L647,448.5 Z M647,440.5 L647,444.5 L646,444.5 L646,440.5 L647,440.5 Z M647,432.5 L647,436.5 L646,436.5 L646,432.5 L647,432.5 Z M647,424.5 L647,428.5 L646,428.5 L646,424.5 L647,424.5 Z M647,416.5 L647,420.5 L646,420.5 L646,416.5 L647,416.5 Z M647,408.5 L647,412.5 L646,412.5 L646,408.5 L647,408.5 Z M647,400.5 L647,404.5 L646,404.5 L646,400.5 L647,400.5 Z M647,392.5 L647,396.5 L646,396.5 L646,392.5 L647,392.5 Z M647,384.5 L647,388.5 L646,388.5 L646,384.5 L647,384.5 Z M647,376.5 L647,380.5 L646,380.5 L646,376.5 L647,376.5 Z M647,368.5 L647,372.5 L646,372.5 L646,368.5 L647,368.5 Z M647,360.5 L647,364.5 L646,364.5 L646,360.5 L647,360.5 Z M647,352.5 L647,356.5 L646,356.5 L646,352.5 L647,352.5 Z M647,344.5 L647,348.5 L646,348.5 L646,344.5 L647,344.5 Z M647,336.5 L647,340.5 L646,340.5 L646,336.5 L647,336.5 Z M647,328.5 L647,332.5 L646,332.5 L646,328.5 L647,328.5 Z M647,320.5 L647,324.5 L646,324.5 L646,320.5 L647,320.5 Z M647,312.5 L647,316.5 L646,316.5 L646,312.5 L647,312.5 Z M647,304.5 L647,308.5 L646,308.5 L646,304.5 L647,304.5 Z M647,296.5 L647,300.5 L646,300.5 L646,296.5 L647,296.5 Z M647,288.5 L647,292.5 L646,292.5 L646,288.5 L647,288.5 Z M647,280.5 L647,284.5 L646,284.5 L646,280.5 L647,280.5 Z M647,272.5 L647,276.5 L646,276.5 L646,272.5 L647,272.5 Z M647,264.5 L647,268.5 L646,268.5 L646,264.5 L647,264.5 Z M647,256.5 L647,260.5 L646,260.5 L646,256.5 L647,256.5 Z M647,248.5 L647,252.5 L646,252.5 L646,248.5 L647,248.5 Z M647,240.5 L647,244.5 L646,244.5 L646,240.5 L647,240.5 Z M647,232.5 L647,236.5 L646,236.5 L646,232.5 L647,232.5 Z M647,224.5 L647,228.5 L646,228.5 L646,224.5 L647,224.5 Z M647,216.5 L647,220.5 L646,220.5 L646,216.5 L647,216.5 Z M647,208.5 L647,212.5 L646,212.5 L646,208.5 L647,208.5 Z M647,200.5 L647,204.5 L646,204.5 L646,200.5 L647,200.5 Z M647,192.5 L647,196.5 L646,196.5 L646,192.5 L647,192.5 Z M647,184.5 L647,188.5 L646,188.5 L646,184.5 L647,184.5 Z M647,176.5 L647,180.5 L646,180.5 L646,176.5 L647,176.5 Z" fill="#7B7F85" fill-rule="nonzero"></path>
        <text id="NEW-collecting-chain" font-family="PTMono-Regular, PT Mono" font-size="12" font-weight="normal" fill="#6200EA">
            <tspan x="36" y="27">NEW collecting chain</tspan>
        </text>
        <path id="直线-4" d="M322,282 L322,291 L313,286.5 L322,282 Z M393,286 L393,287 L388,287 L388,286 L393,286 Z M385,286 L385,287 L380,287 L380,286 L385,286 Z M377,286 L377,287 L372,287 L372,286 L377,286 Z M369,286 L369,287 L364,287 L364,286 L369,286 Z M361,286 L361,287 L356,287 L356,286 L361,286 Z M353,286 L353,287 L348,287 L348,286 L353,286 Z M345,286 L345,287 L340,287 L340,286 L345,286 Z M337,286 L337,287 L332,287 L332,286 L337,286 Z M329,286 L329,287 L324,287 L324,286 L329,286 Z" fill="#6200EA" fill-rule="nonzero"></path>
        <path id="路径-3" d="M436.5,259.5 L432,268.5 L427.5,259.5 L436.5,259.5 Z M432.5,253 L432.5,257 L431.5,257 L431.5,253 L432.5,253 Z M432.5,245 L432.5,249 L431.5,249 L431.5,245 L432.5,245 Z M432.5,237 L432.5,241 L431.5,241 L431.5,237 L432.5,237 Z M432.5,229 L432.5,233 L431.5,233 L431.5,229 L432.5,229 Z M432.5,221 L432.5,225 L431.5,225 L431.5,221 L432.5,221 Z M432.5,213 L432.5,217 L431.5,217 L431.5,213 L432.5,213 Z M433.5,206 L433.5,207 L432.5,207 L432.5,209 L431.5,209 L431.5,206 L433.5,206 Z M617.5,206 L617.5,207 L613.5,207 L613.5,206 L617.5,206 Z M609.5,206 L609.5,207 L605.5,207 L605.5,206 L609.5,206 Z M601.5,206 L601.5,207 L597.5,207 L597.5,206 L601.5,206 Z M593.5,206 L593.5,207 L589.5,207 L589.5,206 L593.5,206 Z M585.5,206 L585.5,207 L581.5,207 L581.5,206 L585.5,206 Z M577.5,206 L577.5,207 L573.5,207 L573.5,206 L577.5,206 Z M569.5,206 L569.5,207 L565.5,207 L565.5,206 L569.5,206 Z M561.5,206 L561.5,207 L557.5,207 L557.5,206 L561.5,206 Z M553.5,206 L553.5,207 L549.5,207 L549.5,206 L553.5,206 Z M545.5,206 L545.5,207 L541.5,207 L541.5,206 L545.5,206 Z M537.5,206 L537.5,207 L533.5,207 L533.5,206 L537.5,206 Z M529.5,206 L529.5,207 L525.5,207 L525.5,206 L529.5,206 Z M521.5,206 L521.5,207 L517.5,207 L517.5,206 L521.5,206 Z M513.5,206 L513.5,207 L509.5,207 L509.5,206 L513.5,206 Z M505.5,206 L505.5,207 L501.5,207 L501.5,206 L505.5,206 Z M497.5,206 L497.5,207 L493.5,207 L493.5,206 L497.5,206 Z M489.5,206 L489.5,207 L485.5,207 L485.5,206 L489.5,206 Z M481.5,206 L481.5,207 L477.5,207 L477.5,206 L481.5,206 Z M473.5,206 L473.5,207 L469.5,207 L469.5,206 L473.5,206 Z M465.5,206 L465.5,207 L461.5,207 L461.5,206 L465.5,206 Z M457.5,206 L457.5,207 L453.5,207 L453.5,206 L457.5,206 Z M449.5,206 L449.5,207 L445.5,207 L445.5,206 L449.5,206 Z M441.5,206 L441.5,207 L437.5,207 L437.5,206 L441.5,206 Z M625.5,206 L625.5,207 L621.5,207 L621.5,206 L625.5,206 Z M633.5,206 L633.5,207 L629.5,207 L629.5,206 L633.5,206 Z M641.5,206 L641.5,207 L637.5,207 L637.5,206 L641.5,206 Z M646.5,203 L646.5,207 L645.5,207 L645.5,203 L646.5,203 Z M646.5,195 L646.5,199 L645.5,199 L645.5,195 L646.5,195 Z M646.5,187 L646.5,191 L645.5,191 L645.5,187 L646.5,187 Z" fill="#6200EA" fill-rule="nonzero"></path>
        <path id="路径-4" d="M719.790894,532.790894 L719.790894,533.790894 L715.790894,533.790894 L715.790894,532.790894 L719.790894,532.790894 Z M711.790894,532.790894 L711.790894,533.790894 L707.790894,533.790894 L707.790894,532.790894 L711.790894,532.790894 Z M559.790894,532.790894 L559.790894,533.790894 L555.790894,533.790894 L555.790894,532.790894 L559.790894,532.790894 Z M567.790894,532.790894 L567.790894,533.790894 L563.790894,533.790894 L563.790894,532.790894 L567.790894,532.790894 Z M231.790894,532.790894 L231.790894,533.790894 L227.790894,533.790894 L227.790894,532.790894 L231.790894,532.790894 Z M239.790894,532.790894 L239.790894,533.790894 L235.790894,533.790894 L235.790894,532.790894 L239.790894,532.790894 Z M247.790894,532.790894 L247.790894,533.790894 L243.790894,533.790894 L243.790894,532.790894 L247.790894,532.790894 Z M255.790894,532.790894 L255.790894,533.790894 L251.790894,533.790894 L251.790894,532.790894 L255.790894,532.790894 Z M263.790894,532.790894 L263.790894,533.790894 L259.790894,533.790894 L259.790894,532.790894 L263.790894,532.790894 Z M271.790894,532.790894 L271.790894,533.790894 L267.790894,533.790894 L267.790894,532.790894 L271.790894,532.790894 Z M279.790894,532.790894 L279.790894,533.790894 L275.790894,533.790894 L275.790894,532.790894 L279.790894,532.790894 Z M287.790894,532.790894 L287.790894,533.790894 L283.790894,533.790894 L283.790894,532.790894 L287.790894,532.790894 Z M295.790894,532.790894 L295.790894,533.790894 L291.790894,533.790894 L291.790894,532.790894 L295.790894,532.790894 Z M303.790894,532.790894 L303.790894,533.790894 L299.790894,533.790894 L299.790894,532.790894 L303.790894,532.790894 Z M311.790894,532.790894 L311.790894,533.790894 L307.790894,533.790894 L307.790894,532.790894 L311.790894,532.790894 Z M319.790894,532.790894 L319.790894,533.790894 L315.790894,533.790894 L315.790894,532.790894 L319.790894,532.790894 Z M327.790894,532.790894 L327.790894,533.790894 L323.790894,533.790894 L323.790894,532.790894 L327.790894,532.790894 Z M335.790894,532.790894 L335.790894,533.790894 L331.790894,533.790894 L331.790894,532.790894 L335.790894,532.790894 Z M343.790894,532.790894 L343.790894,533.790894 L339.790894,533.790894 L339.790894,532.790894 L343.790894,532.790894 Z M351.790894,532.790894 L351.790894,533.790894 L347.790894,533.790894 L347.790894,532.790894 L351.790894,532.790894 Z M359.790894,532.790894 L359.790894,533.790894 L355.790894,533.790894 L355.790894,532.790894 L359.790894,532.790894 Z M367.790894,532.790894 L367.790894,533.790894 L363.790894,533.790894 L363.790894,532.790894 L367.790894,532.790894 Z M375.790894,532.790894 L375.790894,533.790894 L371.790894,533.790894 L371.790894,532.790894 L375.790894,532.790894 Z M383.790894,532.790894 L383.790894,533.790894 L379.790894,533.790894 L379.790894,532.790894 L383.790894,532.790894 Z M391.790894,532.790894 L391.790894,533.790894 L387.790894,533.790894 L387.790894,532.790894 L391.790894,532.790894 Z M399.790894,532.790894 L399.790894,533.790894 L395.790894,533.790894 L395.790894,532.790894 L399.790894,532.790894 Z M407.790894,532.790894 L407.790894,533.790894 L403.790894,533.790894 L403.790894,532.790894 L407.790894,532.790894 Z M415.790894,532.790894 L415.790894,533.790894 L411.790894,533.790894 L411.790894,532.790894 L415.790894,532.790894 Z M423.790894,532.790894 L423.790894,533.790894 L419.790894,533.790894 L419.790894,532.790894 L423.790894,532.790894 Z M431.790894,532.790894 L431.790894,533.790894 L427.790894,533.790894 L427.790894,532.790894 L431.790894,532.790894 Z M439.790894,532.790894 L439.790894,533.790894 L435.790894,533.790894 L435.790894,532.790894 L439.790894,532.790894 Z M447.790894,532.790894 L447.790894,533.790894 L443.790894,533.790894 L443.790894,532.790894 L447.790894,532.790894 Z M455.790894,532.790894 L455.790894,533.790894 L451.790894,533.790894 L451.790894,532.790894 L455.790894,532.790894 Z M463.790894,532.790894 L463.790894,533.790894 L459.790894,533.790894 L459.790894,532.790894 L463.790894,532.790894 Z M471.790894,532.790894 L471.790894,533.790894 L467.790894,533.790894 L467.790894,532.790894 L471.790894,532.790894 Z M479.790894,532.790894 L479.790894,533.790894 L475.790894,533.790894 L475.790894,532.790894 L479.790894,532.790894 Z M487.790894,532.790894 L487.790894,533.790894 L483.790894,533.790894 L483.790894,532.790894 L487.790894,532.790894 Z M495.790894,532.790894 L495.790894,533.790894 L491.790894,533.790894 L491.790894,532.790894 L495.790894,532.790894 Z M503.790894,532.790894 L503.790894,533.790894 L499.790894,533.790894 L499.790894,532.790894 L503.790894,532.790894 Z M511.790894,532.790894 L511.790894,533.790894 L507.790894,533.790894 L507.790894,532.790894 L511.790894,532.790894 Z M519.790894,532.790894 L519.790894,533.790894 L515.790894,533.790894 L515.790894,532.790894 L519.790894,532.790894 Z M527.790894,532.790894 L527.790894,533.790894 L523.790894,533.790894 L523.790894,532.790894 L527.790894,532.790894 Z M535.790894,532.790894 L535.790894,533.790894 L531.790894,533.790894 L531.790894,532.790894 L535.790894,532.790894 Z M551.790894,532.790894 L551.790894,533.790894 L547.790894,533.790894 L547.790894,532.790894 L551.790894,532.790894 Z M575.790894,532.790894 L575.790894,533.790894 L571.790894,533.790894 L571.790894,532.790894 L575.790894,532.790894 Z M583.790894,532.790894 L583.790894,533.790894 L579.790894,533.790894 L579.790894,532.790894 L583.790894,532.790894 Z M863.790894,532.790894 L863.790894,533.790894 L859.790894,533.790894 L859.790894,532.790894 L863.790894,532.790894 Z M855.790894,532.790894 L855.790894,533.790894 L851.790894,533.790894 L851.790894,532.790894 L855.790894,532.790894 Z M847.790894,532.790894 L847.790894,533.790894 L843.790894,533.790894 L843.790894,532.790894 L847.790894,532.790894 Z M839.790894,532.790894 L839.790894,533.790894 L835.790894,533.790894 L835.790894,532.790894 L839.790894,532.790894 Z M831.790894,532.790894 L831.790894,533.790894 L827.790894,533.790894 L827.790894,532.790894 L831.790894,532.790894 Z M823.790894,532.790894 L823.790894,533.790894 L819.790894,533.790894 L819.790894,532.790894 L823.790894,532.790894 Z M815.790894,532.790894 L815.790894,533.790894 L811.790894,533.790894 L811.790894,532.790894 L815.790894,532.790894 Z M807.790894,532.790894 L807.790894,533.790894 L803.790894,533.790894 L803.790894,532.790894 L807.790894,532.790894 Z M799.790894,532.790894 L799.790894,533.790894 L795.790894,533.790894 L795.790894,532.790894 L799.790894,532.790894 Z M791.790894,532.790894 L791.790894,533.790894 L787.790894,533.790894 L787.790894,532.790894 L791.790894,532.790894 Z M783.790894,532.790894 L783.790894,533.790894 L779.790894,533.790894 L779.790894,532.790894 L783.790894,532.790894 Z M775.790894,532.790894 L775.790894,533.790894 L771.790894,533.790894 L771.790894,532.790894 L775.790894,532.790894 Z M767.790894,532.790894 L767.790894,533.790894 L763.790894,533.790894 L763.790894,532.790894 L767.790894,532.790894 Z M759.790894,532.790894 L759.790894,533.790894 L755.790894,533.790894 L755.790894,532.790894 L759.790894,532.790894 Z M751.790894,532.790894 L751.790894,533.790894 L747.790894,533.790894 L747.790894,532.790894 L751.790894,532.790894 Z M743.790894,532.790894 L743.790894,533.790894 L739.790894,533.790894 L739.790894,532.790894 L743.790894,532.790894 Z M735.790894,532.790894 L735.790894,533.790894 L731.790894,533.790894 L731.790894,532.790894 L735.790894,532.790894 Z M727.790894,532.790894 L727.790894,533.790894 L723.790894,533.790894 L723.790894,532.790894 L727.790894,532.790894 Z M591.790894,532.790894 L591.790894,533.790894 L587.790894,533.790894 L587.790894,532.790894 L591.790894,532.790894 Z M543.790894,532.790894 L543.790894,533.790894 L539.790894,533.790894 L539.790894,532.790894 L543.790894,532.790894 Z M703.790894,532.790894 L703.790894,533.790894 L699.790894,533.790894 L699.790894,532.790894 L703.790894,532.790894 Z M695.790894,532.790894 L695.790894,533.790894 L691.790894,533.790894 L691.790894,532.790894 L695.790894,532.790894 Z M687.790894,532.790894 L687.790894,533.790894 L683.790894,533.790894 L683.790894,532.790894 L687.790894,532.790894 Z M679.790894,532.790894 L679.790894,533.790894 L675.790894,533.790894 L675.790894,532.790894 L679.790894,532.790894 Z M671.790894,532.790894 L671.790894,533.790894 L667.790894,533.790894 L667.790894,532.790894 L671.790894,532.790894 Z M663.790894,532.790894 L663.790894,533.790894 L659.790894,533.790894 L659.790894,532.790894 L663.790894,532.790894 Z M655.790894,532.790894 L655.790894,533.790894 L651.790894,533.790894 L651.790894,532.790894 L655.790894,532.790894 Z M647.790894,532.790894 L647.790894,533.790894 L643.790894,533.790894 L643.790894,532.790894 L647.790894,532.790894 Z M639.790894,532.790894 L639.790894,533.790894 L635.790894,533.790894 L635.790894,532.790894 L639.790894,532.790894 Z M631.790894,532.790894 L631.790894,533.790894 L627.790894,533.790894 L627.790894,532.790894 L631.790894,532.790894 Z M623.790894,532.790894 L623.790894,533.790894 L619.790894,533.790894 L619.790894,532.790894 L623.790894,532.790894 Z M615.790894,532.790894 L615.790894,533.790894 L611.790894,533.790894 L611.790894,532.790894 L615.790894,532.790894 Z M607.790894,532.790894 L607.790894,533.790894 L603.790894,533.790894 L603.790894,532.790894 L607.790894,532.790894 Z M599.790894,532.790894 L599.790894,533.790894 L595.790894,533.790894 L595.790894,532.790894 L599.790894,532.790894 Z M868,529 L868,533 L867,533 L867,529 L868,529 Z M226.5,527.081787 L226.5,531.081787 L225.5,531.081787 L225.5,527.081787 L226.5,527.081787 Z M868,521 L868,525 L867,525 L867,521 L868,521 Z M226.5,519.081787 L226.5,523.081787 L225.5,523.081787 L225.5,519.081787 L226.5,519.081787 Z M868,513 L868,517 L867,517 L867,513 L868,513 Z M226,506.5 L230.5,515.5 L221.5,515.5 L226,506.5 Z M868,505 L868,509 L867,509 L867,505 L868,505 Z M868,497 L868,501 L867,501 L867,497 L868,497 Z M868,489 L868,493 L867,493 L867,489 L868,489 Z M868,481 L868,485 L867,485 L867,481 L868,481 Z M868,473 L868,477 L867,477 L867,473 L868,473 Z M868,465 L868,469 L867,469 L867,465 L868,465 Z M868,457 L868,461 L867,461 L867,457 L868,457 Z M868,449 L868,453 L867,453 L867,449 L868,449 Z M868,441 L868,445 L867,445 L867,441 L868,441 Z M868,433 L868,437 L867,437 L867,433 L868,433 Z M868,425 L868,429 L867,429 L867,425 L868,425 Z M868,417 L868,421 L867,421 L867,417 L868,417 Z M868,409 L868,413 L867,413 L867,409 L868,409 Z M868,401 L868,405 L867,405 L867,401 L868,401 Z M868,393 L868,397 L867,397 L867,393 L868,393 Z M868,385 L868,389 L867,389 L867,385 L868,385 Z M868,377 L868,381 L867,381 L867,377 L868,377 Z M868,369 L868,373 L867,373 L867,369 L868,369 Z M868,361 L868,365 L867,365 L867,361 L868,361 Z M868,353 L868,357 L867,357 L867,353 L868,353 Z M868,345 L868,349 L867,349 L867,345 L868,345 Z M868,337 L868,341 L867,341 L867,337 L868,337 Z M868,329 L868,333 L867,333 L867,329 L868,329 Z M868,321 L868,325 L867,325 L867,321 L868,321 Z M868,313 L868,317 L867,317 L867,313 L868,313 Z M868,305 L868,309 L867,309 L867,305 L868,305 Z M868,297 L868,301 L867,301 L867,297 L868,297 Z M868,289 L868,293 L867,293 L867,289 L868,289 Z M868,281 L868,285 L867,285 L867,281 L868,281 Z M868,273 L868,277 L867,277 L867,273 L868,273 Z M868,265 L868,269 L867,269 L867,265 L868,265 Z M868,257 L868,261 L867,261 L867,257 L868,257 Z M868,249 L868,253 L867,253 L867,249 L868,249 Z M868,241 L868,245 L867,245 L867,241 L868,241 Z M868,233 L868,237 L867,237 L867,233 L868,233 Z M868,225 L868,229 L867,229 L867,225 L868,225 Z M868,217 L868,221 L867,221 L867,217 L868,217 Z M868,209 L868,213 L867,213 L867,209 L868,209 Z M868,201 L868,205 L867,205 L867,201 L868,201 Z M868,193 L868,197 L867,197 L867,193 L868,193 Z M868,185 L868,189 L867,189 L867,185 L868,185 Z M868,177 L868,181 L867,181 L867,177 L868,177 Z" fill="#6200EA" fill-rule="nonzero"></path>
        <g id="编组-6" transform="translate(855.000000, 193.000000)">
            <circle id="椭圆形" fill="#424242" cx="13" cy="13" r="13"></circle>
            <text id="2-1" font-family="PingFangSC-Semibold, PingFang SC" font-size="12" font-weight="500" fill="#FFFFFF">
                <tspan x="3.31" y="18">2-1</tspan>
            </text>
        </g>
        <g id="编组-6备份" transform="translate(109.000000, 193.000000)">
            <circle id="椭圆形" fill="#6200EA" cx="13" cy="13" r="13"></circle>
            <text id="2-2" font-family="PingFangSC-Semibold, PingFang SC" font-size="12" font-weight="500" fill="#FFFFFF">
                <tspan x="2.17" y="18">2-2</tspan>
            </text>
        </g>
        <g id="编组-6备份-2" transform="translate(560.000000, 193.000000)">
            <circle id="椭圆形" fill="#C51162" cx="13" cy="13" r="13"></circle>
            <text id="2-3" font-family="PingFangSC-Semibold, PingFang SC" font-size="12" font-weight="500" fill="#FFFFFF">
                <tspan x="2.17" y="18">2-3</tspan>
            </text>
        </g>
        <g id="编组-6备份-3" transform="translate(633.000000, 235.000000)">
            <circle id="椭圆形" fill="#CFD8DC" cx="13" cy="13" r="13"></circle>
            <text id="now" font-family="PingFangSC-Semibold, PingFang SC" font-size="12" font-weight="500" fill="#000000">
                <tspan x="1.252" y="17">now</tspan>
            </text>
        </g>
        <text id="Collecting-Chain-fro" font-family="PTMono-Regular, PT Mono" font-size="24" font-weight="normal" fill="#000000">
            <tspan x="226.5" y="75">Collecting Chain from </tspan>
            <tspan x="226.5" y="102">Application to Vendor</tspan>
            <tspan x="226.5" y="129">with three different</tspan>
            <tspan x="226.5" y="156">solutions.</tspan>
        </text>
    </g>
</svg>