<svg version="1.1" xmlns="http://www.w3.org/2000/svg" viewBox="0 0 1620 940" width="1620" height="940">
  <!-- svg-source:excalidraw -->
  
  <defs>
    <style class="style-fonts">
      @font-face {
        font-family: "Virgil";
        src: url("https://unpkg.com/@excalidraw/excalidraw@undefined/dist/excalidraw-assets/Virgil.woff2");
      }
      @font-face {
        font-family: "Cascadia";
        src: url("https://unpkg.com/@excalidraw/excalidraw@undefined/dist/excalidraw-assets/Cascadia.woff2");
      }
      @font-face {
        font-family: "Assistant";
        src: url("https://unpkg.com/@excalidraw/excalidraw@undefined/dist/excalidraw-assets/Assistant-Regular.woff2");
      }
    </style>
    
  </defs>
  <rect x="0" y="0" width="1620" height="940" fill="#ffffff"></rect><g stroke-linecap="round" transform="translate(10 10) rotate(0 800 460)"><path d="M0 0 L1600 0 L1600 920 L0 920" stroke="none" stroke-width="0" fill="#1e1d19"></path><path d="M0 0 C446.31 0, 892.63 0, 1600 0 M0 0 C620.53 0, 1241.06 0, 1600 0 M1600 0 C1600 240.69, 1600 481.37, 1600 920 M1600 0 C1600 327.74, 1600 655.49, 1600 920 M1600 920 C1185.38 920, 770.77 920, 0 920 M1600 920 C1187.63 920, 775.26 920, 0 920 M0 920 C0 565.8, 0 211.61, 0 0 M0 920 C0 651.6, 0 383.19, 0 0" stroke="#1e1d19" stroke-width="1" fill="none"></path></g><g stroke-linecap="round" transform="translate(89.92606590156004 85.21063021932508) rotate(0 303.47382445628443 80)"><path d="M0 0 L606.95 0 L606.95 160 L0 160" stroke="none" stroke-width="0" fill="#1f2937"></path><path d="M0 0 C169.32 0, 338.64 0, 606.95 0 M0 0 C133.4 0, 266.81 0, 606.95 0 M606.95 0 C606.95 43.59, 606.95 87.17, 606.95 160 M606.95 0 C606.95 33.27, 606.95 66.54, 606.95 160 M606.95 160 C468.44 160, 329.92 160, 0 160 M606.95 160 C422.93 160, 238.91 160, 0 160 M0 160 C0 123.34, 0 86.68, 0 0 M0 160 C0 127.86, 0 95.72, 0 0" stroke="#1f2937" stroke-width="1" fill="none"></path></g><g transform="translate(117.92606590156004 113.21063021932508) rotate(0 269.53125 50)"><text x="0" y="0" font-family="Cascadia, Segoe UI Emoji" font-size="20px" fill="#3ce1db" text-anchor="start" style="white-space: pre;" direction="ltr" dominant-baseline="text-before-edge">SELECT sum(amount)</text><text x="0" y="25" font-family="Cascadia, Segoe UI Emoji" font-size="20px" fill="#3ce1db" text-anchor="start" style="white-space: pre;" direction="ltr" dominant-baseline="text-before-edge">FROM orders</text><text x="0" y="50" font-family="Cascadia, Segoe UI Emoji" font-size="20px" fill="#3ce1db" text-anchor="start" style="white-space: pre;" direction="ltr" dominant-baseline="text-before-edge">WHERE dt BETWEEN '2026-03-01' AND '2026-03-31'</text><text x="0" y="75" font-family="Cascadia, Segoe UI Emoji" font-size="20px" fill="#3ce1db" text-anchor="start" style="white-space: pre;" direction="ltr" dominant-baseline="text-before-edge">  AND user_id = 1001</text></g><g transform="translate(100.3824598237884 278.9836979960228) rotate(0 147.65625 15)"><text x="0" y="0" font-family="Cascadia, Segoe UI Emoji" font-size="24px" fill="#3ce1db" text-anchor="start" style="white-space: pre;" direction="ltr" dominant-baseline="text-before-edge">1. Part-Level Cutting</text></g><g stroke-linecap="round" transform="translate(122.08739872295956 373.7108242223994) rotate(0 171.17893961434623 45)"><path d="M0 0 L342.36 0 L342.36 90 L0 90" stroke="none" stroke-width="0" fill="#8a8b48"></path><path d="M0 0 C95.52 0, 191.04 0, 342.36 0 M0 0 C86.19 0, 172.38 0, 342.36 0 M342.36 0 C342.36 25.49, 342.36 50.98, 342.36 90 M342.36 0 C342.36 23.37, 342.36 46.73, 342.36 90 M342.36 90 C206.34 90, 70.33 90, 0 90 M342.36 90 C223 90, 103.64 90, 0 90 M0 90 C0 65.41, 0 40.82, 0 0 M0 90 C0 62.1, 0 34.2, 0 0" stroke="#8a8b48" stroke-width="2" fill="none"></path></g><g transform="translate(162.0163383373058 385.1108242223994) rotate(0 131.25 33.599999999999994)"><text x="131.25" y="0" font-family="Cascadia, Segoe UI Emoji" font-size="28px" fill="#1e1e1e" text-anchor="middle" style="white-space: pre;" direction="ltr" dominant-baseline="text-before-edge">Partition_202602</text><text x="131.25" y="33.6" font-family="Cascadia, Segoe UI Emoji" font-size="28px" fill="#1e1e1e" text-anchor="middle" style="white-space: pre;" direction="ltr" dominant-baseline="text-before-edge">(skipped)</text></g><g transform="translate(843.0455981581197 281.8143177648685) rotate(0 168.74999999999994 15)"><text x="0" y="0" font-family="Cascadia, Segoe UI Emoji" font-size="24px" fill="#3ce1db" text-anchor="start" style="white-space: pre;" direction="ltr" dominant-baseline="text-before-edge">2. Granule-level Cutting</text></g><g transform="translate(1280.6020348015827 550.3621118079602) rotate(0 32.2265625 27.5)"><text x="32.2265625" y="0" font-family="Cascadia, Segoe UI Emoji" font-size="22px" fill="#111111" text-anchor="middle" style="white-space: pre;" direction="ltr" dominant-baseline="text-before-edge">G0~G2</text><text x="32.2265625" y="27.5" font-family="Cascadia, Segoe UI Emoji" font-size="22px" fill="#111111" text-anchor="middle" style="white-space: pre;" direction="ltr" dominant-baseline="text-before-edge">跳过</text></g><g transform="translate(1440.6020348015827 550.3621118079602) rotate(0 32.2265625 27.5)"><text x="32.2265625" y="0" font-family="Cascadia, Segoe UI Emoji" font-size="22px" fill="#111111" text-anchor="middle" style="white-space: pre;" direction="ltr" dominant-baseline="text-before-edge">G3~G4</text><text x="32.2265625" y="27.5" font-family="Cascadia, Segoe UI Emoji" font-size="22px" fill="#111111" text-anchor="middle" style="white-space: pre;" direction="ltr" dominant-baseline="text-before-edge">保留</text></g><g stroke-linecap="round" transform="translate(122.39897813781391 494.50560791016864) rotate(0 171.17893961434623 45.00000000000003)"><path d="M0 0 L342.36 0 L342.36 90 L0 90" stroke="none" stroke-width="0" fill="#fff96a"></path><path d="M0 0 C91.1 0, 182.19 0, 342.36 0 M0 0 C94.51 0, 189.02 0, 342.36 0 M342.36 0 C342.36 23.45, 342.36 46.9, 342.36 90 M342.36 0 C342.36 31.58, 342.36 63.16, 342.36 90 M342.36 90 C263.73 90, 185.11 90, 0 90 M342.36 90 C242.4 90, 142.44 90, 0 90 M0 90 C0 65.74, 0 41.49, 0 0 M0 90 C0 56.8, 0 23.6, 0 0" stroke="#8a8b48" stroke-width="2" fill="none"></path></g><g transform="translate(162.32791775216015 505.9056079101686) rotate(0 131.25 33.599999999999994)"><text x="131.25" y="0" font-family="Cascadia, Segoe UI Emoji" font-size="28px" fill="#1e1e1e" text-anchor="middle" style="white-space: pre;" direction="ltr" dominant-baseline="text-before-edge">Partition_202603</text><text x="131.25" y="33.6" font-family="Cascadia, Segoe UI Emoji" font-size="28px" fill="#1e1e1e" text-anchor="middle" style="white-space: pre;" direction="ltr" dominant-baseline="text-before-edge">(reserved)</text></g><g stroke-linecap="round" transform="translate(122.08739872295956 615.3003915979377) rotate(0 171.17893961434623 45)"><path d="M0 0 L342.36 0 L342.36 90 L0 90" stroke="none" stroke-width="0" fill="#8a8b48"></path><path d="M0 0 C94.26 0, 188.51 0, 342.36 0 M0 0 C135.55 0, 271.1 0, 342.36 0 M342.36 0 C342.36 30.39, 342.36 60.78, 342.36 90 M342.36 0 C342.36 22.11, 342.36 44.22, 342.36 90 M342.36 90 C249.22 90, 156.09 90, 0 90 M342.36 90 C245.28 90, 148.2 90, 0 90 M0 90 C0 71.71, 0 53.43, 0 0 M0 90 C0 59.3, 0 28.61, 0 0" stroke="#8a8b48" stroke-width="2" fill="none"></path></g><g transform="translate(162.0163383373058 626.7003915979377) rotate(0 131.25 33.60000000000002)"><text x="131.25" y="0" font-family="Cascadia, Segoe UI Emoji" font-size="28px" fill="#1e1e1e" text-anchor="middle" style="white-space: pre;" direction="ltr" dominant-baseline="text-before-edge">Partition_202604</text><text x="131.25" y="33.6" font-family="Cascadia, Segoe UI Emoji" font-size="28px" fill="#1e1e1e" text-anchor="middle" style="white-space: pre;" direction="ltr" dominant-baseline="text-before-edge">(skipped)</text></g><g stroke-linecap="round" transform="translate(122.08739872295956 736.4067547005612) rotate(0 171.17893961434623 45)"><path d="M0 0 L342.36 0 L342.36 90 L0 90" stroke="none" stroke-width="0" fill="#8a8b48"></path><path d="M0 0 C94.47 0, 188.94 0, 342.36 0 M0 0 C113.02 0, 226.04 0, 342.36 0 M342.36 0 C342.36 25.48, 342.36 50.96, 342.36 90 M342.36 0 C342.36 25.8, 342.36 51.61, 342.36 90 M342.36 90 C229.78 90, 117.2 90, 0 90 M342.36 90 C250.04 90, 157.73 90, 0 90 M0 90 C0 60.59, 0 31.17, 0 0 M0 90 C0 58.53, 0 27.06, 0 0" stroke="#8a8b48" stroke-width="2" fill="none"></path></g><g transform="translate(162.0163383373058 747.8067547005612) rotate(0 131.25 33.60000000000002)"><text x="131.25" y="0" font-family="Cascadia, Segoe UI Emoji" font-size="28px" fill="#1e1e1e" text-anchor="middle" style="white-space: pre;" direction="ltr" dominant-baseline="text-before-edge">Partition_202605</text><text x="131.25" y="33.6" font-family="Cascadia, Segoe UI Emoji" font-size="28px" fill="#1e1e1e" text-anchor="middle" style="white-space: pre;" direction="ltr" dominant-baseline="text-before-edge">(skipped)</text></g><g stroke-linecap="round" transform="translate(604.3588834861131 432.11038762781766) rotate(0 63.65197774980771 39)"><path d="M0 0 L127.3 0 L127.3 78 L0 78" stroke="none" stroke-width="0" fill="#8a8b48"></path><path d="M0 0 C50.14 0, 100.28 0, 127.3 0 M0 0 C33.62 0, 67.24 0, 127.3 0 M127.3 0 C127.3 25.72, 127.3 51.43, 127.3 78 M127.3 0 C127.3 30.31, 127.3 60.62, 127.3 78 M127.3 78 C95.57 78, 63.84 78, 0 78 M127.3 78 C94.18 78, 61.05 78, 0 78 M0 78 C0 57.09, 0 36.18, 0 0 M0 78 C0 51.24, 0 24.48, 0 0" stroke="#1e1e1e" stroke-width="1" fill="none"></path></g><g transform="translate(609.4171112359207 447.11038762781766) rotate(0 58.59375 24)"><text x="58.59375" y="0" font-family="Cascadia, Segoe UI Emoji" font-size="20px" fill="#1e1e1e" text-anchor="middle" style="white-space: pre;" direction="ltr" dominant-baseline="text-before-edge">Part1</text><text x="58.59375" y="24" font-family="Cascadia, Segoe UI Emoji" font-size="20px" fill="#1e1e1e" text-anchor="middle" style="white-space: pre;" direction="ltr" dominant-baseline="text-before-edge">(inactive)</text></g><g stroke-linecap="round" transform="translate(604.3588834861131 522.0895056810542) rotate(0 63.65197774980771 37.7301547360409)"><path d="M0 0 L127.3 0 L127.3 75.46 L0 75.46" stroke="none" stroke-width="0" fill="#fff96a"></path><path d="M0 0 C42.36 0, 84.71 0, 127.3 0 M0 0 C42.9 0, 85.8 0, 127.3 0 M127.3 0 C127.3 21.18, 127.3 42.37, 127.3 75.46 M127.3 0 C127.3 19.61, 127.3 39.21, 127.3 75.46 M127.3 75.46 C101.42 75.46, 75.54 75.46, 0 75.46 M127.3 75.46 C96.06 75.46, 64.82 75.46, 0 75.46 M0 75.46 C0 58.38, 0 41.29, 0 0 M0 75.46 C0 53.65, 0 31.84, 0 0" stroke="#1e1e1e" stroke-width="1" fill="none"></path></g><g transform="translate(626.9952362359207 543.0196604170951) rotate(0 41.015625 16.80000000000001)"><text x="41.015625" y="0" font-family="Cascadia, Segoe UI Emoji" font-size="28px" fill="#1e1e1e" text-anchor="middle" style="white-space: pre;" direction="ltr" dominant-baseline="text-before-edge">Part2</text></g><g stroke-linecap="round" transform="translate(604.3588834861131 611.7570443194365) rotate(0 63.65197774980771 37.7301547360409)"><path d="M0 0 L127.3 0 L127.3 75.46 L0 75.46" stroke="none" stroke-width="0" fill="#fff96a"></path><path d="M0 0 C32.79 0, 65.58 0, 127.3 0 M0 0 C50.14 0, 100.28 0, 127.3 0 M127.3 0 C127.3 19.93, 127.3 39.86, 127.3 75.46 M127.3 0 C127.3 24.88, 127.3 49.76, 127.3 75.46 M127.3 75.46 C77.83 75.46, 28.36 75.46, 0 75.46 M127.3 75.46 C95.57 75.46, 63.84 75.46, 0 75.46 M0 75.46 C0 55.83, 0 36.19, 0 0 M0 75.46 C0 55.23, 0 35, 0 0" stroke="#1e1e1e" stroke-width="1" fill="none"></path></g><g transform="translate(626.9952362359207 632.6871990554774) rotate(0 41.015625 16.80000000000001)"><text x="41.015625" y="0" font-family="Cascadia, Segoe UI Emoji" font-size="28px" fill="#1e1e1e" text-anchor="middle" style="white-space: pre;" direction="ltr" dominant-baseline="text-before-edge">Part3</text></g><g stroke-linecap="round" transform="translate(604.8024880767532 701.4496677412183) rotate(0 63.65197774980771 37.7301547360409)"><path d="M0 0 L127.3 0 L127.3 75.46 L0 75.46" stroke="none" stroke-width="0" fill="#fff96a"></path><path d="M0 0 C47.76 0, 95.52 0, 127.3 0 M0 0 C31.59 0, 63.18 0, 127.3 0 M127.3 0 C127.3 17.75, 127.3 35.49, 127.3 75.46 M127.3 0 C127.3 21.14, 127.3 42.28, 127.3 75.46 M127.3 75.46 C78.05 75.46, 28.79 75.46, 0 75.46 M127.3 75.46 C98.59 75.46, 69.87 75.46, 0 75.46 M0 75.46 C0 55.87, 0 36.28, 0 0 M0 75.46 C0 54.84, 0 34.21, 0 0" stroke="#1e1e1e" stroke-width="1" fill="none"></path></g><g transform="translate(627.438840826561 722.3798224772592) rotate(0 41.015625 16.80000000000001)"><text x="41.015625" y="0" font-family="Cascadia, Segoe UI Emoji" font-size="28px" fill="#1e1e1e" text-anchor="middle" style="white-space: pre;" direction="ltr" dominant-baseline="text-before-edge">Part4</text></g><g stroke-linecap="round"><g transform="translate(463.78375731651795 541.6490354737075) rotate(0 69.42411843515907 11.36208662811839)"><path d="M0 0 C43.28 7.08, 86.57 14.17, 138.85 22.72 M0 0 C35.61 5.83, 71.22 11.66, 138.85 22.72" stroke="#fff96a" stroke-width="4" fill="none"></path></g></g><mask></mask><g stroke-linecap="round"><g transform="translate(464.19039485793803 545.6626008175932) rotate(0 71.60253383562326 55.54563195656493)"><path d="M0 0 C50.07 38.84, 100.15 77.69, 143.21 111.09 M0 0 C51.29 39.79, 102.58 79.57, 143.21 111.09" stroke="#fff96a" stroke-width="4" fill="none"></path></g></g><mask></mask><g stroke-linecap="round"><g transform="translate(463.56195502119795 547.7961276582903) rotate(0 71.01634205513477 98.66505436817863)"><path d="M0 0 C44.1 61.27, 88.21 122.55, 142.03 197.33 M0 0 C48 66.69, 96 133.38, 142.03 197.33" stroke="#fff96a" stroke-width="4" fill="none"></path></g></g><mask></mask><g stroke-linecap="round" transform="translate(849.3342376600185 341.31403373646754) rotate(0 331.72117567214997 216.95697136866124)"><path d="M0 0 L663.44 0 L663.44 433.91 L0 433.91" stroke="none" stroke-width="0" fill="#1971c2"></path><path d="M0 0 C218.73 0, 437.46 0, 663.44 0 M0 0 C257.82 0, 515.64 0, 663.44 0 M663.44 0 C663.44 108.16, 663.44 216.31, 663.44 433.91 M663.44 0 C663.44 112.91, 663.44 225.81, 663.44 433.91 M663.44 433.91 C485.6 433.91, 307.75 433.91, 0 433.91 M663.44 433.91 C435.85 433.91, 208.26 433.91, 0 433.91 M0 433.91 C0 333.86, 0 233.8, 0 0 M0 433.91 C0 267.63, 0 101.34, 0 0" stroke="transparent" stroke-width="1" fill="none"></path></g><g stroke-linecap="round"><g transform="translate(729.3180718637743 567.3516966956701) rotate(0 58.938678974257755 -38.17639983019666)"><path d="M0 0 C33.24 -21.53, 66.49 -43.07, 117.88 -76.35 M0 0 C38.2 -24.74, 76.4 -49.49, 117.88 -76.35" stroke="#fff96a" stroke-width="4" fill="none"></path></g></g><mask></mask><g transform="translate(865.4043420566553 356.7752702998955) rotate(0 105.46875 12)"><text x="0" y="0" font-family="Cascadia, Segoe UI Emoji" font-size="20px" fill="#fff96a" text-anchor="start" style="white-space: pre;" direction="ltr" dominant-baseline="text-before-edge">user_id_minmax.idx</text></g><g stroke-linecap="round" transform="translate(869.6344286888293 399.4896071946837) rotate(0 88.40543043818667 31.79694333623098)"><path d="M0 0 L176.81 0 L176.81 63.59 L0 63.59" stroke="none" stroke-width="0" fill="#1971c2"></path><path d="M0 0 C46.76 0, 93.53 0, 176.81 0 M176.81 0 C176.81 22.47, 176.81 44.94, 176.81 63.59 M176.81 63.59 C106.74 63.59, 36.66 63.59, 0 63.59 M0 63.59 C0 49.18, 0 34.76, 0 0" stroke="#868e96" stroke-width="1.5" fill="none" stroke-dasharray="8 9"></path></g><g transform="translate(893.5867341270159 419.28655053091467) rotate(0 64.453125 12)"><text x="64.453125" y="0" font-family="Cascadia, Segoe UI Emoji" font-size="20px" fill="#868e96" text-anchor="middle" style="white-space: pre;" direction="ltr" dominant-baseline="text-before-edge">G0{1, 1000}</text></g><g stroke-linecap="round" transform="translate(1070.3919109885837 396.83854166490664) rotate(0 88.40543043818661 31.79694333623098)"><path d="M0 0 L176.81 0 L176.81 63.59 L0 63.59" stroke="none" stroke-width="0" fill="#1971c2"></path><path d="M0 0 C60.83 0, 121.65 0, 176.81 0 M0 0 C42.41 0, 84.82 0, 176.81 0 M176.81 0 C176.81 15.58, 176.81 31.16, 176.81 63.59 M176.81 0 C176.81 17.1, 176.81 34.2, 176.81 63.59 M176.81 63.59 C119.02 63.59, 61.22 63.59, 0 63.59 M176.81 63.59 C110.55 63.59, 44.28 63.59, 0 63.59 M0 63.59 C0 49.41, 0 35.22, 0 0 M0 63.59 C0 39.85, 0 16.11, 0 0" stroke="#fff96a" stroke-width="1" fill="none"></path></g><g transform="translate(1094.3442164267703 416.6354850011376) rotate(0 64.453125 12)"><text x="64.453125" y="0" font-family="Cascadia, Segoe UI Emoji" font-size="20px" fill="#fff96a" text-anchor="middle" style="white-space: pre;" direction="ltr" dominant-baseline="text-before-edge">G5{1, 1000}</text></g><g stroke-linecap="round" transform="translate(871.0822795983937 492.53743041709953) rotate(0 88.40543043818661 31.796943336230953)"><path d="M0 0 L176.81 0 L176.81 63.59 L0 63.59" stroke="none" stroke-width="0" fill="#1971c2"></path><path d="M0 0 C48.88 0, 97.76 0, 176.81 0 M176.81 0 C176.81 16.4, 176.81 32.81, 176.81 63.59 M176.81 63.59 C126.34 63.59, 75.87 63.59, 0 63.59 M0 63.59 C0 47.71, 0 31.82, 0 0" stroke="#868e96" stroke-width="1.5" fill="none" stroke-dasharray="8 9"></path></g><g transform="translate(900.8939600365803 512.3343737533305) rotate(0 58.59375 12)"><text x="58.59375" y="0" font-family="Cascadia, Segoe UI Emoji" font-size="20px" fill="#868e96" text-anchor="middle" style="white-space: pre;" direction="ltr" dominant-baseline="text-before-edge">G1{2, 999}</text></g><g stroke-linecap="round" transform="translate(1071.839761898148 489.57478547246825) rotate(0 88.40543043818661 31.79694333623101)"><path d="M0 0 L176.81 0 L176.81 63.59 L0 63.59" stroke="none" stroke-width="0" fill="#1971c2"></path><path d="M0 0 C62.08 0, 124.16 0, 176.81 0 M176.81 0 C176.81 16.32, 176.81 32.64, 176.81 63.59 M176.81 63.59 C117.01 63.59, 57.2 63.59, 0 63.59 M0 63.59 C0 44.73, 0 25.86, 0 0" stroke="#868e96" stroke-width="1.5" fill="none" stroke-dasharray="8 9"></path></g><g transform="translate(1089.9326923363346 509.37172880869923) rotate(0 70.3125 12)"><text x="70.3125" y="0" font-family="Cascadia, Segoe UI Emoji" font-size="20px" fill="#868e96" text-anchor="middle" style="white-space: pre;" direction="ltr" dominant-baseline="text-before-edge">G6{256, 999}</text></g><g stroke-linecap="round" transform="translate(872.0398224310142 585.5852536395154) rotate(0 88.40543043818661 31.79694333623098)"><path d="M0 0 L176.81 0 L176.81 63.59 L0 63.59" stroke="none" stroke-width="0" fill="#1971c2"></path><path d="M0 0 C51.62 0, 103.23 0, 176.81 0 M0 0 C53.21 0, 106.42 0, 176.81 0 M176.81 0 C176.81 25.05, 176.81 50.1, 176.81 63.59 M176.81 0 C176.81 24.49, 176.81 48.97, 176.81 63.59 M176.81 63.59 C115.32 63.59, 53.83 63.59, 0 63.59 M176.81 63.59 C108.2 63.59, 39.58 63.59, 0 63.59 M0 63.59 C0 46.95, 0 30.3, 0 0 M0 63.59 C0 46.19, 0 28.79, 0 0" stroke="#fff96a" stroke-width="1" fill="none"></path></g><g transform="translate(878.4140028692008 605.3821969757464) rotate(0 82.03125 12)"><text x="82.03125" y="0" font-family="Cascadia, Segoe UI Emoji" font-size="20px" fill="#fff96a" text-anchor="middle" style="white-space: pre;" direction="ltr" dominant-baseline="text-before-edge">G3{1000, 1002}</text></g><g stroke-linecap="round" transform="translate(1072.4910063229459 583.2404865175612) rotate(0 88.40543043818661 31.79694333623098)"><path d="M0 0 L176.81 0 L176.81 63.59 L0 63.59" stroke="none" stroke-width="0" fill="#1971c2"></path><path d="M0 0 C51.67 0, 103.34 0, 176.81 0 M176.81 0 C176.81 19.96, 176.81 39.92, 176.81 63.59 M176.81 63.59 C121.13 63.59, 65.44 63.59, 0 63.59 M0 63.59 C0 46.31, 0 29.02, 0 0" stroke="#868e96" stroke-width="1.5" fill="none" stroke-dasharray="8 9"></path></g><g transform="translate(1078.8651867611325 603.0374298537922) rotate(0 82.03125 12)"><text x="82.03125" y="0" font-family="Cascadia, Segoe UI Emoji" font-size="20px" fill="#868e96" text-anchor="middle" style="white-space: pre;" direction="ltr" dominant-baseline="text-before-edge">G7{1000, 1000}</text></g><g stroke-linecap="round" transform="translate(874.5338304819219 678.321497447077) rotate(0 88.40543043818661 31.79694333623098)"><path d="M0 0 L176.81 0 L176.81 63.59 L0 63.59" stroke="none" stroke-width="0" fill="#1971c2"></path><path d="M0 0 C53.26 0, 106.51 0, 176.81 0 M0 0 C54.58 0, 109.17 0, 176.81 0 M176.81 0 C176.81 23.52, 176.81 47.05, 176.81 63.59 M176.81 0 C176.81 18.17, 176.81 36.34, 176.81 63.59 M176.81 63.59 C117.58 63.59, 58.35 63.59, 0 63.59 M176.81 63.59 C139.8 63.59, 102.78 63.59, 0 63.59 M0 63.59 C0 46.6, 0 29.61, 0 0 M0 63.59 C0 41.07, 0 18.55, 0 0" stroke="#fff96a" stroke-width="1" fill="none"></path></g><g transform="translate(886.7673859201085 698.118440783308) rotate(0 76.171875 12)"><text x="76.171875" y="0" font-family="Cascadia, Segoe UI Emoji" font-size="20px" fill="#fff96a" text-anchor="middle" style="white-space: pre;" direction="ltr" dominant-baseline="text-before-edge">G4{999, 1001}</text></g><g stroke-linecap="round" transform="translate(1075.2913127816764 675.0472730875914) rotate(0 88.40543043818661 31.79694333623098)"><path d="M0 0 L176.81 0 L176.81 63.59 L0 63.59" stroke="none" stroke-width="0" fill="#1971c2"></path><path d="M0 0 C59.68 0, 119.37 0, 176.81 0 M176.81 0 C176.81 16.82, 176.81 33.65, 176.81 63.59 M176.81 63.59 C107.18 63.59, 37.54 63.59, 0 63.59 M0 63.59 C0 44.7, 0 25.8, 0 0" stroke="#868e96" stroke-width="1.5" fill="none" stroke-dasharray="8 9"></path></g><g transform="translate(1099.243618219863 694.8442164238224) rotate(0 64.453125 12)"><text x="64.453125" y="0" font-family="Cascadia, Segoe UI Emoji" font-size="20px" fill="#868e96" text-anchor="middle" style="white-space: pre;" direction="ltr" dominant-baseline="text-before-edge">G8{99, 512}</text></g><g stroke-linecap="round" transform="translate(1314.928255212843 394.3485468495883) rotate(0 88.40543043818661 31.79694333623098)"><path d="M0 0 L176.81 0 L176.81 63.59 L0 63.59" stroke="none" stroke-width="0" fill="#1971c2"></path><path d="M0 0 C45.58 0, 91.17 0, 176.81 0 M176.81 0 C176.81 16.86, 176.81 33.73, 176.81 63.59 M176.81 63.59 C126.25 63.59, 75.69 63.59, 0 63.59 M0 63.59 C0 42.65, 0 21.72, 0 0" stroke="#868e96" stroke-width="1.5" fill="none" stroke-dasharray="8 9"></path></g><g transform="translate(1344.7399356510296 402.14549018581926) rotate(0 58.59375 24)"><text x="58.59375" y="0" font-family="Cascadia, Segoe UI Emoji" font-size="20px" fill="#868e96" text-anchor="middle" style="white-space: pre;" direction="ltr" dominant-baseline="text-before-edge">Gn</text><text x="58.59375" y="24" font-family="Cascadia, Segoe UI Emoji" font-size="20px" fill="#868e96" text-anchor="middle" style="white-space: pre;" direction="ltr" dominant-baseline="text-before-edge">{124, 149}</text></g><g stroke-linecap="round" transform="translate(1316.3761061224072 486.46163182744124) rotate(0 88.40543043818661 31.79694333623098)"><path d="M0 0 L176.81 0 L176.81 63.59 L0 63.59" stroke="none" stroke-width="0" fill="#1971c2"></path><path d="M0 0 C61.36 0, 122.73 0, 176.81 0 M176.81 0 C176.81 18.84, 176.81 37.67, 176.81 63.59 M176.81 63.59 C124.76 63.59, 72.71 63.59, 0 63.59 M0 63.59 C0 49.53, 0 35.47, 0 0" stroke="#868e96" stroke-width="1.5" fill="none" stroke-dasharray="8 9"></path></g><g transform="translate(1334.4690365605938 494.2585751636722) rotate(0 70.3125 24.00000000000003)"><text x="70.3125" y="0" font-family="Cascadia, Segoe UI Emoji" font-size="20px" fill="#868e96" text-anchor="middle" style="white-space: pre;" direction="ltr" dominant-baseline="text-before-edge">Gn+1</text><text x="70.3125" y="24" font-family="Cascadia, Segoe UI Emoji" font-size="20px" fill="#868e96" text-anchor="middle" style="white-space: pre;" direction="ltr" dominant-baseline="text-before-edge">{1091, 1999}</text></g><g stroke-linecap="round" transform="translate(1317.333648955028 580.1326138795656) rotate(0 88.40543043818661 31.79694333623098)"><path d="M0 0 L176.81 0 L176.81 63.59 L0 63.59" stroke="none" stroke-width="0" fill="#1971c2"></path><path d="M0 0 C68.27 0, 136.55 0, 176.81 0 M0 0 C55.17 0, 110.33 0, 176.81 0 M176.81 0 C176.81 18.86, 176.81 37.72, 176.81 63.59 M176.81 0 C176.81 21.72, 176.81 43.44, 176.81 63.59 M176.81 63.59 C108.09 63.59, 39.37 63.59, 0 63.59 M176.81 63.59 C125.04 63.59, 73.27 63.59, 0 63.59 M0 63.59 C0 42.19, 0 20.78, 0 0 M0 63.59 C0 40.43, 0 17.26, 0 0" stroke="#fff96a" stroke-width="1" fill="none"></path></g><g transform="translate(1347.1453293932145 587.9295572157966) rotate(0 58.59375 24)"><text x="58.59375" y="0" font-family="Cascadia, Segoe UI Emoji" font-size="20px" fill="#fff96a" text-anchor="middle" style="white-space: pre;" direction="ltr" dominant-baseline="text-before-edge">Gn+2</text><text x="58.59375" y="24" font-family="Cascadia, Segoe UI Emoji" font-size="20px" fill="#fff96a" text-anchor="middle" style="white-space: pre;" direction="ltr" dominant-baseline="text-before-edge">{98, 1001}</text></g><g stroke-linecap="round" transform="translate(1319.8276570059356 673.1804371019815) rotate(0 88.40543043818661 31.79694333623098)"><path d="M0 0 L176.81 0 L176.81 63.59 L0 63.59" stroke="none" stroke-width="0" fill="#1971c2"></path><path d="M0 0 C56.96 0, 113.91 0, 176.81 0 M0 0 C49.64 0, 99.28 0, 176.81 0 M176.81 0 C176.81 16.88, 176.81 33.75, 176.81 63.59 M176.81 0 C176.81 14.01, 176.81 28.03, 176.81 63.59 M176.81 63.59 C134.29 63.59, 91.78 63.59, 0 63.59 M176.81 63.59 C137.68 63.59, 98.55 63.59, 0 63.59 M0 63.59 C0 48.89, 0 34.2, 0 0 M0 63.59 C0 40.1, 0 16.61, 0 0" stroke="#fff96a" stroke-width="1" fill="none"></path></g><g transform="translate(1337.9205874441222 680.9773804382125) rotate(0 70.3125 24)"><text x="70.3125" y="0" font-family="Cascadia, Segoe UI Emoji" font-size="20px" fill="#fff96a" text-anchor="middle" style="white-space: pre;" direction="ltr" dominant-baseline="text-before-edge">Gn+3</text><text x="70.3125" y="24" font-family="Cascadia, Segoe UI Emoji" font-size="20px" fill="#fff96a" text-anchor="middle" style="white-space: pre;" direction="ltr" dominant-baseline="text-before-edge">{1001, 1123}</text></g><g transform="translate(1258.4931668416293 552.8326563416786) rotate(0 26.685221625698432 18.217111296476844)"><text x="26.685221625698485" y="0" font-family="Cascadia, Segoe UI Emoji" font-size="30.36185216079473px" fill="#fff96a" text-anchor="middle" style="white-space: pre;" direction="ltr" dominant-baseline="text-before-edge">...</text></g></svg>