<svg version="1.1" xmlns="http://www.w3.org/2000/svg" viewBox="0 0 1620 940" width="1620" height="940">
  <!-- svg-source:excalidraw -->
  
  <defs>
    <style class="style-fonts">
      @font-face {
        font-family: "Virgil";
        src: url("https://unpkg.com/@excalidraw/excalidraw@undefined/dist/excalidraw-assets/Virgil.woff2");
      }
      @font-face {
        font-family: "Cascadia";
        src: url("https://unpkg.com/@excalidraw/excalidraw@undefined/dist/excalidraw-assets/Cascadia.woff2");
      }
      @font-face {
        font-family: "Assistant";
        src: url("https://unpkg.com/@excalidraw/excalidraw@undefined/dist/excalidraw-assets/Assistant-Regular.woff2");
      }
    </style>
    
  </defs>
  <rect x="0" y="0" width="1620" height="940" fill="#ffffff"></rect><g stroke-linecap="round" transform="translate(10 10) rotate(0 800 460)"><path d="M0 0 L1600 0 L1600 920 L0 920" stroke="none" stroke-width="0" fill="#1e1d19"></path><path d="M0 0 C374.38 0, 748.77 0, 1600 0 M0 0 C399.48 0, 798.95 0, 1600 0 M1600 0 C1600 301.01, 1600 602.01, 1600 920 M1600 0 C1600 313.14, 1600 626.28, 1600 920 M1600 920 C1071.89 920, 543.79 920, 0 920 M1600 920 C1015.42 920, 430.83 920, 0 920 M0 920 C0 636.5, 0 353, 0 0 M0 920 C0 664.64, 0 409.28, 0 0" stroke="#1e1d19" stroke-width="1" fill="none"></path></g><g transform="translate(282.3618333886358 89.55416166216474) rotate(0 68.5546875 16.25)"><text x="0" y="0" font-family="Cascadia, Segoe UI Emoji" font-size="26px" fill="#3ce1db" text-anchor="start" style="white-space: pre;" direction="ltr" dominant-baseline="text-before-edge">In Memory</text></g><g stroke-linecap="round" transform="translate(574.4353680103843 214.76816692682303) rotate(0 94.36069335526747 37.29886618818176)"><path d="M0 0 L188.72 0 L188.72 74.6 L0 74.6" stroke="none" stroke-width="0" fill="#fff96a"></path><path d="M0 0 C44.17 0, 88.33 0, 188.72 0 M0 0 C42.58 0, 85.16 0, 188.72 0 M188.72 0 C188.72 15.53, 188.72 31.07, 188.72 74.6 M188.72 0 C188.72 25.56, 188.72 51.12, 188.72 74.6 M188.72 74.6 C146.79 74.6, 104.86 74.6, 0 74.6 M188.72 74.6 C133.49 74.6, 78.27 74.6, 0 74.6 M0 74.6 C0 57.17, 0 39.74, 0 0 M0 74.6 C0 52.98, 0 31.37, 0 0" stroke="#111111" stroke-width="2" fill="none"></path></g><g transform="translate(592.6241863656518 240.0670331150048) rotate(0 76.171875 12)"><text x="76.171875" y="0" font-family="Cascadia, Segoe UI Emoji" font-size="20px" fill="#111111" text-anchor="middle" style="white-space: pre;" direction="ltr" dominant-baseline="text-before-edge">inmemoryPart1</text></g><g transform="translate(1175.2393894818997 237.2239901226319) rotate(359.7033470877096 60 15)"><text x="60" y="0" font-family="Cascadia, Segoe UI Emoji" font-size="28px" fill="#3ce1db" text-anchor="middle" style="white-space: pre;" direction="ltr" dominant-baseline="text-before-edge">merge</text></g><g transform="translate(1118.1220849262056 96.28139546159832) rotate(0 53.3203125 16.25)"><text x="0" y="0" font-family="Cascadia, Segoe UI Emoji" font-size="26px" fill="#3ce1db" text-anchor="start" style="white-space: pre;" direction="ltr" dominant-baseline="text-before-edge">On Disk</text></g><g stroke-linecap="round" transform="translate(908.2853889374406 320.09256264779856) rotate(0 110.00000000000006 42)"><path d="M0 0 L220 0 L220 84 L0 84" stroke="none" stroke-width="0" fill="#8a8b48"></path><path d="M0 0 C51.52 0, 103.04 0, 220 0 M0 0 C47.83 0, 95.66 0, 220 0 M220 0 C220 22.94, 220 45.87, 220 84 M220 0 C220 21.23, 220 42.46, 220 84 M220 84 C167.94 84, 115.88 84, 0 84 M220 84 C139.62 84, 59.24 84, 0 84 M0 84 C0 58.93, 0 33.87, 0 0 M0 84 C0 55.06, 0 26.12, 0 0" stroke="#111111" stroke-width="2" fill="none"></path></g><g transform="translate(959.6916389374406 338.09256264779856) rotate(0 58.59375000000006 24)"><text x="58.59375" y="0" font-family="Cascadia, Segoe UI Emoji" font-size="20px" fill="#111111" text-anchor="middle" style="white-space: pre;" direction="ltr" dominant-baseline="text-before-edge">part7</text><text x="58.59375" y="24" font-family="Cascadia, Segoe UI Emoji" font-size="20px" fill="#111111" text-anchor="middle" style="white-space: pre;" direction="ltr" dominant-baseline="text-before-edge">(inactive)</text></g><g stroke-linecap="round"><g transform="translate(834.1404234435212 119.42730146812534) rotate(0 0 377.0171843308066)"><path d="M0.92 -0.85 C0.92 124.97, 0.13 628.7, 0.12 754.55" stroke="#fff96a" stroke-width="2.5" fill="none" stroke-dasharray="1.5 8"></path></g></g><mask></mask><g stroke-linecap="round" transform="translate(907.035380891622 203.97597093263977) rotate(0 110 42)"><path d="M0 0 L220 0 L220 84 L0 84" stroke="none" stroke-width="0" fill="#8a8b48"></path><path d="M0 0 C53.95 0, 107.9 0, 220 0 M0 0 C72.69 0, 145.38 0, 220 0 M220 0 C220 19.78, 220 39.56, 220 84 M220 0 C220 18.2, 220 36.4, 220 84 M220 84 C144.11 84, 68.22 84, 0 84 M220 84 C175.5 84, 130.99 84, 0 84 M0 84 C0 59.84, 0 35.68, 0 0 M0 84 C0 60.57, 0 37.13, 0 0" stroke="#111111" stroke-width="2" fill="none"></path></g><g transform="translate(958.441630891622 221.97597093263977) rotate(0 58.59375 24)"><text x="58.59375" y="0" font-family="Cascadia, Segoe UI Emoji" font-size="20px" fill="#111111" text-anchor="middle" style="white-space: pre;" direction="ltr" dominant-baseline="text-before-edge">part8</text><text x="58.59375" y="24" font-family="Cascadia, Segoe UI Emoji" font-size="20px" fill="#111111" text-anchor="middle" style="white-space: pre;" direction="ltr" dominant-baseline="text-before-edge">(inactive)</text></g><g stroke-linecap="round" transform="translate(911.4121903988521 434.0802271740522) rotate(0 110 42)"><path d="M0 0 L220 0 L220 84 L0 84" stroke="none" stroke-width="0" fill="#8a8b48"></path><path d="M0 0 C80.09 0, 160.18 0, 220 0 M0 0 C44.39 0, 88.77 0, 220 0 M220 0 C220 23.66, 220 47.33, 220 84 M220 0 C220 29.91, 220 59.82, 220 84 M220 84 C170.86 84, 121.71 84, 0 84 M220 84 C158.35 84, 96.69 84, 0 84 M0 84 C0 52.34, 0 20.68, 0 0 M0 84 C0 66.99, 0 49.97, 0 0" stroke="#111111" stroke-width="2" fill="none"></path></g><g transform="translate(962.8184403988521 452.0802271740522) rotate(0 58.59375 24)"><text x="58.59375" y="0" font-family="Cascadia, Segoe UI Emoji" font-size="20px" fill="#111111" text-anchor="middle" style="white-space: pre;" direction="ltr" dominant-baseline="text-before-edge">part6</text><text x="58.59375" y="24" font-family="Cascadia, Segoe UI Emoji" font-size="20px" fill="#111111" text-anchor="middle" style="white-space: pre;" direction="ltr" dominant-baseline="text-before-edge">(inactive)</text></g><g stroke-linecap="round" transform="translate(1321.3672623351624 320.6619862312274) rotate(0 110 42)"><path d="M0 0 L220 0 L220 84 L0 84" stroke="none" stroke-width="0" fill="#fff96a"></path><path d="M0 0 C85.31 0, 170.61 0, 220 0 M0 0 C67.96 0, 135.91 0, 220 0 M220 0 C220 29.48, 220 58.97, 220 84 M220 0 C220 23.03, 220 46.06, 220 84 M220 84 C143.99 84, 67.99 84, 0 84 M220 84 C167.98 84, 115.96 84, 0 84 M0 84 C0 55.41, 0 26.83, 0 0 M0 84 C0 55.21, 0 26.42, 0 0" stroke="#8a8b48" stroke-width="2" fill="none"></path></g><g transform="translate(1384.4922623351624 338.6619862312274) rotate(0 46.875 24)"><text x="46.875" y="0" font-family="Cascadia, Segoe UI Emoji" font-size="20px" fill="#111111" text-anchor="middle" style="white-space: pre;" direction="ltr" dominant-baseline="text-before-edge">part9</text><text x="46.875" y="24" font-family="Cascadia, Segoe UI Emoji" font-size="20px" fill="#111111" text-anchor="middle" style="white-space: pre;" direction="ltr" dominant-baseline="text-before-edge">(active)</text></g><g stroke-linecap="round" transform="translate(908.7924941974446 545.9284759682984) rotate(0 109.99999999999994 42)"><path d="M0 0 L220 0 L220 84 L0 84" stroke="none" stroke-width="0" fill="#fff96a"></path><path d="M0 0 C74.22 0, 148.43 0, 220 0 M0 0 C79.62 0, 159.23 0, 220 0 M220 0 C220 29.26, 220 58.52, 220 84 M220 0 C220 30.02, 220 60.03, 220 84 M220 84 C167.21 84, 114.42 84, 0 84 M220 84 C135.92 84, 51.84 84, 0 84 M0 84 C0 53.91, 0 23.81, 0 0 M0 84 C0 60.87, 0 37.74, 0 0" stroke="#111111" stroke-width="2" fill="none"></path></g><g transform="translate(971.9174941974446 563.9284759682984) rotate(0 46.87499999999994 24)"><text x="46.875" y="0" font-family="Cascadia, Segoe UI Emoji" font-size="20px" fill="#111111" text-anchor="middle" style="white-space: pre;" direction="ltr" dominant-baseline="text-before-edge">part5</text><text x="46.875" y="24" font-family="Cascadia, Segoe UI Emoji" font-size="20px" fill="#111111" text-anchor="middle" style="white-space: pre;" direction="ltr" dominant-baseline="text-before-edge">(active)</text></g><g stroke-linecap="round" transform="translate(906.9349744170038 663.9106475755965) rotate(0 110 42)"><path d="M0 0 L220 0 L220 84 L0 84" stroke="none" stroke-width="0" fill="#fff96a"></path><path d="M0 0 C70.49 0, 140.98 0, 220 0 M0 0 C51.65 0, 103.3 0, 220 0 M220 0 C220 24.96, 220 49.93, 220 84 M220 0 C220 25.8, 220 51.6, 220 84 M220 84 C166.98 84, 113.96 84, 0 84 M220 84 C141.79 84, 63.59 84, 0 84 M0 84 C0 62.68, 0 41.37, 0 0 M0 84 C0 61.39, 0 38.79, 0 0" stroke="#111111" stroke-width="2" fill="none"></path></g><g transform="translate(970.0599744170038 681.9106475755965) rotate(0 46.875 24)"><text x="46.875" y="0" font-family="Cascadia, Segoe UI Emoji" font-size="20px" fill="#111111" text-anchor="middle" style="white-space: pre;" direction="ltr" dominant-baseline="text-before-edge">part4</text><text x="46.875" y="24" font-family="Cascadia, Segoe UI Emoji" font-size="20px" fill="#111111" text-anchor="middle" style="white-space: pre;" direction="ltr" dominant-baseline="text-before-edge">(active)</text></g><g stroke-linecap="round"><g transform="translate(1127.8202338410458 247.21279614271202) rotate(0 97.45132951316532 57.91856209749784)"><path d="M1.06 -0.93 C33.47 18.71, 162.36 97.05, 194.63 116.67" stroke="#fff96a" stroke-width="2.5" fill="none" stroke-dasharray="1.5 8"></path></g></g><mask></mask><g stroke-linecap="round"><g transform="translate(1126.998726321441 364.14982762784575) rotate(0 97.76852269434607 1.156956423443944)"><path d="M-1.02 -0.36 C31.92 -0.08, 163.68 1.54, 196.58 2.01" stroke="#fff96a" stroke-width="2.5" fill="none" stroke-dasharray="1.5 8"></path></g></g><mask></mask><g stroke-linecap="round"><g transform="translate(1130.2345531625522 480.9681969157032) rotate(0 95.34279354617865 -55.17335780281718)"><path d="M0.96 0.14 C32.56 -18.42, 158.22 -92.63, 189.75 -111.24" stroke="#fff96a" stroke-width="2.5" fill="none" stroke-dasharray="1.5 8"></path></g></g><mask></mask><g transform="translate(921.44385312423 148.75825756559516) rotate(0 93.75000000000006 12)"><text x="0" y="0" font-family="Cascadia, Segoe UI Emoji" font-size="20px" fill="#fff96a" text-anchor="start" style="white-space: pre;" direction="ltr" dominant-baseline="text-before-edge">Partition_202603</text></g><g stroke-linecap="round"><g transform="translate(769.1567547209193 252.06133779412193) rotate(0 65.93931308535139 -0.14457297831390292)"><path d="M0.12 -0.19 C21.93 -0.11, 109.27 -0.2, 131.24 -0.31 M-1.28 -1.33 C20.9 -0.99, 111.53 0.96, 133.61 1.21" stroke="#fff96a" stroke-width="1" fill="none"></path></g><g transform="translate(769.1567547209193 252.06133779412193) rotate(0 65.93931308535139 -0.14457297831390292)"><path d="M105.25 10.99 C114.31 6.68, 123.89 4.61, 133.61 1.21 M105.25 10.99 C112.67 9.21, 119.61 5.19, 133.61 1.21" stroke="#fff96a" stroke-width="1" fill="none"></path></g><g transform="translate(769.1567547209193 252.06133779412193) rotate(0 65.93931308535139 -0.14457297831390292)"><path d="M105.6 -9.53 C114.42 -7.1, 123.89 -2.43, 133.61 1.21 M105.6 -9.53 C113 -6.13, 119.85 -4.98, 133.61 1.21" stroke="#fff96a" stroke-width="1" fill="none"></path></g></g><mask></mask><g stroke-linecap="round" transform="translate(574.4353680103843 324.68448371201794) rotate(0 94.36069335526747 37.29886618818176)"><path d="M0 0 L188.72 0 L188.72 74.6 L0 74.6" stroke="none" stroke-width="0" fill="#fff96a"></path><path d="M0 0 C70.58 0, 141.15 0, 188.72 0 M0 0 C66.94 0, 133.88 0, 188.72 0 M188.72 0 C188.72 20.39, 188.72 40.77, 188.72 74.6 M188.72 0 C188.72 19.03, 188.72 38.06, 188.72 74.6 M188.72 74.6 C150.67 74.6, 112.63 74.6, 0 74.6 M188.72 74.6 C116.27 74.6, 43.82 74.6, 0 74.6 M0 74.6 C0 52.16, 0 29.73, 0 0 M0 74.6 C0 48.25, 0 21.91, 0 0" stroke="#111111" stroke-width="2" fill="none"></path></g><g transform="translate(592.6241863656518 349.9833499001997) rotate(0 76.171875 12)"><text x="76.171875" y="0" font-family="Cascadia, Segoe UI Emoji" font-size="20px" fill="#111111" text-anchor="middle" style="white-space: pre;" direction="ltr" dominant-baseline="text-before-edge">inmemoryPart2</text></g><g stroke-linecap="round" transform="translate(574.4353680103843 434.60080049721284) rotate(0 94.36069335526747 37.29886618818176)"><path d="M0 0 L188.72 0 L188.72 74.6 L0 74.6" stroke="none" stroke-width="0" fill="#fff96a"></path><path d="M0 0 C54.93 0, 109.85 0, 188.72 0 M0 0 C38.25 0, 76.51 0, 188.72 0 M188.72 0 C188.72 22.49, 188.72 44.99, 188.72 74.6 M188.72 0 C188.72 29.29, 188.72 58.59, 188.72 74.6 M188.72 74.6 C127.41 74.6, 66.09 74.6, 0 74.6 M188.72 74.6 C129.42 74.6, 70.12 74.6, 0 74.6 M0 74.6 C0 53.09, 0 31.57, 0 0 M0 74.6 C0 50.35, 0 26.11, 0 0" stroke="#111111" stroke-width="2" fill="none"></path></g><g transform="translate(592.6241863656518 459.8996666853946) rotate(0 76.171875 12)"><text x="76.171875" y="0" font-family="Cascadia, Segoe UI Emoji" font-size="20px" fill="#111111" text-anchor="middle" style="white-space: pre;" direction="ltr" dominant-baseline="text-before-edge">inmemoryPart3</text></g><g stroke-linecap="round"><g transform="translate(769.1567547209193 361.99536368753485) rotate(0 66.5643171082607 0.05052247308307756)"><path d="M-0.67 -0.02 C21.3 -0.02, 109.88 -1.14, 132.2 -0.94 M1.19 -1.07 C23.49 -0.87, 112.53 -0.03, 134.42 0.05" stroke="#fff96a" stroke-width="1" fill="none"></path></g><g transform="translate(769.1567547209193 361.99536368753485) rotate(0 66.5643171082607 0.05052247308307756)"><path d="M106.16 10.11 C115.61 5.37, 123.3 3.77, 134.42 0.05 M106.16 10.11 C117.64 6.76, 128.89 2.77, 134.42 0.05" stroke="#fff96a" stroke-width="1" fill="none"></path></g><g transform="translate(769.1567547209193 361.99536368753485) rotate(0 66.5643171082607 0.05052247308307756)"><path d="M106.31 -10.41 C115.55 -8.32, 123.19 -3.1, 134.42 0.05 M106.31 -10.41 C117.92 -5.72, 129.11 -1.66, 134.42 0.05" stroke="#fff96a" stroke-width="1" fill="none"></path></g></g><mask></mask><g stroke-linecap="round"><g transform="translate(769.1567547209193 472.0763546840784) rotate(0 68.12771783896642 1.9215221322637888)"><path d="M-1.04 0.12 C21.86 1.1, 114.28 4.26, 137.36 4.98 M0.61 -0.87 C23.45 -0.11, 114.22 2.91, 136.99 3.45" stroke="#fff96a" stroke-width="1" fill="none"></path></g><g transform="translate(769.1567547209193 472.0763546840784) rotate(0 68.12771783896642 1.9215221322637888)"><path d="M108.51 12.88 C117.28 12.15, 127.49 9.42, 136.99 3.45 M108.51 12.88 C119.2 9.38, 128.61 7, 136.99 3.45" stroke="#fff96a" stroke-width="1" fill="none"></path></g><g transform="translate(769.1567547209193 472.0763546840784) rotate(0 68.12771783896642 1.9215221322637888)"><path d="M109.11 -7.63 C117.54 -2.24, 127.57 1.16, 136.99 3.45 M109.11 -7.63 C119.77 -3.96, 128.97 0.83, 136.99 3.45" stroke="#fff96a" stroke-width="1" fill="none"></path></g></g><mask></mask><g stroke-linecap="round" transform="translate(97.07931292308399 667.5873217860146) rotate(0 334.1618753914027 81.3771657128903)"><path d="M0 0 L668.32 0 L668.32 162.75 L0 162.75" stroke="none" stroke-width="0" fill="#846358"></path><path d="M0 0 C170.44 0, 340.89 0, 668.32 0 M0 0 C264.73 0, 529.46 0, 668.32 0 M668.32 0 C668.32 39.69, 668.32 79.39, 668.32 162.75 M668.32 0 C668.32 37.18, 668.32 74.37, 668.32 162.75 M668.32 162.75 C495.76 162.75, 323.2 162.75, 0 162.75 M668.32 162.75 C429.02 162.75, 189.72 162.75, 0 162.75 M0 162.75 C0 115.88, 0 69, 0 0 M0 162.75 C0 100.62, 0 38.5, 0 0" stroke="#1e1e1e" stroke-width="1" fill="none"></path></g><g transform="translate(134.7226130436594 691.0444991183072) rotate(0 281.583529010339 54.06403756998509)"><text x="0" y="0" font-family="Cascadia, Segoe UI Emoji" font-size="30.03557642776948px" fill="#1e1e1e" text-anchor="start" style="white-space: pre;" direction="ltr" dominant-baseline="text-before-edge">INSERT INTO orders values (...);</text><text x="0" y="36.04269171332338" font-family="Cascadia, Segoe UI Emoji" font-size="30.03557642776948px" fill="#1e1e1e" text-anchor="start" style="white-space: pre;" direction="ltr" dominant-baseline="text-before-edge">INSERT INTO orders values (...);</text><text x="0" y="72.08538342664676" font-family="Cascadia, Segoe UI Emoji" font-size="30.03557642776948px" fill="#1e1e1e" text-anchor="start" style="white-space: pre;" direction="ltr" dominant-baseline="text-before-edge">INSERT INTO orders values (...);</text></g><g stroke-linecap="round" transform="translate(109.3973617864973 214.99144565153074) rotate(0 208.51001830245735 147.5564423130847)"><path d="M0 0 L417.02 0 L417.02 295.11 L0 295.11" stroke="none" stroke-width="0" fill="#4dabf7"></path><path d="M0 0 C88.65 0, 177.29 0, 417.02 0 M0 0 C144.81 0, 289.62 0, 417.02 0 M417.02 0 C417.02 86.68, 417.02 173.36, 417.02 295.11 M417.02 0 C417.02 68.93, 417.02 137.85, 417.02 295.11 M417.02 295.11 C303.3 295.11, 189.57 295.11, 0 295.11 M417.02 295.11 C260.46 295.11, 103.9 295.11, 0 295.11 M0 295.11 C0 231.63, 0 168.15, 0 0 M0 295.11 C0 183.05, 0 70.99, 0 0" stroke="#1e1e1e" stroke-width="1" fill="none"></path></g><g stroke-linecap="round" transform="translate(108.06469403247104 620.9576421870914) rotate(0 17.867788551412758 17.065019978205612)"><path d="M35.74 17.07 C35.74 18.05, 35.64 19.06, 35.46 20.03 C35.28 21, 35.01 21.97, 34.66 22.9 C34.3 23.83, 33.86 24.74, 33.34 25.6 C32.82 26.45, 32.22 27.28, 31.56 28.03 C30.89 28.79, 30.15 29.5, 29.35 30.14 C28.56 30.77, 27.7 31.35, 26.8 31.84 C25.91 32.34, 24.95 32.76, 23.98 33.1 C23.01 33.44, 21.99 33.7, 20.97 33.87 C19.95 34.04, 18.9 34.13, 17.87 34.13 C16.83 34.13, 15.78 34.04, 14.77 33.87 C13.75 33.7, 12.73 33.44, 11.76 33.1 C10.78 32.76, 9.83 32.34, 8.93 31.84 C8.04 31.35, 7.17 30.77, 6.38 30.14 C5.59 29.5, 4.85 28.79, 4.18 28.03 C3.52 27.28, 2.91 26.45, 2.39 25.6 C1.88 24.74, 1.43 23.83, 1.08 22.9 C0.72 21.97, 0.45 21, 0.27 20.03 C0.09 19.06, 0 18.05, 0 17.07 C0 16.08, 0.09 15.07, 0.27 14.1 C0.45 13.13, 0.72 12.16, 1.08 11.23 C1.43 10.3, 1.88 9.39, 2.39 8.53 C2.91 7.68, 3.52 6.85, 4.18 6.1 C4.85 5.34, 5.59 4.63, 6.38 3.99 C7.17 3.36, 8.04 2.78, 8.93 2.29 C9.83 1.79, 10.78 1.37, 11.76 1.03 C12.73 0.69, 13.75 0.43, 14.77 0.26 C15.78 0.09, 16.83 0, 17.87 0 C18.9 0, 19.95 0.09, 20.97 0.26 C21.99 0.43, 23.01 0.69, 23.98 1.03 C24.95 1.37, 25.91 1.79, 26.8 2.29 C27.7 2.78, 28.56 3.36, 29.35 3.99 C30.15 4.63, 30.89 5.34, 31.56 6.1 C32.22 6.85, 32.82 7.68, 33.34 8.53 C33.86 9.39, 34.3 10.3, 34.66 11.23 C35.01 12.16, 35.28 13.13, 35.46 14.1 C35.64 15.07, 35.69 16.57, 35.74 17.07 C35.78 17.56, 35.78 16.57, 35.74 17.07" stroke="#fff96a" stroke-width="4" fill="none"></path></g><g transform="translate(122.42011844687248 631.032793894547) rotate(0 3.3779296875 6.923076923076906)"><text x="3.3779296875" y="0" font-family="Cascadia, Segoe UI Emoji" font-size="11.538461538461533px" fill="#fff96a" text-anchor="middle" style="white-space: pre;" direction="ltr" dominant-baseline="text-before-edge">1</text></g><g stroke-linecap="round"><g transform="translate(104.64630996478064 682.2375392189737) rotate(0 -19.88504590510999 -148.05664938325538)"><path d="M0 0 C-6.63 -21.51, -39.65 -79.7, -39.77 -129.05 C-39.89 -178.41, -7.25 -268.27, -0.75 -296.11 M0 0 C-6.63 -21.51, -39.65 -79.7, -39.77 -129.05 C-39.89 -178.41, -7.25 -268.27, -0.75 -296.11" stroke="#fff96a" stroke-width="4" fill="none"></path></g><g transform="translate(104.64630996478064 682.2375392189737) rotate(0 -19.88504590510999 -148.05664938325538)"><path d="M1.25 -266.18 C0.65 -275.14, 0.05 -284.1, -0.75 -296.11 M1.25 -266.18 C0.5 -277.4, -0.25 -288.62, -0.75 -296.11" stroke="#fff96a" stroke-width="4" fill="none"></path></g><g transform="translate(104.64630996478064 682.2375392189737) rotate(0 -19.88504590510999 -148.05664938325538)"><path d="M-18.46 -271.9 C-13.16 -279.14, -7.86 -286.39, -0.75 -296.11 M-18.46 -271.9 C-11.82 -280.97, -5.18 -290.05, -0.75 -296.11" stroke="#fff96a" stroke-width="4" fill="none"></path></g></g><mask></mask><g transform="translate(153.3297583627168 626.0678182482017) rotate(0 105.46875 12)"><text x="0" y="0" font-family="Cascadia, Segoe UI Emoji" font-size="20px" fill="#fff96a" text-anchor="start" style="white-space: pre;" direction="ltr" dominant-baseline="text-before-edge">Group by Partition</text></g><g transform="translate(128.99257983869052 229.34358130819936) rotate(0 93.75 12)"><text x="0" y="0" font-family="Cascadia, Segoe UI Emoji" font-size="20px" fill="#1e1e1e" text-anchor="start" style="white-space: pre;" direction="ltr" dominant-baseline="text-before-edge">Partition_202603</text></g><g stroke-linecap="round" transform="translate(106.87122616371124 531.741925557968) rotate(0 208.51001830245735 38.14989642433187)"><path d="M0 0 L417.02 0 L417.02 76.3 L0 76.3" stroke="none" stroke-width="0" fill="#1971c2"></path><path d="M0 0 C140.26 0, 280.52 0, 417.02 0 M0 0 C93.42 0, 186.83 0, 417.02 0 M417.02 0 C417.02 26, 417.02 52, 417.02 76.3 M417.02 0 C417.02 17.12, 417.02 34.24, 417.02 76.3 M417.02 76.3 C324.65 76.3, 232.29 76.3, 0 76.3 M417.02 76.3 C272.93 76.3, 128.84 76.3, 0 76.3 M0 76.3 C0 56.72, 0 37.13, 0 0 M0 76.3 C0 47.17, 0 18.03, 0 0" stroke="#1e1e1e" stroke-width="1" fill="none"></path></g><g transform="translate(135.98908554732793 558.7863523925367) rotate(0 93.75 12)"><text x="0" y="0" font-family="Cascadia, Segoe UI Emoji" font-size="20px" fill="#1e1e1e" text-anchor="start" style="white-space: pre;" direction="ltr" dominant-baseline="text-before-edge">Partition_202604</text></g><g stroke-linecap="round" transform="translate(119.21894057644369 162.86492374923927) rotate(0 17.34359147774913 17)"><path d="M34.69 17 C34.69 17.98, 34.6 18.98, 34.42 19.95 C34.25 20.92, 33.98 21.89, 33.64 22.81 C33.3 23.74, 32.87 24.65, 32.36 25.5 C31.86 26.35, 31.27 27.17, 30.63 27.93 C29.98 28.68, 29.26 29.39, 28.49 30.02 C27.72 30.66, 26.88 31.23, 26.02 31.72 C25.15 32.21, 24.22 32.64, 23.28 32.97 C22.33 33.31, 21.34 33.57, 20.36 33.74 C19.37 33.91, 18.35 34, 17.34 34 C16.34 34, 15.32 33.91, 14.33 33.74 C13.34 33.57, 12.36 33.31, 11.41 32.97 C10.47 32.64, 9.54 32.21, 8.67 31.72 C7.8 31.23, 6.96 30.66, 6.2 30.02 C5.43 29.39, 4.7 28.68, 4.06 27.93 C3.41 27.17, 2.83 26.35, 2.32 25.5 C1.82 24.65, 1.39 23.74, 1.05 22.81 C0.7 21.89, 0.44 20.92, 0.26 19.95 C0.09 18.98, 0 17.98, 0 17 C0 16.02, 0.09 15.02, 0.26 14.05 C0.44 13.08, 0.7 12.11, 1.05 11.19 C1.39 10.26, 1.82 9.35, 2.32 8.5 C2.83 7.65, 3.41 6.83, 4.06 6.07 C4.7 5.32, 5.43 4.61, 6.2 3.98 C6.96 3.34, 7.8 2.77, 8.67 2.28 C9.54 1.79, 10.47 1.36, 11.41 1.03 C12.36 0.69, 13.34 0.43, 14.33 0.26 C15.32 0.09, 16.34 0, 17.34 0 C18.35 0, 19.37 0.09, 20.36 0.26 C21.34 0.43, 22.33 0.69, 23.28 1.03 C24.22 1.36, 25.15 1.79, 26.02 2.28 C26.88 2.77, 27.72 3.34, 28.49 3.98 C29.26 4.61, 29.98 5.32, 30.63 6.07 C31.27 6.83, 31.86 7.65, 32.36 8.5 C32.87 9.35, 33.3 10.26, 33.64 11.19 C33.98 12.11, 34.25 13.08, 34.42 14.05 C34.6 15.02, 34.64 16.51, 34.69 17 C34.73 17.49, 34.73 16.51, 34.69 17" stroke="#fff96a" stroke-width="4" fill="none"></path></g><g transform="translate(133.4208312226472 172.921031545991) rotate(0 3.3779296875 6.92307692307692)"><text x="3.3779296875" y="0" font-family="Cascadia, Segoe UI Emoji" font-size="11.538461538461533px" fill="#fff96a" text-anchor="middle" style="white-space: pre;" direction="ltr" dominant-baseline="text-before-edge">2</text></g><g transform="translate(529.0142749394972 42.01704718489469) rotate(0 5.859375 12)"><text x="0" y="0" font-family="Cascadia, Segoe UI Emoji" font-size="20px" fill="transparent" text-anchor="start" style="white-space: pre;" direction="ltr" dominant-baseline="text-before-edge">t</text></g><g transform="translate(165.88969555134736 167.84147795685772) rotate(0 77.92911609588077 12)"><text x="0" y="0" font-family="Cascadia, Segoe UI Emoji" font-size="20px" fill="#fff96a" text-anchor="start" style="white-space: pre;" direction="ltr" dominant-baseline="text-before-edge">Sort by key</text></g><g stroke-linecap="round" transform="translate(135.33417975269901 260.38430004038196) rotate(0 187.26263909400205 82.56150572032112)"><path d="M0 0 L374.53 0 L374.53 165.12 L0 165.12" stroke="none" stroke-width="0" fill="#4dabf7"></path><path d="M0 0 C138.16 0, 276.31 0, 374.53 0 M0 0 C92.29 0, 184.59 0, 374.53 0 M374.53 0 C374.53 46.01, 374.53 92.02, 374.53 165.12 M374.53 0 C374.53 43.6, 374.53 87.2, 374.53 165.12 M374.53 165.12 C262.21 165.12, 149.89 165.12, 0 165.12 M374.53 165.12 C282.53 165.12, 190.53 165.12, 0 165.12 M0 165.12 C0 123.68, 0 82.25, 0 0 M0 165.12 C0 115.32, 0 65.53, 0 0" stroke="#fff96a" stroke-width="1" fill="none"></path></g><g stroke-linecap="round" transform="translate(149.78814816708592 304.4343736453452) rotate(0 34.89809582589467 13.5)"><path d="M6.75 0 C24.37 0, 41.98 0, 63.05 0 C67.55 0, 69.8 2.25, 69.8 6.75 C69.8 9.66, 69.8 12.58, 69.8 20.25 C69.8 24.75, 67.55 27, 63.05 27 C49.05 27, 35.05 27, 6.75 27 C2.25 27, 0 24.75, 0 20.25 C0 17.44, 0 14.63, 0 6.75 C0 2.25, 2.25 0, 6.75 0" stroke="none" stroke-width="0" fill="#4dabf7"></path><path d="M6.75 0 C23.44 0, 40.13 0, 63.05 0 M6.75 0 C19.25 0, 31.76 0, 63.05 0 M63.05 0 C67.55 0, 69.8 2.25, 69.8 6.75 M63.05 0 C67.55 0, 69.8 2.25, 69.8 6.75 M69.8 6.75 C69.8 11.22, 69.8 15.69, 69.8 20.25 M69.8 6.75 C69.8 12.14, 69.8 17.53, 69.8 20.25 M69.8 20.25 C69.8 24.75, 67.55 27, 63.05 27 M69.8 20.25 C69.8 24.75, 67.55 27, 63.05 27 M63.05 27 C43.29 27, 23.53 27, 6.75 27 M63.05 27 C43.4 27, 23.76 27, 6.75 27 M6.75 27 C2.25 27, 0 24.75, 0 20.25 M6.75 27 C2.25 27, 0 24.75, 0 20.25 M0 20.25 C0 17.04, 0 13.82, 0 6.75 M0 20.25 C0 14.9, 0 9.55, 0 6.75 M0 6.75 C0 2.25, 2.25 0, 6.75 0 M0 6.75 C0 2.25, 2.25 0, 6.75 0" stroke="#fff96a" stroke-width="1" fill="none"></path></g><g transform="translate(180.5876111804806 309.54015784600335) rotate(0 4.0986328125 8.39421579934185)"><text x="4.0986328125" y="0" font-family="Cascadia, Segoe UI Emoji" font-size="13.99035966556977px" fill="#fff96a" text-anchor="middle" style="white-space: pre;" direction="ltr" dominant-baseline="text-before-edge">1</text></g><g stroke-linecap="round" transform="translate(230.57998977225753 304.4343736453452) rotate(0 34.89809582589467 13.5)"><path d="M6.75 0 C18.88 0, 31.02 0, 63.05 0 C67.55 0, 69.8 2.25, 69.8 6.75 C69.8 11.17, 69.8 15.59, 69.8 20.25 C69.8 24.75, 67.55 27, 63.05 27 C50.93 27, 38.81 27, 6.75 27 C2.25 27, 0 24.75, 0 20.25 C0 15.83, 0 11.41, 0 6.75 C0 2.25, 2.25 0, 6.75 0" stroke="none" stroke-width="0" fill="#4dabf7"></path><path d="M6.75 0 C28.19 0, 49.64 0, 63.05 0 M6.75 0 C23.24 0, 39.74 0, 63.05 0 M63.05 0 C67.55 0, 69.8 2.25, 69.8 6.75 M63.05 0 C67.55 0, 69.8 2.25, 69.8 6.75 M69.8 6.75 C69.8 10.68, 69.8 14.61, 69.8 20.25 M69.8 6.75 C69.8 11.03, 69.8 15.31, 69.8 20.25 M69.8 20.25 C69.8 24.75, 67.55 27, 63.05 27 M69.8 20.25 C69.8 24.75, 67.55 27, 63.05 27 M63.05 27 C41.38 27, 19.72 27, 6.75 27 M63.05 27 C46.1 27, 29.15 27, 6.75 27 M6.75 27 C2.25 27, 0 24.75, 0 20.25 M6.75 27 C2.25 27, 0 24.75, 0 20.25 M0 20.25 C0 17.38, 0 14.51, 0 6.75 M0 20.25 C0 15.72, 0 11.19, 0 6.75 M0 6.75 C0 2.25, 2.25 0, 6.75 0 M0 6.75 C0 2.25, 2.25 0, 6.75 0" stroke="#fff96a" stroke-width="1" fill="none"></path></g><g transform="translate(253.1821871606522 309.54015784600335) rotate(0 12.295898437500014 8.39421579934185)"><text x="12.2958984375" y="0" font-family="Cascadia, Segoe UI Emoji" font-size="13.99035966556977px" fill="#fff96a" text-anchor="middle" style="white-space: pre;" direction="ltr" dominant-baseline="text-before-edge">100</text></g><g stroke-linecap="round" transform="translate(149.78814816708592 344.27018401381173) rotate(0 34.89809582589467 13.5)"><path d="M6.75 0 C24.54 0, 42.34 0, 63.05 0 C67.55 0, 69.8 2.25, 69.8 6.75 C69.8 10.21, 69.8 13.67, 69.8 20.25 C69.8 24.75, 67.55 27, 63.05 27 C46.07 27, 29.09 27, 6.75 27 C2.25 27, 0 24.75, 0 20.25 C0 15.91, 0 11.57, 0 6.75 C0 2.25, 2.25 0, 6.75 0" stroke="none" stroke-width="0" fill="#4dabf7"></path><path d="M6.75 0 C28.14 0, 49.53 0, 63.05 0 M6.75 0 C26.46 0, 46.17 0, 63.05 0 M63.05 0 C67.55 0, 69.8 2.25, 69.8 6.75 M63.05 0 C67.55 0, 69.8 2.25, 69.8 6.75 M69.8 6.75 C69.8 11.6, 69.8 16.46, 69.8 20.25 M69.8 6.75 C69.8 11.74, 69.8 16.74, 69.8 20.25 M69.8 20.25 C69.8 24.75, 67.55 27, 63.05 27 M69.8 20.25 C69.8 24.75, 67.55 27, 63.05 27 M63.05 27 C51.05 27, 39.06 27, 6.75 27 M63.05 27 C43.71 27, 24.37 27, 6.75 27 M6.75 27 C2.25 27, 0 24.75, 0 20.25 M6.75 27 C2.25 27, 0 24.75, 0 20.25 M0 20.25 C0 15.79, 0 11.33, 0 6.75 M0 20.25 C0 15.53, 0 10.82, 0 6.75 M0 6.75 C0 2.25, 2.25 0, 6.75 0 M0 6.75 C0 2.25, 2.25 0, 6.75 0" stroke="#fff96a" stroke-width="1" fill="none"></path></g><g transform="translate(180.5876111804806 349.3759682144699) rotate(0 4.0986328125 8.39421579934185)"><text x="4.0986328125" y="0" font-family="Cascadia, Segoe UI Emoji" font-size="13.99035966556977px" fill="#fff96a" text-anchor="middle" style="white-space: pre;" direction="ltr" dominant-baseline="text-before-edge">2</text></g><g stroke-linecap="round" transform="translate(230.57998977225753 344.27018401381173) rotate(0 34.89809582589467 13.5)"><path d="M6.75 0 C24.3 0, 41.85 0, 63.05 0 C67.55 0, 69.8 2.25, 69.8 6.75 C69.8 11.26, 69.8 15.77, 69.8 20.25 C69.8 24.75, 67.55 27, 63.05 27 C49.85 27, 36.66 27, 6.75 27 C2.25 27, 0 24.75, 0 20.25 C0 17.04, 0 13.83, 0 6.75 C0 2.25, 2.25 0, 6.75 0" stroke="none" stroke-width="0" fill="#4dabf7"></path><path d="M6.75 0 C19.93 0, 33.12 0, 63.05 0 M6.75 0 C24.28 0, 41.81 0, 63.05 0 M63.05 0 C67.55 0, 69.8 2.25, 69.8 6.75 M63.05 0 C67.55 0, 69.8 2.25, 69.8 6.75 M69.8 6.75 C69.8 11.29, 69.8 15.84, 69.8 20.25 M69.8 6.75 C69.8 9.52, 69.8 12.28, 69.8 20.25 M69.8 20.25 C69.8 24.75, 67.55 27, 63.05 27 M69.8 20.25 C69.8 24.75, 67.55 27, 63.05 27 M63.05 27 C49.39 27, 35.74 27, 6.75 27 M63.05 27 C51.65 27, 40.25 27, 6.75 27 M6.75 27 C2.25 27, 0 24.75, 0 20.25 M6.75 27 C2.25 27, 0 24.75, 0 20.25 M0 20.25 C0 15.64, 0 11.03, 0 6.75 M0 20.25 C0 14.91, 0 9.56, 0 6.75 M0 6.75 C0 2.25, 2.25 0, 6.75 0 M0 6.75 C0 2.25, 2.25 0, 6.75 0" stroke="#fff96a" stroke-width="1" fill="none"></path></g><g transform="translate(253.1821871606522 349.3759682144699) rotate(0 12.295898437500014 8.39421579934185)"><text x="12.2958984375" y="0" font-family="Cascadia, Segoe UI Emoji" font-size="13.99035966556977px" fill="#fff96a" text-anchor="middle" style="white-space: pre;" direction="ltr" dominant-baseline="text-before-edge">100</text></g><g stroke-linecap="round" transform="translate(149.78814816708592 385.8171953629445) rotate(0 34.89809582589467 13.5)"><path d="M6.75 0 C27.04 0, 47.33 0, 63.05 0 C67.55 0, 69.8 2.25, 69.8 6.75 C69.8 11.79, 69.8 16.82, 69.8 20.25 C69.8 24.75, 67.55 27, 63.05 27 C42.28 27, 21.51 27, 6.75 27 C2.25 27, 0 24.75, 0 20.25 C0 16.82, 0 13.4, 0 6.75 C0 2.25, 2.25 0, 6.75 0" stroke="none" stroke-width="0" fill="#4dabf7"></path><path d="M6.75 0 C20.22 0, 33.68 0, 63.05 0 M6.75 0 C26.21 0, 45.67 0, 63.05 0 M63.05 0 C67.55 0, 69.8 2.25, 69.8 6.75 M63.05 0 C67.55 0, 69.8 2.25, 69.8 6.75 M69.8 6.75 C69.8 9.47, 69.8 12.19, 69.8 20.25 M69.8 6.75 C69.8 9.83, 69.8 12.91, 69.8 20.25 M69.8 20.25 C69.8 24.75, 67.55 27, 63.05 27 M69.8 20.25 C69.8 24.75, 67.55 27, 63.05 27 M63.05 27 C48.79 27, 34.54 27, 6.75 27 M63.05 27 C41.98 27, 20.92 27, 6.75 27 M6.75 27 C2.25 27, 0 24.75, 0 20.25 M6.75 27 C2.25 27, 0 24.75, 0 20.25 M0 20.25 C0 15.78, 0 11.31, 0 6.75 M0 20.25 C0 15.15, 0 10.04, 0 6.75 M0 6.75 C0 2.25, 2.25 0, 6.75 0 M0 6.75 C0 2.25, 2.25 0, 6.75 0" stroke="#fff96a" stroke-width="1" fill="none"></path></g><g transform="translate(180.5876111804806 390.92297956360267) rotate(0 4.0986328125 8.39421579934185)"><text x="4.0986328125" y="0" font-family="Cascadia, Segoe UI Emoji" font-size="13.99035966556977px" fill="#fff96a" text-anchor="middle" style="white-space: pre;" direction="ltr" dominant-baseline="text-before-edge">3</text></g><g stroke-linecap="round" transform="translate(230.57998977225753 385.8171953629445) rotate(0 34.89809582589467 13.5)"><path d="M6.75 0 C18.83 0, 30.91 0, 63.05 0 C67.55 0, 69.8 2.25, 69.8 6.75 C69.8 10.76, 69.8 14.77, 69.8 20.25 C69.8 24.75, 67.55 27, 63.05 27 C42.87 27, 22.69 27, 6.75 27 C2.25 27, 0 24.75, 0 20.25 C0 17.24, 0 14.22, 0 6.75 C0 2.25, 2.25 0, 6.75 0" stroke="none" stroke-width="0" fill="#4dabf7"></path><path d="M6.75 0 C22.2 0, 37.65 0, 63.05 0 M6.75 0 C29.16 0, 51.57 0, 63.05 0 M63.05 0 C67.55 0, 69.8 2.25, 69.8 6.75 M63.05 0 C67.55 0, 69.8 2.25, 69.8 6.75 M69.8 6.75 C69.8 10.14, 69.8 13.53, 69.8 20.25 M69.8 6.75 C69.8 10.49, 69.8 14.24, 69.8 20.25 M69.8 20.25 C69.8 24.75, 67.55 27, 63.05 27 M69.8 20.25 C69.8 24.75, 67.55 27, 63.05 27 M63.05 27 C46.2 27, 29.35 27, 6.75 27 M63.05 27 C46.54 27, 30.02 27, 6.75 27 M6.75 27 C2.25 27, 0 24.75, 0 20.25 M6.75 27 C2.25 27, 0 24.75, 0 20.25 M0 20.25 C0 17.5, 0 14.75, 0 6.75 M0 20.25 C0 17.49, 0 14.73, 0 6.75 M0 6.75 C0 2.25, 2.25 0, 6.75 0 M0 6.75 C0 2.25, 2.25 0, 6.75 0" stroke="#fff96a" stroke-width="1" fill="none"></path></g><g transform="translate(253.1821871606522 390.92297956360267) rotate(0 12.295898437500014 8.39421579934185)"><text x="12.2958984375" y="0" font-family="Cascadia, Segoe UI Emoji" font-size="13.99035966556977px" fill="#fff96a" text-anchor="middle" style="white-space: pre;" direction="ltr" dominant-baseline="text-before-edge">100</text></g><g transform="translate(152.5128147737763 266.5761276689723) rotate(0 74.15625 9.49531485133707)"><text x="0" y="0" font-family="Cascadia, Segoe UI Emoji" font-size="15.825524752228432px" fill="#fff96a" text-anchor="start" style="white-space: pre;" direction="ltr" dominant-baseline="text-before-edge">INSERT bacth - 1</text></g><g stroke-linecap="round" transform="translate(136.66228357606036 439.3725328396939) rotate(0 91.45660658537955 29)"><path d="M0 0 L182.91 0 L182.91 58 L0 58" stroke="none" stroke-width="0" fill="#4dabf7"></path><path d="M0 0 C47.11 0, 94.23 0, 182.91 0 M0 0 C67.76 0, 135.53 0, 182.91 0 M182.91 0 C182.91 11.67, 182.91 23.34, 182.91 58 M182.91 0 C182.91 18.92, 182.91 37.85, 182.91 58 M182.91 58 C141.31 58, 99.72 58, 0 58 M182.91 58 C127.89 58, 72.87 58, 0 58 M0 58 C0 41.16, 0 24.31, 0 0 M0 58 C0 40.98, 0 23.96, 0 0" stroke="#1e1e1e" stroke-width="1" fill="none"></path></g><g transform="translate(153.1188901614399 458.7725328396939) rotate(0 75.00000000000001 9.599999999999994)"><text x="75" y="0" font-family="Cascadia, Segoe UI Emoji" font-size="16px" fill="#1e1e1e" text-anchor="middle" style="white-space: pre;" direction="ltr" dominant-baseline="text-before-edge">Insert Batch - 2</text></g><g stroke-linecap="round" transform="translate(329.86259646454226 440.26171476132913) rotate(0 91.45660658537955 29)"><path d="M0 0 L182.91 0 L182.91 58 L0 58" stroke="none" stroke-width="0" fill="#4dabf7"></path><path d="M0 0 C48.96 0, 97.92 0, 182.91 0 M0 0 C45.64 0, 91.28 0, 182.91 0 M182.91 0 C182.91 18.13, 182.91 36.26, 182.91 58 M182.91 0 C182.91 16.13, 182.91 32.26, 182.91 58 M182.91 58 C110.79 58, 38.67 58, 0 58 M182.91 58 C122.73 58, 62.54 58, 0 58 M0 58 C0 44.87, 0 31.75, 0 0 M0 58 C0 41.04, 0 24.08, 0 0" stroke="#1e1e1e" stroke-width="1" fill="none"></path></g><g transform="translate(346.31920304992184 459.6617147613291) rotate(0 75 9.599999999999994)"><text x="75" y="0" font-family="Cascadia, Segoe UI Emoji" font-size="16px" fill="#1e1e1e" text-anchor="middle" style="white-space: pre;" direction="ltr" dominant-baseline="text-before-edge">Insert Batch - 3</text></g><g stroke-linecap="round" transform="translate(310.4134059378897 304.4343736453452) rotate(0 34.89809582589467 13.5)"><path d="M6.75 0 C18.69 0, 30.64 0, 63.05 0 C67.55 0, 69.8 2.25, 69.8 6.75 C69.8 10.82, 69.8 14.89, 69.8 20.25 C69.8 24.75, 67.55 27, 63.05 27 C44.9 27, 26.76 27, 6.75 27 C2.25 27, 0 24.75, 0 20.25 C0 15.63, 0 11.02, 0 6.75 C0 2.25, 2.25 0, 6.75 0" stroke="none" stroke-width="0" fill="#4dabf7"></path><path d="M6.75 0 C27.95 0, 49.16 0, 63.05 0 M6.75 0 C18.58 0, 30.4 0, 63.05 0 M63.05 0 C67.55 0, 69.8 2.25, 69.8 6.75 M63.05 0 C67.55 0, 69.8 2.25, 69.8 6.75 M69.8 6.75 C69.8 11.59, 69.8 16.43, 69.8 20.25 M69.8 6.75 C69.8 10.29, 69.8 13.82, 69.8 20.25 M69.8 20.25 C69.8 24.75, 67.55 27, 63.05 27 M69.8 20.25 C69.8 24.75, 67.55 27, 63.05 27 M63.05 27 C44.42 27, 25.8 27, 6.75 27 M63.05 27 C48.63 27, 34.22 27, 6.75 27 M6.75 27 C2.25 27, 0 24.75, 0 20.25 M6.75 27 C2.25 27, 0 24.75, 0 20.25 M0 20.25 C0 15.74, 0 11.23, 0 6.75 M0 20.25 C0 16.19, 0 12.12, 0 6.75 M0 6.75 C0 2.25, 2.25 0, 6.75 0 M0 6.75 C0 2.25, 2.25 0, 6.75 0" stroke="#fff96a" stroke-width="1" fill="none"></path></g><g transform="translate(337.11423613878435 309.54015784600335) rotate(0 8.197265625 8.39421579934185)"><text x="8.197265625" y="0" font-family="Cascadia, Segoe UI Emoji" font-size="13.99035966556977px" fill="#fff96a" text-anchor="middle" style="white-space: pre;" direction="ltr" dominant-baseline="text-before-edge">US</text></g><g stroke-linecap="round" transform="translate(310.4134059378897 344.27018401381173) rotate(0 34.89809582589467 13.5)"><path d="M6.75 0 C28.14 0, 49.54 0, 63.05 0 C67.55 0, 69.8 2.25, 69.8 6.75 C69.8 10.28, 69.8 13.8, 69.8 20.25 C69.8 24.75, 67.55 27, 63.05 27 C47.59 27, 32.13 27, 6.75 27 C2.25 27, 0 24.75, 0 20.25 C0 15.46, 0 10.67, 0 6.75 C0 2.25, 2.25 0, 6.75 0" stroke="none" stroke-width="0" fill="#4dabf7"></path><path d="M6.75 0 C20.2 0, 33.64 0, 63.05 0 M6.75 0 C19.24 0, 31.74 0, 63.05 0 M63.05 0 C67.55 0, 69.8 2.25, 69.8 6.75 M63.05 0 C67.55 0, 69.8 2.25, 69.8 6.75 M69.8 6.75 C69.8 10.53, 69.8 14.32, 69.8 20.25 M69.8 6.75 C69.8 11.05, 69.8 15.35, 69.8 20.25 M69.8 20.25 C69.8 24.75, 67.55 27, 63.05 27 M69.8 20.25 C69.8 24.75, 67.55 27, 63.05 27 M63.05 27 C40.55 27, 18.05 27, 6.75 27 M63.05 27 C47.17 27, 31.3 27, 6.75 27 M6.75 27 C2.25 27, 0 24.75, 0 20.25 M6.75 27 C2.25 27, 0 24.75, 0 20.25 M0 20.25 C0 15.97, 0 11.68, 0 6.75 M0 20.25 C0 16.48, 0 12.72, 0 6.75 M0 6.75 C0 2.25, 2.25 0, 6.75 0 M0 6.75 C0 2.25, 2.25 0, 6.75 0" stroke="#fff96a" stroke-width="1" fill="none"></path></g><g transform="translate(337.11423613878435 349.3759682144699) rotate(0 8.197265625 8.39421579934185)"><text x="8.197265625" y="0" font-family="Cascadia, Segoe UI Emoji" font-size="13.99035966556977px" fill="#fff96a" text-anchor="middle" style="white-space: pre;" direction="ltr" dominant-baseline="text-before-edge">CN</text></g><g stroke-linecap="round" transform="translate(310.4134059378897 385.8171953629445) rotate(0 34.89809582589467 13.5)"><path d="M6.75 0 C28.7 0, 50.64 0, 63.05 0 C67.55 0, 69.8 2.25, 69.8 6.75 C69.8 10.34, 69.8 13.92, 69.8 20.25 C69.8 24.75, 67.55 27, 63.05 27 C47.69 27, 32.32 27, 6.75 27 C2.25 27, 0 24.75, 0 20.25 C0 15.99, 0 11.73, 0 6.75 C0 2.25, 2.25 0, 6.75 0" stroke="none" stroke-width="0" fill="#4dabf7"></path><path d="M6.75 0 C19.43 0, 32.11 0, 63.05 0 M6.75 0 C27.35 0, 47.94 0, 63.05 0 M63.05 0 C67.55 0, 69.8 2.25, 69.8 6.75 M63.05 0 C67.55 0, 69.8 2.25, 69.8 6.75 M69.8 6.75 C69.8 9.67, 69.8 12.59, 69.8 20.25 M69.8 6.75 C69.8 10.26, 69.8 13.78, 69.8 20.25 M69.8 20.25 C69.8 24.75, 67.55 27, 63.05 27 M69.8 20.25 C69.8 24.75, 67.55 27, 63.05 27 M63.05 27 C45.25 27, 27.45 27, 6.75 27 M63.05 27 C48.08 27, 33.12 27, 6.75 27 M6.75 27 C2.25 27, 0 24.75, 0 20.25 M6.75 27 C2.25 27, 0 24.75, 0 20.25 M0 20.25 C0 14.99, 0 9.73, 0 6.75 M0 20.25 C0 14.86, 0 9.47, 0 6.75 M0 6.75 C0 2.25, 2.25 0, 6.75 0 M0 6.75 C0 2.25, 2.25 0, 6.75 0" stroke="#fff96a" stroke-width="1" fill="none"></path></g><g transform="translate(337.11423613878435 390.92297956360267) rotate(0 8.197265625 8.39421579934185)"><text x="8.197265625" y="0" font-family="Cascadia, Segoe UI Emoji" font-size="13.99035966556977px" fill="#fff96a" text-anchor="middle" style="white-space: pre;" direction="ltr" dominant-baseline="text-before-edge">UK</text></g><g stroke-linecap="round" transform="translate(392.18306968792456 304.4343736453452) rotate(0 34.89809582589467 13.5)"><path d="M6.75 0 C29.07 0, 51.38 0, 63.05 0 C67.55 0, 69.8 2.25, 69.8 6.75 C69.8 10.08, 69.8 13.41, 69.8 20.25 C69.8 24.75, 67.55 27, 63.05 27 C46.55 27, 30.06 27, 6.75 27 C2.25 27, 0 24.75, 0 20.25 C0 17.15, 0 14.05, 0 6.75 C0 2.25, 2.25 0, 6.75 0" stroke="none" stroke-width="0" fill="#4dabf7"></path><path d="M6.75 0 C25.57 0, 44.39 0, 63.05 0 M6.75 0 C19.44 0, 32.14 0, 63.05 0 M63.05 0 C67.55 0, 69.8 2.25, 69.8 6.75 M63.05 0 C67.55 0, 69.8 2.25, 69.8 6.75 M69.8 6.75 C69.8 10.77, 69.8 14.79, 69.8 20.25 M69.8 6.75 C69.8 12.07, 69.8 17.39, 69.8 20.25 M69.8 20.25 C69.8 24.75, 67.55 27, 63.05 27 M69.8 20.25 C69.8 24.75, 67.55 27, 63.05 27 M63.05 27 C43.95 27, 24.86 27, 6.75 27 M63.05 27 C42.06 27, 21.07 27, 6.75 27 M6.75 27 C2.25 27, 0 24.75, 0 20.25 M6.75 27 C2.25 27, 0 24.75, 0 20.25 M0 20.25 C0 16.72, 0 13.19, 0 6.75 M0 20.25 C0 16.79, 0 13.34, 0 6.75 M0 6.75 C0 2.25, 2.25 0, 6.75 0 M0 6.75 C0 2.25, 2.25 0, 6.75 0" stroke="#fff96a" stroke-width="1" fill="none"></path></g><g transform="translate(410.6866342638192 309.54015784600335) rotate(0 16.39453125 8.39421579934185)"><text x="16.39453125" y="0" font-family="Cascadia, Segoe UI Emoji" font-size="13.99035966556977px" fill="#fff96a" text-anchor="middle" style="white-space: pre;" direction="ltr" dominant-baseline="text-before-edge">John</text></g><g stroke-linecap="round" transform="translate(392.18306968792456 344.27018401381173) rotate(0 34.89809582589467 13.5)"><path d="M6.75 0 C28.36 0, 49.97 0, 63.05 0 C67.55 0, 69.8 2.25, 69.8 6.75 C69.8 9.88, 69.8 13.02, 69.8 20.25 C69.8 24.75, 67.55 27, 63.05 27 C49.74 27, 36.44 27, 6.75 27 C2.25 27, 0 24.75, 0 20.25 C0 15.98, 0 11.71, 0 6.75 C0 2.25, 2.25 0, 6.75 0" stroke="none" stroke-width="0" fill="#4dabf7"></path><path d="M6.75 0 C26.19 0, 45.64 0, 63.05 0 M6.75 0 C24.9 0, 43.05 0, 63.05 0 M63.05 0 C67.55 0, 69.8 2.25, 69.8 6.75 M63.05 0 C67.55 0, 69.8 2.25, 69.8 6.75 M69.8 6.75 C69.8 10.83, 69.8 14.92, 69.8 20.25 M69.8 6.75 C69.8 11.62, 69.8 16.5, 69.8 20.25 M69.8 20.25 C69.8 24.75, 67.55 27, 63.05 27 M69.8 20.25 C69.8 24.75, 67.55 27, 63.05 27 M63.05 27 C45.7 27, 28.35 27, 6.75 27 M63.05 27 C48.82 27, 34.59 27, 6.75 27 M6.75 27 C2.25 27, 0 24.75, 0 20.25 M6.75 27 C2.25 27, 0 24.75, 0 20.25 M0 20.25 C0 17.16, 0 14.08, 0 6.75 M0 20.25 C0 17.33, 0 14.41, 0 6.75 M0 6.75 C0 2.25, 2.25 0, 6.75 0 M0 6.75 C0 2.25, 2.25 0, 6.75 0" stroke="#fff96a" stroke-width="1" fill="none"></path></g><g transform="translate(410.6866342638192 349.3759682144699) rotate(0 16.39453125 8.39421579934185)"><text x="16.39453125" y="0" font-family="Cascadia, Segoe UI Emoji" font-size="13.99035966556977px" fill="#fff96a" text-anchor="middle" style="white-space: pre;" direction="ltr" dominant-baseline="text-before-edge">Wang</text></g><g stroke-linecap="round" transform="translate(392.18306968792456 385.8171953629445) rotate(0 34.89809582589467 13.5)"><path d="M6.75 0 C20.32 0, 33.89 0, 63.05 0 C67.55 0, 69.8 2.25, 69.8 6.75 C69.8 12.13, 69.8 17.51, 69.8 20.25 C69.8 24.75, 67.55 27, 63.05 27 C51.5 27, 39.95 27, 6.75 27 C2.25 27, 0 24.75, 0 20.25 C0 15.26, 0 10.27, 0 6.75 C0 2.25, 2.25 0, 6.75 0" stroke="none" stroke-width="0" fill="#4dabf7"></path><path d="M6.75 0 C20.81 0, 34.88 0, 63.05 0 M6.75 0 C26.24 0, 45.72 0, 63.05 0 M63.05 0 C67.55 0, 69.8 2.25, 69.8 6.75 M63.05 0 C67.55 0, 69.8 2.25, 69.8 6.75 M69.8 6.75 C69.8 9.96, 69.8 13.16, 69.8 20.25 M69.8 6.75 C69.8 10.63, 69.8 14.5, 69.8 20.25 M69.8 20.25 C69.8 24.75, 67.55 27, 63.05 27 M69.8 20.25 C69.8 24.75, 67.55 27, 63.05 27 M63.05 27 C43.38 27, 23.72 27, 6.75 27 M63.05 27 C43.65 27, 24.25 27, 6.75 27 M6.75 27 C2.25 27, 0 24.75, 0 20.25 M6.75 27 C2.25 27, 0 24.75, 0 20.25 M0 20.25 C0 16.68, 0 13.12, 0 6.75 M0 20.25 C0 16.05, 0 11.84, 0 6.75 M0 6.75 C0 2.25, 2.25 0, 6.75 0 M0 6.75 C0 2.25, 2.25 0, 6.75 0" stroke="#fff96a" stroke-width="1" fill="none"></path></g><g transform="translate(406.5880014513192 390.92297956360267) rotate(0 20.4931640625 8.39421579934185)"><text x="20.4931640625" y="0" font-family="Cascadia, Segoe UI Emoji" font-size="13.99035966556977px" fill="#fff96a" text-anchor="middle" style="white-space: pre;" direction="ltr" dominant-baseline="text-before-edge">Harry</text></g><g stroke-linecap="round"><g transform="translate(515.3594579407031 335.2213038366443) rotate(0 26.53795503484062 -37.35103407863568)"><path d="M0 0 C15.06 -21.19, 30.11 -42.38, 53.08 -74.7 M0 0 C17.33 -24.39, 34.66 -48.78, 53.08 -74.7" stroke="#fff96a" stroke-width="4" fill="none"></path></g><g transform="translate(515.3594579407031 335.2213038366443) rotate(0 26.53795503484062 -37.35103407863568)"><path d="M45.11 -45.78 C47.37 -53.98, 49.63 -62.19, 53.08 -74.7 M45.11 -45.78 C47.71 -55.22, 50.31 -64.66, 53.08 -74.7" stroke="#fff96a" stroke-width="4" fill="none"></path></g><g transform="translate(515.3594579407031 335.2213038366443) rotate(0 26.53795503484062 -37.35103407863568)"><path d="M28.38 -57.66 C35.39 -62.5, 42.39 -67.33, 53.08 -74.7 M28.38 -57.66 C36.44 -63.23, 44.51 -68.79, 53.08 -74.7" stroke="#fff96a" stroke-width="4" fill="none"></path></g></g><mask></mask><g stroke-linecap="round" transform="translate(536.8003406530884 165.17678417396814) rotate(0 17.343591477749158 17)"><path d="M34.69 17 C34.69 17.98, 34.6 18.98, 34.42 19.95 C34.25 20.92, 33.98 21.89, 33.64 22.81 C33.3 23.74, 32.87 24.65, 32.36 25.5 C31.86 26.35, 31.27 27.17, 30.63 27.93 C29.98 28.68, 29.26 29.39, 28.49 30.02 C27.72 30.66, 26.88 31.23, 26.02 31.72 C25.15 32.21, 24.22 32.64, 23.28 32.97 C22.33 33.31, 21.34 33.57, 20.36 33.74 C19.37 33.91, 18.35 34, 17.34 34 C16.34 34, 15.32 33.91, 14.33 33.74 C13.34 33.57, 12.36 33.31, 11.41 32.97 C10.47 32.64, 9.54 32.21, 8.67 31.72 C7.8 31.23, 6.96 30.66, 6.2 30.02 C5.43 29.39, 4.7 28.68, 4.06 27.93 C3.41 27.17, 2.83 26.35, 2.32 25.5 C1.82 24.65, 1.39 23.74, 1.05 22.81 C0.7 21.89, 0.44 20.92, 0.26 19.95 C0.09 18.98, 0 17.98, 0 17 C0 16.02, 0.09 15.02, 0.26 14.05 C0.44 13.08, 0.7 12.11, 1.05 11.19 C1.39 10.26, 1.82 9.35, 2.32 8.5 C2.83 7.65, 3.41 6.83, 4.06 6.07 C4.7 5.32, 5.43 4.61, 6.2 3.98 C6.96 3.34, 7.8 2.77, 8.67 2.28 C9.54 1.79, 10.47 1.36, 11.41 1.03 C12.36 0.69, 13.34 0.43, 14.33 0.26 C15.32 0.09, 16.34 0, 17.34 0 C18.35 0, 19.37 0.09, 20.36 0.26 C21.34 0.43, 22.33 0.69, 23.28 1.03 C24.22 1.36, 25.15 1.79, 26.02 2.28 C26.88 2.77, 27.72 3.34, 28.49 3.98 C29.26 4.61, 29.98 5.32, 30.63 6.07 C31.27 6.83, 31.86 7.65, 32.36 8.5 C32.87 9.35, 33.3 10.26, 33.64 11.19 C33.98 12.11, 34.25 13.08, 34.42 14.05 C34.6 15.02, 34.64 16.51, 34.69 17 C34.73 17.49, 34.73 16.51, 34.69 17" stroke="#fff96a" stroke-width="4" fill="none"></path></g><g transform="translate(551.0022312992919 175.2328919707199) rotate(0 3.3779296875 6.92307692307692)"><text x="3.3779296875" y="0" font-family="Cascadia, Segoe UI Emoji" font-size="11.538461538461533px" fill="#fff96a" text-anchor="middle" style="white-space: pre;" direction="ltr" dominant-baseline="text-before-edge">3</text></g><g transform="translate(583.4710956279921 170.42261029079054) rotate(0 77.92911609588077 12)"><text x="0" y="0" font-family="Cascadia, Segoe UI Emoji" font-size="20px" fill="#fff96a" text-anchor="start" style="white-space: pre;" direction="ltr" dominant-baseline="text-before-edge">Organize part</text></g></svg>