<svg version="1.1" xmlns="http://www.w3.org/2000/svg" viewBox="0 0 1620 940" width="1620" height="940">
  <!-- svg-source:excalidraw -->
  
  <defs>
    <style class="style-fonts">
      @font-face {
        font-family: "Virgil";
        src: url("https://unpkg.com/@excalidraw/excalidraw@undefined/dist/excalidraw-assets/Virgil.woff2");
      }
      @font-face {
        font-family: "Cascadia";
        src: url("https://unpkg.com/@excalidraw/excalidraw@undefined/dist/excalidraw-assets/Cascadia.woff2");
      }
      @font-face {
        font-family: "Assistant";
        src: url("https://unpkg.com/@excalidraw/excalidraw@undefined/dist/excalidraw-assets/Assistant-Regular.woff2");
      }
    </style>
    
  </defs>
  <rect x="0" y="0" width="1620" height="940" fill="#ffffff"></rect><g stroke-linecap="round" transform="translate(9.999999999999943 10) rotate(0 800 460)"><path d="M0 0 L1600 0 L1600 920 L0 920" stroke="none" stroke-width="0" fill="#1e1d19"></path><path d="M0 0 C622.45 0, 1244.91 0, 1600 0 M0 0 C498.42 0, 996.84 0, 1600 0 M1600 0 C1600 361.32, 1600 722.65, 1600 920 M1600 0 C1600 298.54, 1600 597.07, 1600 920 M1600 920 C1278.4 920, 956.8 920, 0 920 M1600 920 C1163.2 920, 726.41 920, 0 920 M0 920 C0 707.2, 0 494.4, 0 0 M0 920 C0 677.68, 0 435.36, 0 0" stroke="#1e1d19" stroke-width="1" fill="none"></path></g><g stroke-linecap="round"><g transform="translate(183.02678571428532 148.6360809948976) rotate(0 0 367.1856306393462)"><path d="M0 0 C0 285.71, 0 571.43, 0 734.37" stroke="#8f8f8f" stroke-width="2.5" fill="none" stroke-dasharray="1.5 8"></path></g></g><mask></mask><g transform="translate(140.93176020408123 89.94937818877514) rotate(0 98.4375 17.5)"><text x="0" y="0" font-family="Cascadia, Segoe UI Emoji" font-size="28px" fill="#fff96a" text-anchor="start" style="white-space: pre;" direction="ltr" dominant-baseline="text-before-edge">Table/orders</text></g><g transform="translate(148.5888073979587 123.05157844387719) rotate(0 174.0234375 11.25)"><text x="0" y="0" font-family="Cascadia, Segoe UI Emoji" font-size="18px" fill="#bdbdb2" text-anchor="start" style="white-space: pre;" direction="ltr" dominant-baseline="text-before-edge">schema / partition_key / sort_key</text></g><g stroke-linecap="round"><g transform="translate(183.02678571428532 238.6360809948976) rotate(0 22.667881867665017 0)"><path d="M0 0 C17.64 0, 35.28 0, 45.34 0" stroke="#8f8f8f" stroke-width="2.5" fill="none" stroke-dasharray="1.5 8"></path></g></g><mask></mask><g stroke-linecap="round" transform="translate(230.23485331632617 205.0792410714282) rotate(0 150 36)"><path d="M0 0 L300 0 L300 72 L0 72" stroke="none" stroke-width="0" fill="#fff96a"></path><path d="M0 0 C116.73 0, 233.46 0, 300 0 M0 0 C95.83 0, 191.66 0, 300 0 M300 0 C300 20.49, 300 40.98, 300 72 M300 0 C300 27.25, 300 54.5, 300 72 M300 72 C221.35 72, 142.69 72, 0 72 M300 72 C226.28 72, 152.56 72, 0 72 M0 72 C0 57.53, 0 43.07, 0 0 M0 72 C0 44.3, 0 16.6, 0 0" stroke="#8a8b48" stroke-width="2" fill="none"></path></g><g transform="translate(260.38329081632617 225.56672512755063) rotate(0 119.53125 15)"><text x="119.53125" y="0" font-family="Cascadia, Segoe UI Emoji" font-size="24px" fill="#111111" text-anchor="middle" style="white-space: pre;" direction="ltr" dominant-baseline="text-before-edge">Partition_202603/</text></g><g stroke-linecap="round"><g transform="translate(286.9486607142853 350.0813934948976) rotate(0 15.2890625 0.369140625)"><path d="M0 0 C11.9 0.29, 23.8 0.57, 30.58 0.74" stroke="#8f8f8f" stroke-width="2.5" fill="none" stroke-dasharray="1.5 8"></path></g></g><mask></mask><g stroke-linecap="round" transform="translate(327.2963169642853 310.8196747448976) rotate(0 150 42)"><path d="M0 0 L300 0 L300 84 L0 84" stroke="none" stroke-width="0" fill="#fff96a"></path><path d="M0 0 C116.74 0, 233.47 0, 300 0 M0 0 C105.42 0, 210.83 0, 300 0 M300 0 C300 24.81, 300 49.63, 300 84 M300 0 C300 19.33, 300 38.66, 300 84 M300 84 C230.62 84, 161.25 84, 0 84 M300 84 C212.65 84, 125.29 84, 0 84 M0 84 C0 63.42, 0 42.83, 0 0 M0 84 C0 59.32, 0 34.64, 0 0" stroke="#fff96a" stroke-width="2" fill="none"></path></g><g transform="translate(345.7767857142853 324.3548309948976) rotate(0 129.470703125 27.5)"><text x="129.47070312500003" y="0" font-family="Cascadia, Segoe UI Emoji" font-size="22px" fill="#111111" text-anchor="middle" style="white-space: pre;" direction="ltr" dominant-baseline="text-before-edge">Part_1/</text><text x="129.47070312500003" y="27.5" font-family="Cascadia, Segoe UI Emoji" font-size="22px" fill="#111111" text-anchor="middle" style="white-space: pre;" direction="ltr" dominant-baseline="text-before-edge">rows 已按 key 排序</text></g><g stroke-linecap="round"><g transform="translate(409.65306122448953 405.8959661989793) rotate(0 0 186.87958790975438)"><path d="M0 0 C0 145.45, 0 290.89, 0 373.76" stroke="#8f8f8f" stroke-width="2.5" fill="none" stroke-dasharray="1.5 8"></path></g></g><mask></mask><g stroke-linecap="round"><g transform="translate(409.65306122448953 443.8959661989793) rotate(0 35 0)"><path d="M0 0 C27.24 0, 54.48 0, 70 0" stroke="#8f8f8f" stroke-width="2.5" fill="none" stroke-dasharray="1.5 8"></path></g></g><mask></mask><g stroke-linecap="round" transform="translate(489.65306122448953 411.8959661989793) rotate(0 125 32)"><path d="M0 0 L250 0 L250 64 L0 64" stroke="none" stroke-width="0" fill="#fff96a"></path><path d="M0 0 C97.29 0, 194.58 0, 250 0 M0 0 C67.83 0, 135.66 0, 250 0 M250 0 C250 15.79, 250 31.58, 250 64 M250 0 C250 24.51, 250 49.02, 250 64 M250 64 C188.4 64, 126.81 64, 0 64 M250 64 C174.93 64, 99.86 64, 0 64 M0 64 C0 47.88, 0 31.75, 0 0 M0 64 C0 50.62, 0 37.24, 0 0" stroke="#8a8b48" stroke-width="2" fill="none"></path></g><g transform="translate(537.1725924744895 428.8387276785711) rotate(0 80.3782286352041 13.75)"><text x="80.3782286352041" y="0" font-family="Cascadia, Segoe UI Emoji" font-size="22px" fill="#111111" text-anchor="middle" style="white-space: pre;" direction="ltr" dominant-baseline="text-before-edge">primary.mrk</text></g><g stroke-linecap="round"><g transform="translate(409.65306122448953 523.8959661989793) rotate(0 35 0)"><path d="M0 0 C27.24 0, 54.49 0, 70 0" stroke="#8f8f8f" stroke-width="2.5" fill="none" stroke-dasharray="1.5 8"></path></g></g><mask></mask><g stroke-linecap="round" transform="translate(489.65306122448953 491.6607940051017) rotate(0 125 32)"><path d="M0 0 L250 0 L250 64 L0 64" stroke="none" stroke-width="0" fill="#fff96a"></path><path d="M0 0 C97.3 0, 194.6 0, 250 0 M0 0 C75.82 0, 151.64 0, 250 0 M250 0 C250 16.48, 250 32.97, 250 64 M250 0 C250 15.02, 250 30.03, 250 64 M250 64 C196.13 64, 142.27 64, 0 64 M250 64 C163.57 64, 77.14 64, 0 64 M0 64 C0 45.05, 0 26.1, 0 0 M0 64 C0 43.64, 0 23.28, 0 0" stroke="#fff96a" stroke-width="2" fill="none"></path></g><g transform="translate(574.6530612244895 509.8959661989793) rotate(0 40 14)"><text x="40" y="0" font-family="Cascadia, Segoe UI Emoji" font-size="22px" fill="#111111" text-anchor="middle" style="white-space: pre;" direction="ltr" dominant-baseline="text-before-edge">id.bin</text></g><g stroke-linecap="round"><g transform="translate(409.65306122448953 603.8959661989793) rotate(0 35 0)"><path d="M0 0 C27.24 0, 54.49 0, 70 0" stroke="#8f8f8f" stroke-width="2.5" fill="none" stroke-dasharray="1.5 8"></path></g></g><mask></mask><g stroke-linecap="round" transform="translate(489.65306122448953 571.6607940051018) rotate(0 125 32)"><path d="M0 0 L250 0 L250 64 L0 64" stroke="none" stroke-width="0" fill="#fff96a"></path><path d="M0 0 C97.31 0, 194.61 0, 250 0 M0 0 C83.81 0, 167.63 0, 250 0 M250 0 C250 17.17, 250 34.35, 250 64 M250 0 C250 18.32, 250 36.65, 250 64 M250 64 C153.86 64, 57.73 64, 0 64 M250 64 C152.2 64, 54.41 64, 0 64 M0 64 C0 42.23, 0 20.46, 0 0 M0 64 C0 49.45, 0 34.91, 0 0" stroke="#8a8b48" stroke-width="2" fill="none"></path></g><g transform="translate(548.8718112244895 589.8959661989793) rotate(0 64.453125 13.75)"><text x="64.453125" y="0" font-family="Cascadia, Segoe UI Emoji" font-size="22px" fill="#111111" text-anchor="middle" style="white-space: pre;" direction="ltr" dominant-baseline="text-before-edge">amount.bin</text></g><g stroke-linecap="round"><g transform="translate(409.65306122448953 777.0404974489793) rotate(0 35 0)"><path d="M0 0 C27.25 0, 54.49 0, 70 0" stroke="#8f8f8f" stroke-width="2.5" fill="none" stroke-dasharray="1.5 8"></path></g></g><mask></mask><g stroke-linecap="round" transform="translate(489.65306122448953 733.0404974489793) rotate(0 124.97727997448976 34.055006377551024)"><path d="M0 0 L249.95 0 L249.95 68.11 L0 68.11" stroke="none" stroke-width="0" fill="#fff96a"></path><path d="M0 0 C97.29 0, 194.59 0, 249.95 0 M0 0 C91.79 0, 183.57 0, 249.95 0 M249.95 0 C249.95 19.01, 249.95 38.03, 249.95 68.11 M249.95 0 C249.95 23.02, 249.95 46.04, 249.95 68.11 M249.95 68.11 C161.57 68.11, 73.18 68.11, 0 68.11 M249.95 68.11 C190.81 68.11, 131.66 68.11, 0 68.11 M0 68.11 C0 41.93, 0 15.76, 0 0 M0 68.11 C0 45.2, 0 22.28, 0 0" stroke="#8a8b48" stroke-width="2" fill="none"></path></g><g transform="translate(499.98745478416004 755.2720822704081) rotate(0 113.4673357338234 13.879145408163197)"><text x="113.46733573382339" y="0" font-family="Cascadia, Segoe UI Emoji" font-size="22.206632653061085px" fill="#111111" text-anchor="middle" style="white-space: pre;" direction="ltr" dominant-baseline="text-before-edge">amount_minmax.mrk</text></g><g stroke-linecap="round" transform="translate(833.7028061224487 381.2450573979589) rotate(0 304.11391900510216 43.62205038265304)"><path d="M0 0 L608.23 0 L608.23 87.24 L0 87.24" stroke="none" stroke-width="0" fill="#1f2937"></path><path d="M0 0 C236.78 0, 473.56 0, 608.23 0 M0 0 C174.65 0, 349.31 0, 608.23 0 M608.23 0 C608.23 20.11, 608.23 40.22, 608.23 87.24 M608.23 0 C608.23 25.37, 608.23 50.75, 608.23 87.24 M608.23 87.24 C383.95 87.24, 159.66 87.24, 0 87.24 M608.23 87.24 C458.77 87.24, 309.3 87.24, 0 87.24 M0 87.24 C0 53.12, 0 18.99, 0 0 M0 87.24 C0 65.29, 0 43.34, 0 0" stroke="#1f2937" stroke-width="1" fill="none"></path></g><g transform="translate(855.611288265306 393.95958227040785) rotate(0 264.2578125 27.5)"><text x="0" y="0" font-family="Cascadia, Segoe UI Emoji" font-size="22px" fill="#3ce1db" text-anchor="start" style="white-space: pre;" direction="ltr" dominant-baseline="text-before-edge">primary.mrk</text><text x="0" y="27.5" font-family="Cascadia, Segoe UI Emoji" font-size="22px" fill="#3ce1db" text-anchor="start" style="white-space: pre;" direction="ltr" dominant-baseline="text-before-edge">Granule ID → Chunk Offset, Granule Offset</text></g><g stroke-linecap="round"><g transform="translate(281.7689732142853 281.4212372448976) rotate(0 0 255.66789307557076)"><path d="M0 0 C0 146.35, 0 292.7, 0 511.34" stroke="#8f8f8f" stroke-width="2.5" fill="none" stroke-dasharray="1.5 8"></path></g></g><mask></mask><g stroke-linecap="round" transform="translate(226.88774077614602 820.3172912531819) rotate(0 150.00000000000003 36)"><path d="M0 0 L300 0 L300 72 L0 72" stroke="none" stroke-width="0" fill="#8a8b48"></path><path d="M0 0 C60.34 0, 120.69 0, 300 0 M0 0 C69.3 0, 138.6 0, 300 0 M300 0 C300 16.39, 300 32.78, 300 72 M300 0 C300 22.82, 300 45.64, 300 72 M300 72 C230.58 72, 161.17 72, 0 72 M300 72 C186.33 72, 72.67 72, 0 72 M0 72 C0 56.96, 0 41.92, 0 0 M0 72 C0 51.06, 0 30.13, 0 0" stroke="#8a8b48" stroke-width="2" fill="none"></path></g><g transform="translate(257.036178276146 841.0399475031819) rotate(0 119.53125 15)"><text x="119.53125" y="0" font-family="Cascadia, Segoe UI Emoji" font-size="24px" fill="#111111" text-anchor="middle" style="white-space: pre;" direction="ltr" dominant-baseline="text-before-edge">Partition_202603/</text></g><g stroke-linecap="round"><g transform="translate(183.38663186766462 858.7048869164472) rotate(0 22.667881867665017 0)"><path d="M0 0 C11.37 0, 22.75 0, 45.34 0" stroke="#8f8f8f" stroke-width="2.5" fill="none" stroke-dasharray="1.5 8"></path></g></g><mask></mask><g stroke-linecap="round" transform="translate(833.7028061224487 482.42180337052923) rotate(0 304.11391900510216 67.32461734693874)"><path d="M0 0 L608.23 0 L608.23 134.65 L0 134.65" stroke="none" stroke-width="0" fill="#1f2937"></path><path d="M0 0 C150.54 0, 301.08 0, 608.23 0 M0 0 C129.53 0, 259.06 0, 608.23 0 M608.23 0 C608.23 28.11, 608.23 56.21, 608.23 134.65 M608.23 0 C608.23 51.06, 608.23 102.12, 608.23 134.65 M608.23 134.65 C479.81 134.65, 351.39 134.65, 0 134.65 M608.23 134.65 C367.34 134.65, 126.45 134.65, 0 134.65 M0 134.65 C0 104.65, 0 74.66, 0 0 M0 134.65 C0 102.26, 0 69.86, 0 0" stroke="#1f2937" stroke-width="1" fill="none"></path></g><g transform="translate(852.1263552295916 496.60739010522263) rotate(0 285.46117665816325 55)"><text x="0" y="0" font-family="Cascadia, Segoe UI Emoji" font-size="22px" fill="#3ce1db" text-anchor="start" style="white-space: pre;" direction="ltr" dominant-baseline="text-before-edge">id.bin</text><text x="0" y="27.5" font-family="Cascadia, Segoe UI Emoji" font-size="22px" fill="#3ce1db" text-anchor="start" style="white-space: pre;" direction="ltr" dominant-baseline="text-before-edge">Chunk0{G0...G99}, Chunk1{G100...G199},</text><text x="0" y="55" font-family="Cascadia, Segoe UI Emoji" font-size="22px" fill="#3ce1db" text-anchor="start" style="white-space: pre;" direction="ltr" dominant-baseline="text-before-edge">...</text><text x="0" y="82.5" font-family="Cascadia, Segoe UI Emoji" font-size="22px" fill="#3ce1db" text-anchor="start" style="white-space: pre;" direction="ltr" dominant-baseline="text-before-edge">ChunkN</text></g><g stroke-linecap="round" transform="translate(834.1637436224487 793.709829518488) rotate(0 304.11391900510216 43.62205038265307)"><path d="M0 0 L608.23 0 L608.23 87.24 L0 87.24" stroke="none" stroke-width="0" fill="#1f2937"></path><path d="M0 0 C216.43 0, 432.86 0, 608.23 0 M0 0 C221.95 0, 443.9 0, 608.23 0 M608.23 0 C608.23 33.42, 608.23 66.84, 608.23 87.24 M608.23 0 C608.23 27.46, 608.23 54.92, 608.23 87.24 M608.23 87.24 C475.84 87.24, 343.46 87.24, 0 87.24 M608.23 87.24 C473.62 87.24, 339.01 87.24, 0 87.24 M0 87.24 C0 67.45, 0 47.66, 0 0 M0 87.24 C0 63.26, 0 39.28, 0 0" stroke="#1f2937" stroke-width="1" fill="none"></path></g><g transform="translate(856.072225765306 806.4243543909371) rotate(0 135.3515625 27.5)"><text x="0" y="0" font-family="Cascadia, Segoe UI Emoji" font-size="22px" fill="#3ce1db" text-anchor="start" style="white-space: pre;" direction="ltr" dominant-baseline="text-before-edge">amount_minmax.mrk</text><text x="0" y="27.5" font-family="Cascadia, Segoe UI Emoji" font-size="22px" fill="#3ce1db" text-anchor="start" style="white-space: pre;" direction="ltr" dominant-baseline="text-before-edge">Granule ID → min, max</text></g><g stroke-linecap="round" transform="translate(833.4840561224487 642.260762117347) rotate(0 304.11391900510216 65.27244100765301)"><path d="M0 0 L608.23 0 L608.23 130.54 L0 130.54" stroke="none" stroke-width="0" fill="#fff96a"></path><path d="M0 0 C158.07 0, 316.14 0, 608.23 0 M0 0 C174.37 0, 348.74 0, 608.23 0 M608.23 0 C608.23 49.9, 608.23 99.79, 608.23 130.54 M608.23 0 C608.23 39.73, 608.23 79.46, 608.23 130.54 M608.23 130.54 C397.93 130.54, 187.63 130.54, 0 130.54 M608.23 130.54 C465.56 130.54, 322.89 130.54, 0 130.54 M0 130.54 C0 84.87, 0 39.19, 0 0 M0 130.54 C0 94.23, 0 57.92, 0 0" stroke="#1f2937" stroke-width="1" fill="none"></path></g><g stroke-linecap="round"><g transform="translate(961.5571731269149 546.8359375) rotate(0 -0.0484264877906071 44.96241230867349)"><path d="M-1.01 -0.09 C-1.09 14.85, -0.2 74, -0.12 89.07" stroke="#fff96a" stroke-width="2.5" fill="none" stroke-dasharray="1.5 8"></path></g><g transform="translate(961.5571731269149 546.8359375) rotate(0 -0.0484264877906071 44.96241230867349)"><path d="M-10.67 60.99 C-7.48 70.28, -5.29 78.84, -0.12 89.07" stroke="#fff96a" stroke-width="2.5" fill="none" stroke-dasharray="1.5 6"></path></g><g transform="translate(961.5571731269149 546.8359375) rotate(0 -0.0484264877906071 44.96241230867349)"><path d="M9.85 60.77 C6.29 69.96, 1.73 78.59, -0.12 89.07" stroke="#fff96a" stroke-width="2.5" fill="none" stroke-dasharray="1.5 6"></path></g></g><mask></mask><g transform="translate(854.478475765306 654.5143494897959) rotate(0 139.3671875 13.75)"><text x="0" y="0" font-family="Cascadia, Segoe UI Emoji" font-size="22px" fill="#1e1e1e" text-anchor="start" style="white-space: pre;" direction="ltr" dominant-baseline="text-before-edge">Grunle0/delta codec</text></g><g stroke-linecap="round" transform="translate(852.98828125 699.98828125) rotate(0 50.626953125 19.17578125)"><path d="M9.59 0 C30.65 -0.84, 55.84 2.07, 91.67 0 C96.85 3.45, 103.23 3.65, 101.25 9.59 C100.55 13.89, 99.19 16.12, 101.25 28.76 C102.56 37.04, 94.72 41.77, 91.67 38.35 C67.81 38.63, 47.57 38.24, 9.59 38.35 C3.13 36.41, 2.07 34.67, 0 28.76 C-0.32 22.4, -0.58 14.79, 0 9.59 C-2.6 2.3, 3.08 2.76, 9.59 0" stroke="none" stroke-width="0" fill="#fff96a"></path><path d="M9.59 0 C30.36 0.47, 49.38 1.37, 91.67 0 M9.59 0 C40.89 -1.21, 72.51 -1.32, 91.67 0 M91.67 0 C98.07 -0.76, 101.01 2.53, 101.25 9.59 M91.67 0 C96.25 -1.78, 100.6 2.64, 101.25 9.59 M101.25 9.59 C102.72 16.22, 101.44 17.86, 101.25 28.76 M101.25 9.59 C101.9 14.13, 100.91 19.75, 101.25 28.76 M101.25 28.76 C102.14 36.75, 97.52 39.62, 91.67 38.35 M101.25 28.76 C102.03 36.14, 100.25 40.6, 91.67 38.35 M91.67 38.35 C76.11 36.62, 56.62 38.94, 9.59 38.35 M91.67 38.35 C66.2 39.21, 40.17 39.47, 9.59 38.35 M9.59 38.35 C1.51 36.7, 0.92 36.58, 0 28.76 M9.59 38.35 C4.2 39.74, 2.03 37.08, 0 28.76 M0 28.76 C-0.29 21.41, 1.19 13.09, 0 9.59 M0 28.76 C1.01 23.75, 0.87 18.03, 0 9.59 M0 9.59 C-0.66 3.15, 5.06 -0.78, 9.59 0 M0 9.59 C-2.11 4.48, 1.25 -0.26, 9.59 0" stroke="#1e1e1e" stroke-width="2" fill="none"></path></g><g transform="translate(897.755859375 707.1640625) rotate(0 5.859375 12)"><text x="5.859375" y="0" font-family="Cascadia, Segoe UI Emoji" font-size="20px" fill="#1e1e1e" text-anchor="middle" style="white-space: pre;" direction="ltr" dominant-baseline="text-before-edge">1</text></g><g stroke-linecap="round" transform="translate(960.521484375 699.80078125) rotate(0 50.626953125 19.17578125)"><path d="M9.59 0 C32.72 1.09, 58.4 1.66, 91.67 0 C99.23 -2.76, 104.7 4.64, 101.25 9.59 C100.85 12.35, 103.62 15.28, 101.25 28.76 C104.68 36.01, 97.17 36.4, 91.67 38.35 C70.58 35.12, 41.39 35.78, 9.59 38.35 C1.7 35.84, -0.48 36.3, 0 28.76 C0.54 24.68, 1.96 16.26, 0 9.59 C-2.34 4.29, 2.57 1.72, 9.59 0" stroke="none" stroke-width="0" fill="#fff96a"></path><path d="M9.59 0 C37.82 -1.43, 64.54 0.88, 91.67 0 M9.59 0 C32.21 -1.66, 52.86 -0.62, 91.67 0 M91.67 0 C98.56 -1.49, 102.56 3.16, 101.25 9.59 M91.67 0 C99.26 -0.11, 100.61 2.92, 101.25 9.59 M101.25 9.59 C101.65 15.98, 100.44 19.2, 101.25 28.76 M101.25 9.59 C100.18 14.07, 101.62 18.66, 101.25 28.76 M101.25 28.76 C99.29 33.93, 97.86 39.66, 91.67 38.35 M101.25 28.76 C99.74 35.22, 97.56 37.82, 91.67 38.35 M91.67 38.35 C64.27 36.84, 31.51 37.95, 9.59 38.35 M91.67 38.35 C63.8 38.15, 38.18 38.6, 9.59 38.35 M9.59 38.35 C3.01 37.74, -0.53 33.48, 0 28.76 M9.59 38.35 C5 40.07, -0.18 34.89, 0 28.76 M0 28.76 C-1.86 24.8, 0.16 19.02, 0 9.59 M0 28.76 C0.64 24.4, 0.6 18.33, 0 9.59 M0 9.59 C1 3.67, 1.97 0.32, 9.59 0 M0 9.59 C-2.28 4.48, 2.05 1.65, 9.59 0" stroke="#1e1e1e" stroke-width="2" fill="none"></path></g><g transform="translate(1005.2890625 706.9765625) rotate(0 5.859375 12)"><text x="5.859375" y="0" font-family="Cascadia, Segoe UI Emoji" font-size="20px" fill="#1e1e1e" text-anchor="middle" style="white-space: pre;" direction="ltr" dominant-baseline="text-before-edge">2</text></g><g stroke-linecap="round" transform="translate(1069.259765625 699.69921875) rotate(0 50.626953125 19.17578125)"><path d="M9.59 0 C37.65 2.48, 69.12 2.7, 91.67 0 C100.64 0.07, 98.2 6.59, 101.25 9.59 C101.76 16.5, 100.44 19.84, 101.25 28.76 C99.61 31.6, 95.28 34.79, 91.67 38.35 C59.54 37.93, 31.3 42.48, 9.59 38.35 C2.71 39.25, -2.24 36.87, 0 28.76 C-1.8 21, -0.57 19.36, 0 9.59 C1.05 2.91, 3.41 -0.18, 9.59 0" stroke="none" stroke-width="0" fill="#fff96a"></path><path d="M9.59 0 C37.81 1.13, 64.74 -2.21, 91.67 0 M9.59 0 C42.26 -1.53, 73.69 -0.73, 91.67 0 M91.67 0 C99.79 -0.09, 102.33 2.98, 101.25 9.59 M91.67 0 C97.62 -0.18, 99.46 5.1, 101.25 9.59 M101.25 9.59 C100.71 13.86, 101.81 16.8, 101.25 28.76 M101.25 9.59 C100.75 15.69, 100.92 20.09, 101.25 28.76 M101.25 28.76 C103.06 34.38, 98.05 36.64, 91.67 38.35 M101.25 28.76 C102.8 37.43, 97.03 38.29, 91.67 38.35 M91.67 38.35 C61.37 40.96, 32.13 39.95, 9.59 38.35 M91.67 38.35 C71.86 38.67, 53.77 38, 9.59 38.35 M9.59 38.35 C2.99 38.9, -1.66 34.18, 0 28.76 M9.59 38.35 C3.4 38.19, -1.88 35.23, 0 28.76 M0 28.76 C-1.22 21.72, -1.4 15.09, 0 9.59 M0 28.76 C0.15 25.65, -0.48 20.71, 0 9.59 M0 9.59 C0.39 2.17, 2.32 -0.72, 9.59 0 M0 9.59 C-0.05 2.48, 4.9 1.12, 9.59 0" stroke="#1e1e1e" stroke-width="2" fill="none"></path></g><g transform="translate(1114.02734375 706.875) rotate(0 5.859375 12)"><text x="5.859375" y="0" font-family="Cascadia, Segoe UI Emoji" font-size="20px" fill="#1e1e1e" text-anchor="middle" style="white-space: pre;" direction="ltr" dominant-baseline="text-before-edge">3</text></g><g stroke-linecap="round" transform="translate(1267.966796875 698.81640625) rotate(0 50.626953125 19.17578125)"><path d="M9.59 0 C28.35 0.14, 52.3 -0.11, 91.67 0 C100.03 2.5, 99.65 3.73, 101.25 9.59 C98.42 16.15, 104.23 21.49, 101.25 28.76 C100.91 32.37, 99.71 39.88, 91.67 38.35 C71.28 40.21, 48.66 33.75, 9.59 38.35 C0.86 36.98, -2.7 35.37, 0 28.76 C-1.23 19.07, -1.6 16.17, 0 9.59 C-3.4 4.47, 4.17 1.16, 9.59 0" stroke="none" stroke-width="0" fill="#fff96a"></path><path d="M9.59 0 C40.29 -0.93, 73.94 -0.58, 91.67 0 M9.59 0 C36.11 0.92, 62.41 0.5, 91.67 0 M91.67 0 C99.56 -0.13, 102 3.12, 101.25 9.59 M91.67 0 C99.51 -0.61, 99.77 4.08, 101.25 9.59 M101.25 9.59 C102.1 17.66, 99.84 25.06, 101.25 28.76 M101.25 9.59 C102.09 15.92, 101.01 24.23, 101.25 28.76 M101.25 28.76 C100.24 34.83, 99.25 39.27, 91.67 38.35 M101.25 28.76 C100.68 33.99, 96.03 38.04, 91.67 38.35 M91.67 38.35 C58.19 39.11, 28.05 35.91, 9.59 38.35 M91.67 38.35 C66.33 39.42, 40.03 38.89, 9.59 38.35 M9.59 38.35 C2.76 36.36, 1.21 34.12, 0 28.76 M9.59 38.35 C2.56 40.5, -1.26 34.51, 0 28.76 M0 28.76 C1.54 21.83, -0.36 14.02, 0 9.59 M0 28.76 C-0.12 21.79, 0 16.91, 0 9.59 M0 9.59 C-1.08 3.93, 2.49 1.61, 9.59 0 M0 9.59 C1.06 2.93, 1.44 0.12, 9.59 0" stroke="#1e1e1e" stroke-width="2" fill="none"></path></g><g transform="translate(1312.734375 705.9921875) rotate(0 5.859375 12)"><text x="5.859375" y="0" font-family="Cascadia, Segoe UI Emoji" font-size="20px" fill="#1e1e1e" text-anchor="middle" style="white-space: pre;" direction="ltr" dominant-baseline="text-before-edge">4</text></g><g transform="translate(1206.59765625 700.0859375) rotate(0 17.578125 12)"><text x="0" y="0" font-family="Cascadia, Segoe UI Emoji" font-size="20px" fill="#1e1e1e" text-anchor="start" style="white-space: pre;" direction="ltr" dominant-baseline="text-before-edge">...</text></g></svg>